<?xml version="1.0" encoding="UTF-8" standalone="no"?>
<svg
   viewBox="0 0 215 100"
   fill-rule="evenodd"
   clip-rule="evenodd"
   version="1.1"
   id="svg1137"
   sodipodi:docname="logo-ioer-de.svg"
   inkscape:version="1.1 (c68e22c387, 2021-05-23)"
   xmlns:inkscape="http://www.inkscape.org/namespaces/inkscape"
   xmlns:sodipodi="http://sodipodi.sourceforge.net/DTD/sodipodi-0.dtd"
   xmlns="http://www.w3.org/2000/svg"
   xmlns:svg="http://www.w3.org/2000/svg">
  <defs
     id="defs1141" />
  <sodipodi:namedview
     id="namedview1139"
     pagecolor="#ffffff"
     bordercolor="#666666"
     borderopacity="1.0"
     inkscape:pageshadow="2"
     inkscape:pageopacity="0.0"
     inkscape:pagecheckerboard="true"
     showgrid="false"
     borderlayer="false"
     inkscape:zoom="6.0613851"
     inkscape:cx="129.42586"
     inkscape:cy="61.784558"
     inkscape:window-width="2560"
     inkscape:window-height="1377"
     inkscape:window-x="-8"
     inkscape:window-y="-8"
     inkscape:window-maximized="1"
     inkscape:current-layer="svg1137" />
  <g
     fill="#5b5f5f"
     fill-rule="nonzero"
     id="g1127">
    <path
       d="M91.184 38.699h1.893l-.089 8.602h4.008v1.627h-5.901l.089-10.23zM99.613 45.423c.015 1.02.474 2.263 1.716 2.263.71 0 1.272-.474 1.73-.961l1.035.946c-.784.873-1.819 1.464-3.031 1.464-1.893 0-3.254-1.568-3.254-3.904 0-1.98 1.227-3.959 3.401-3.959 2.1 0 3.076 1.552 3.076 4.151h-4.673zm2.958-1.271c-.044-.797-.414-1.61-1.36-1.61-.814 0-1.435.872-1.51 1.61h2.87zM105.84 41.479h1.803l-.074 7.449h-1.804l.074-7.45zm.014-2.78h1.804l-.015 1.745h-1.804l.015-1.745zM109.729 37.84h1.804l-.059 4.54.03.03c.325-.724 1.02-1.138 1.936-1.138 1.834 0 3.003 1.698 3.003 3.721 0 1.893-1.198 4.142-3.298 4.142-.71 0-1.376-.237-1.715-.858h-.03v.65h-1.73l.059-11.086zm1.73 9.18c.192.28.695.577 1.198.577 1.33 0 1.981-1.272 1.981-2.44 0-1.138-.502-2.349-1.67-2.349-.681 0-1.11.384-1.494.974l-.015 3.238zM118.04 41.479h1.774v.901h.03c.577-.65 1.42-1.108 2.41-1.108 1.568 0 1.982 1.094 1.982 2.245 0 .738-.015 1.196-.015 1.67l-.044 3.74h-1.804l.014-1.863c.015-1.153.03-2.041.03-2.928 0-.915-.222-1.24-.976-1.24-.562 0-1.183.532-1.642.975l-.03 5.056h-1.803l.074-7.448zM126.395 41.479h1.804l-.074 7.449h-1.804l.074-7.45zm.014-2.78h1.805l-.015 1.745h-1.804l.014-1.745zM129.692 47.863l3.446-4.937h-3.268V41.48h5.102l.547 1.064-3.476 4.936h3.299v1.449h-5.117l-.533-1.065zM136.82 44.373h3.89V46h-3.89zM142.795 38.699h1.893l-.089 10.229h-1.893l.089-10.23zM146.802 41.479h1.775v.901h.03c.576-.65 1.42-1.108 2.41-1.108 1.568 0 1.982 1.094 1.982 2.245 0 .738-.015 1.196-.015 1.67l-.044 3.74h-1.805l.015-1.863c.015-1.153.03-2.041.03-2.928 0-.915-.222-1.24-.976-1.24-.562 0-1.183.532-1.642.975l-.03 5.056h-1.804l.074-7.448zM155.232 47.153c.576.34 1.183.621 1.863.621.547 0 1.035-.266 1.035-.872 0-1.494-3.475-.34-3.475-3.326 0-1.536 1.301-2.304 2.75-2.304.858 0 1.864.251 2.53.813l-.77 1.137c-.429-.325-1.094-.59-1.641-.59-.518 0-1.154.28-1.154.885 0 1.418 3.564.531 3.564 3.237 0 1.597-1.36 2.38-2.81 2.38a5.01 5.01 0 01-2.558-.71l.666-1.27zM165.554 48.514l-.607.325a2.273 2.273 0 01-1.124.296c-1.242 0-2.026-.651-2.026-2.234 0-.34 0-1.138.015-1.79l.044-2.274h-1.005v-1.359l1.005.03.06-2.662h1.804l-.06 2.662 1.657-.03v1.36h-1.656l-.045 2.185c-.015.74-.015 1.42-.015 1.967 0 .488.163.784.607.784.31 0 .577-.177.828-.355l.518 1.095zM166.633 41.479h1.804l-.074 7.449h-1.804l.074-7.45zm.014-2.78h1.805l-.015 1.745h-1.804l.014-1.745zM174.59 48.514l-.607.325a2.273 2.273 0 01-1.124.296c-1.243 0-2.026-.651-2.026-2.234 0-.34 0-1.138.014-1.79l.044-2.274h-1.005v-1.359l1.005.03.06-2.662h1.804l-.06 2.662 1.657-.03v1.36h-1.656l-.044 2.185c-.015.74-.015 1.42-.015 1.967 0 .488.162.784.606.784.31 0 .577-.177.829-.355l.517 1.095zM181.687 48.928h-1.804v-.902h-.03c-.561.65-1.405 1.109-2.307 1.109-1.641 0-2.07-1.08-2.07-2.529 0-.458.015-.917.015-1.39l.044-3.737h1.804l-.015 1.861c-.014 1.078-.03 2.127-.03 2.94 0 .874.223 1.228.977 1.228.562 0 1.183-.532 1.641-.976l.03-5.053h1.804l-.059 7.449zM187.736 48.514l-.607.325a2.273 2.273 0 01-1.124.296c-1.242 0-2.026-.651-2.026-2.234 0-.34 0-1.138.015-1.79l.044-2.274h-1.005v-1.359l1.005.03.059-2.662h1.805l-.06 2.662 1.657-.03v1.36h-1.657l-.044 2.185c-.015.74-.015 1.42-.015 1.967 0 .488.163.784.607.784.31 0 .576-.177.828-.355l.518 1.095zM91.376 60.58h-1.183v-1.36h1.183v-.961c0-1.612.976-2.795 2.81-2.795h.577v1.449h-.414c-.665 0-1.139.355-1.139 1.287v1.02h1.538v1.36h-1.582v6.094h-1.82l.03-6.093zM101.994 66.674h-1.804v-.902h-.03c-.561.65-1.404 1.109-2.306 1.109-1.642 0-2.07-1.08-2.07-2.529 0-.458.014-.917.014-1.39l.044-3.742h1.804l-.014 1.864c-.015 1.08-.03 2.13-.03 2.943 0 .872.222 1.227.976 1.227.562 0 1.183-.532 1.642-.976l.03-5.058h1.803l-.059 7.454zm-5.22-10.234h1.627v1.627h-1.627V56.44zm2.632 0h1.627v1.627h-1.627V56.44zM104.065 59.22h1.804v1.36l.015.03c.355-.858.813-1.568 1.73-1.597.177 0 .355.03.533.074l-.297 1.73c-.147-.03-.295-.06-.428-.06-.695 0-1.198.518-1.568 1.302l-.044 4.615h-1.819l.074-7.454zM116.162 59.013c2.366 0 3.564 1.73 3.564 3.934 0 2.115-1.317 3.934-3.564 3.934-2.425 0-3.564-1.82-3.564-3.934 0-1.967 1.375-3.934 3.564-3.934zm-2.13-2.573h1.627v1.627h-1.627V56.44zm2.13 8.991c1.301 0 1.76-1.39 1.76-2.425 0-1.553-.547-2.544-1.76-2.544-1.346 0-1.76 1.51-1.76 2.544 0 .902.414 2.425 1.76 2.425zm.502-8.991h1.627v1.627h-1.627V56.44zM121.337 55.582h1.805l-.09 7.114h.03l3.166-3.92 1.286 1.08-2.603 2.929 2.603 3.327-1.478 1.02-2.973-4.111h-.03v3.653h-1.804l.088-11.092zM131.778 59.013c2.366 0 3.564 1.73 3.564 3.934 0 2.115-1.317 3.934-3.564 3.934-2.425 0-3.564-1.82-3.564-3.934 0-1.967 1.375-3.934 3.564-3.934zm0 6.418c1.301 0 1.76-1.39 1.76-2.425 0-1.553-.547-2.544-1.76-2.544-1.346 0-1.76 1.51-1.76 2.544 0 .902.414 2.425 1.76 2.425zM137.087 55.582h1.804l-.088 11.092h-1.805l.089-11.092zM144.112 59.013c2.366 0 3.564 1.73 3.564 3.934 0 2.115-1.317 3.934-3.564 3.934-2.426 0-3.564-1.82-3.564-3.934 0-1.967 1.374-3.934 3.564-3.934zm0 6.418c1.3 0 1.76-1.39 1.76-2.425 0-1.553-.547-2.544-1.76-2.544-1.347 0-1.76 1.51-1.76 2.544 0 .902.413 2.425 1.76 2.425zM154.877 60.403c.281.31.429.71.429 1.139 0 1.538-1.331 2.41-2.75 2.41-.607 0-1.08-.103-1.362-.192-.28.207-.65.414-.65.68 0 .325.458.385 2.13.533 1.67.148 3.43.37 3.43 2.218 0 2.04-2.188 3.061-4.067 3.061-2.38 0-3.372-1.109-3.372-2.188 0-1.08.814-1.553 1.597-1.952v-.03c-.68-.148-1.597-.31-1.597-1.035 0-.65.503-.976 1.746-1.76-.71-.384-1.02-1.02-1.02-1.745 0-1.597 1.345-2.529 2.883-2.529.843 0 1.213.148 1.656.325l2.41-.044v1.154l-1.463-.045zm-2.691 8.696c1.287 0 2.203-.798 2.203-1.568 0-.783-.295-.872-2.883-1.183-.577.356-1.302.754-1.302 1.464 0 .962 1.198 1.287 1.982 1.287zm-1.08-7.557c0 .65.414 1.257 1.272 1.257.814 0 1.213-.547 1.213-1.331 0-.71-.444-1.302-1.169-1.302-.828 0-1.316.563-1.316 1.376zM157.627 59.22h1.805l-.074 7.454h-1.805l.074-7.454zm.015-2.78h1.804l-.014 1.745h-1.805l.015-1.745zM161.812 64.899c.577.34 1.184.621 1.864.621.547 0 1.035-.266 1.035-.872 0-1.494-3.476-.34-3.476-3.327 0-1.539 1.302-2.307 2.751-2.307.858 0 1.864.25 2.53.813l-.77 1.139c-.429-.326-1.094-.592-1.641-.592-.518 0-1.154.28-1.154.887 0 1.42 3.564.533 3.564 3.239 0 1.597-1.36 2.381-2.81 2.381a5.01 5.01 0 01-2.558-.71l.665-1.272zM173.673 65.46c-.725.888-1.597 1.42-2.78 1.42-2.13 0-3.24-2.011-3.24-3.815 0-2.056 1.287-4.052 3.506-4.052 1.094 0 1.937.517 2.602 1.256l-1.02.991c-.458-.37-.872-.71-1.508-.71-1.125 0-1.686 1.213-1.686 2.352 0 1.567.695 2.44 1.597 2.44.665 0 1.109-.4 1.524-.828l1.005.947zM174.722 55.582h1.805l-.03 4.54h.03c.576-.65 1.42-1.108 2.41-1.108 1.568 0 1.982 1.094 1.982 2.247 0 .74-.015 1.198-.015 1.671l-.044 3.742h-1.805l.015-1.863c.015-1.154.03-2.574.03-3.165 0-.577-.222-1.006-.976-1.006-.562 0-1.183.532-1.642.976l-.03 5.058h-1.804l.074-11.092zM184.246 63.169c.015 1.02.473 2.262 1.715 2.262.71 0 1.272-.473 1.73-.96l1.036.946c-.784.872-1.82 1.464-3.032 1.464-1.893 0-3.254-1.568-3.254-3.905 0-1.982 1.228-3.963 3.402-3.963 2.1 0 3.076 1.553 3.076 4.156h-4.673zm2.958-1.272c-.045-.799-.415-1.612-1.361-1.612-.814 0-1.435.872-1.509 1.612h2.87zM91.095 74.186h3.239c2.47 0 3.476 1.331 3.476 2.958 0 1.301-.784 2.233-1.982 2.662l2.913 3.815-1.686 1.006-2.839-3.948a.776.776 0 00-.68-.356h-.592l-.015 4.097h-1.937l.103-10.234zm3.047 4.6c.562 0 1.686-.252 1.686-1.583 0-.976-.77-1.479-1.73-1.479h-1.095l-.03 3.061h1.169zM99.702 78.268c1.627-1.331 2.455-1.51 3.254-1.51 1.109 0 2.13.696 2.13 2.145 0 .266 0 .43-.015.622l-.06 2.144c-.014.34-.03.621-.03.932 0 .414.208.71.4.71.089 0 .222-.045.533-.193l.428.902c-.783.518-1.212.607-1.552.607-.636 0-1.154-.37-1.287-.991-.532.621-1.198.99-1.908.99-1.33 0-2.233-.842-2.233-2.173 0-1.198.77-2.233 3.993-2.766V79.2c0-.828-.355-.99-.858-.99-.37 0-.813.148-1.937 1.02l-.858-.961zm3.638 2.573c-1.715.385-2.263.798-2.263 1.553 0 .547.385.872.947.872.37 0 .858-.236 1.286-.695l.03-1.73zM113.5 84.42h-1.805v-.902h-.03c-.561.65-1.404 1.109-2.306 1.109-1.642 0-2.07-1.08-2.07-2.53 0-.458.014-.916.014-1.39l.045-3.74h1.804l-.015 1.863c-.015 1.08-.03 2.13-.03 2.942 0 .873.223 1.228.976 1.228.562 0 1.184-.532 1.642-.976l.03-5.058h1.804l-.06 7.454zM115.54 76.966h1.79v.99l.03.03c.458-.71 1.301-1.227 2.218-1.227.873 0 1.582.4 1.819 1.272.562-.77 1.494-1.272 2.44-1.272 1.672 0 2.012 1.198 2.012 2.144 0 1.834-.015 3.683-.015 5.517h-1.804l.014-2.929c0-.768.015-1.79.015-2.188 0-.562-.34-.917-.902-.917-.532 0-1.227.606-1.538.99l-.06 5.044h-1.789l.015-2.929c0-.768.015-1.79.015-2.188 0-.562-.34-.917-.903-.917-.532 0-1.227.606-1.538.99l-.059 5.044h-1.79l.03-7.454zM129.19 80.915c.014 1.02.473 2.262 1.715 2.262.71 0 1.272-.473 1.73-.96l1.036.946c-.784.872-1.82 1.464-3.032 1.464-1.893 0-3.253-1.568-3.253-3.904 0-1.983 1.227-3.964 3.4-3.964 2.1 0 3.077 1.553 3.077 4.156h-4.673zm2.958-1.272c-.045-.798-.415-1.612-1.361-1.612-.814 0-1.435.873-1.509 1.612h2.87zM135.283 76.966h1.774v.902h.03c.577-.65 1.42-1.11 2.41-1.11 1.568 0 1.982 1.096 1.982 2.25 0 .738-.015 1.197-.015 1.67l-.044 3.742h-1.804l.015-1.864c.014-1.153.03-2.04.03-2.928 0-.917-.223-1.242-.977-1.242-.561 0-1.183.532-1.641.976l-.03 5.058h-1.804l.074-7.454zM147.483 84.006l-.607.325a2.273 2.273 0 01-1.124.296c-1.242 0-2.026-.651-2.026-2.233 0-.34 0-1.14.015-1.79l.044-2.278h-1.005v-1.36l1.005.03.06-2.663h1.804l-.06 2.662 1.657-.03v1.361h-1.656l-.045 2.189c-.015.74-.015 1.42-.015 1.967 0 .488.163.784.607.784.31 0 .577-.178.828-.356l.518 1.096zM147.571 77.203l1.775-.444 1.36 5.457h.03l1.464-5.25h1.908l1.375 5.25h.03l1.508-5.457 1.671.547-2.395 7.114h-1.834l-1.316-5.458h-.03l-1.449 5.458h-1.819l-2.278-7.217zM160.067 76.966h1.805l-.074 7.454h-1.805l.074-7.454zm.015-2.78h1.804l-.014 1.745h-1.805l.015-1.745zM169.562 83.207c-.725.887-1.598 1.42-2.78 1.42-2.13 0-3.24-2.012-3.24-3.816 0-2.056 1.287-4.053 3.506-4.053 1.094 0 1.937.518 2.602 1.257l-1.02.991c-.459-.37-.873-.71-1.509-.71-1.124 0-1.685 1.213-1.685 2.352 0 1.567.695 2.44 1.597 2.44.665 0 1.109-.4 1.523-.828l1.006.947zM170.626 73.328h1.805l-.09 7.114h.03l3.165-3.92 1.287 1.08-2.603 2.928 2.603 3.328-1.478 1.02-2.973-4.112h-.03v3.654h-1.805l.09-11.092zM178.153 73.328h1.804l-.088 11.092h-1.804l.088-11.092zM188.269 84.42h-1.805v-.902h-.03c-.56.65-1.404 1.109-2.306 1.109-1.642 0-2.07-1.08-2.07-2.53 0-.458.014-.916.014-1.39l.045-3.74h1.804l-.015 1.863c-.015 1.08-.03 2.13-.03 2.942 0 .873.222 1.228.976 1.228.562 0 1.183-.532 1.642-.976l.03-5.058h1.804l-.06 7.454zM190.339 76.966h1.774v.902h.03c.577-.65 1.42-1.11 2.41-1.11 1.568 0 1.982 1.096 1.982 2.25 0 .738-.015 1.197-.015 1.67l-.044 3.742h-1.804l.015-1.864c.014-1.153.03-2.04.03-2.928 0-.917-.223-1.242-.977-1.242-.561 0-1.183.532-1.641.976l-.03 5.058h-1.804l.074-7.454zM204.166 78.149c.281.31.429.71.429 1.139 0 1.538-1.331 2.41-2.75 2.41-.608 0-1.08-.103-1.362-.192-.28.207-.65.414-.65.68 0 .326.458.385 2.13.533 1.67.148 3.43.37 3.43 2.218 0 2.041-2.188 3.061-4.067 3.061-2.38 0-3.372-1.109-3.372-2.188 0-1.08.814-1.553 1.597-1.952v-.03c-.68-.148-1.597-.31-1.597-1.035 0-.65.503-.976 1.746-1.76-.71-.384-1.02-1.02-1.02-1.745 0-1.597 1.345-2.53 2.883-2.53.843 0 1.212.15 1.656.326l2.41-.044v1.153l-1.463-.044zm-2.692 8.696c1.287 0 2.204-.798 2.204-1.568 0-.783-.296-.872-2.884-1.183-.577.356-1.301.754-1.301 1.464 0 .962 1.198 1.287 1.981 1.287zm-1.08-7.557c0 .65.415 1.257 1.272 1.257.814 0 1.213-.547 1.213-1.331 0-.71-.444-1.302-1.168-1.302-.828 0-1.316.563-1.316 1.376z"
       id="path1125" />
  </g>
  <path
     d="M52.986 24.826l-3.093-13.55-39.946 9.12 9.12 39.94 7.535-1.72v-33.79h26.384z"
     fill="#006eb7"
     fill-rule="nonzero"
     id="path1129" />
  <path
     d="M52.986 24.826l.927 4.06h11.078v34.398H30.588v-5.578l-3.986.91v8.654h42.449V24.826H52.986z"
     fill="#5b5f5f"
     fill-rule="nonzero"
     id="path1131" />
  <path
     d="M53.913 28.886H30.588v28.82l28.424-6.489-5.099-22.33z"
     fill="#86bc25"
     fill-rule="nonzero"
     id="path1133" />
  <path
     fill="none"
     stroke="#f2f2f2"
     d="M0 0h215.046v98.008H0z"
     stroke-width=".37919"
     id="path1135"
     style="stroke:none;stroke-opacity:1;stroke-width:0;stroke-miterlimit:4;stroke-dasharray:none" />
</svg>
