<svg id="Ebene_1" data-name="Ebene 1" xmlns="http://www.w3.org/2000/svg" xmlns:xlink="http://www.w3.org/1999/xlink" viewBox="0 0 736 192"><defs><style>.cls-1{fill:url(#Unbenannter_Verlauf_27);}.cls-2{fill:url(#Unbenannter_Verlauf_23);}.cls-3{fill:#7af842;}.cls-4{fill:#00dee2;}.cls-5{fill:#fff;}</style><linearGradient id="Unbenannter_Verlauf_27" x1="91" y1="150.26" x2="91.08" y2="150.26" gradientUnits="userSpaceOnUse"><stop offset="0" stop-color="#fff"/></linearGradient><linearGradient id="Unbenannter_Verlauf_23" x1="90.92" y1="150.34" x2="91" y2="150.34" gradientUnits="userSpaceOnUse"><stop offset="0" stop-color="#fff"/><stop offset="1"/></linearGradient></defs><path class="cls-1" d="M91,150.29Z"/><path class="cls-2" d="M91,150.3Z"/><path class="cls-3" d="M87.83,119.64c4.4,1.61,9-1.12,10.25-6.11s-1.27-10.33-5.67-11.94-9,1.12-10.25,6.11S83.44,118,87.83,119.64Z"/><path class="cls-3" d="M97.45,123.73a27.8,27.8,0,0,0-6.34,11.32,83.88,83.88,0,0,0-26.28-25c-15-9.15-34.25-13.44-49.14-12.65,13.73.1,31.11,5.41,44.41,14.18C78.61,123.79,89.25,145.42,90,149.14c0,.19,0,.35,0,.54h0c6.39-8.65,17.22-19.94,28.21-25.41,13.76-6.86,28.3-9.07,41.23-7.28-12-.93-25.16,2-37.22,9-25,14.42-31.64,37.46-31.7,40.35,0,.09,0,.19,0,.29l.16-.21c12.37-14.1,50.78-4.56,73.06-30,10-11.37,20-25.29,20.57-45.91C153.6,110.43,112,107.18,97.45,123.73Z"/><path class="cls-4" d="M157.49,99.47h0l-.67.22Z"/><path class="cls-4" d="M145.52,102.85l-1.45.36h0Z"/><path class="cls-4" d="M168.64,82v-.09l0,0c-.08-.26-.16-.52-.23-.78,0,.08,0,.17,0,.22Q168.57,81.7,168.64,82Z"/><path class="cls-4" d="M158,99.29l-.13,0h0Z"/><path class="cls-4" d="M170.89,93.06c0-.29-.07-.57-.11-.86,0,.26-.07.4-.16.36-.4-.19-1.23-3.8-.92-4.56.15-.18.39.33.61,1.06q-.28-1.57-.63-3.12a16.89,16.89,0,0,1-.88-2.82.56.56,0,0,1,0,.26c0,.05-.08.06-.14,0a9.93,9.93,0,0,1,.6,1.59c.4,1.4.52,2.64.23,2.5s-1.51-3.78-1.24-4.47c0,0,.07,0,.12,0a4.27,4.27,0,0,1-.27-.59c0,.1-.07.14-.14.11-.43-.2-1.79-3.71-1.56-4.36.19-.21.7.72,1.1,1.76-.06-.25-.11-.49-.17-.74a6.88,6.88,0,0,1-.52-2c.08-.19.4.34.73,1.08-.34-1-.71-2-1.09-2.93a18.14,18.14,0,0,1-1.76-3.85l0-.06s0,0,0,0c-.18-.38-.36-.76-.55-1.14.17.39.27.69.22.74a15.21,15.21,0,0,1-2.3-4l0,0a5.93,5.93,0,0,1,1.23,1.68c-.56-1.07-1.15-2.12-1.76-3.15A22.49,22.49,0,0,1,159,61.85v0h0a2.42,2.42,0,0,1,.4.4c-.49-.73-1-1.44-1.51-2.14a31.24,31.24,0,0,1-2.45-3v0l0,0,.15.11c-.54-.66-1.1-1.31-1.66-1.95a32.89,32.89,0,0,1-2.44-2.53l0,0,0,0,.15.1q-.77-.8-1.56-1.56c-.84-.65-2.61-2.15-2.84-2.42l0,0h0a.83.83,0,0,1,.28.15c.31.24.61.5.91.75A69.45,69.45,0,0,0,109,31.81a3.36,3.36,0,0,1,.76.24v0a16.62,16.62,0,0,1-2.68-.4l-.3-.06-.6,0a16.17,16.17,0,0,1,2.94.63v0a25,25,0,0,1-2.71-.36,6.13,6.13,0,0,1-1.71-.36l.1,0c-.79,0-1.59-.05-2.4-.06a4.42,4.42,0,0,1,1.1.21v0a21,21,0,0,1-2.78-.08c-.6-.05-1-.08-1.25-.12q-1,0-2.1.09a1.5,1.5,0,0,1,.39.09v0a18.34,18.34,0,0,1-2.81.19c-.49,0-.87,0-1.16,0-.81.09-1.61.18-2.4.3.33,0,.58,0,.62.11v0a14.35,14.35,0,0,1-2.78.48,8.85,8.85,0,0,1-1.65.07c-1,.21-2.06.44-3.07.7.9-.18,1.71-.26,1.84-.06v0a9.6,9.6,0,0,1-2.7.78c-1.2.23-2,.26-1.87.09a1.31,1.31,0,0,1,.42-.22l-1,.3h0v0a10,10,0,0,1-2.66,1,9.77,9.77,0,0,1-1.13.24c-1,.35-1.89.72-2.81,1.11.65-.18,1.16-.25,1.22-.09v0a7.14,7.14,0,0,1-2.52,1.29c-1.23.43-2,.53-1.85.23,0,0,.09-.07.12-.11l-.68.33v0a7,7,0,0,1-2.45,1.5,7.44,7.44,0,0,1-1.36.46c-1.12.64-2.22,1.32-3.3,2,1-.57,2.07-1,2.21-.69v0c-.07.48-1.41,1.35-2.24,1.79-1.14.6-2,.77-1.85.39a1.84,1.84,0,0,1,.59-.68c-.44.3-.88.59-1.31.9.1,0,.18,0,.21.09v0c-.07.48-1.3,1.44-2.15,2s-1.47.76-1.69.67c-.25.2-.51.4-.75.61A8.65,8.65,0,0,1,55,49.44c-.21.15-.4.27-.59.38-.86.8-1.72,1.62-2.54,2.46.49-.34.93-.54,1.12-.4L53,52c.06.59-1,1.77-1.76,2.42-1,.83-1.77,1.11-1.77.62a1.12,1.12,0,0,1,.11-.38A69.59,69.59,0,0,0,32,95.92a84.49,84.49,0,0,1,8.56,1.55l-1.14-.29c.29-1.16,1-2.07,1.79-1.72a1.17,1.17,0,0,1,.26.17,2.88,2.88,0,0,1,.6,2.23l-.61-.16c2.32.58,4.61,1.26,6.9,2l-1.11-.36a1.81,1.81,0,0,1-.12-.28c-.64-2,.93-4.41,2.37-3.6a.78.78,0,0,1,.15.1c1.07.91.89,2.64.42,3.57a2.45,2.45,0,0,1-.72.89c.87.31,1.73.66,2.59,1-.52-.21-1-.43-1.55-.62.08-1.63,1.34-3,2.58-2.4l.16.1a3,3,0,0,1,.53,3.57h0l.56.25c.41-1.16,1.44-1.92,2.49-1.4l.17.1a2.7,2.7,0,0,1,.87,2.87l.66.33a1.77,1.77,0,0,1,2.26-.78l.18.1a2.59,2.59,0,0,1,1,2.45q2.1,1.13,4.17,2.39a87.55,87.55,0,0,1,24.33,21.9,31.7,31.7,0,0,1,5.22-7.77,28.6,28.6,0,0,1,2-2.08h0a2.23,2.23,0,0,1-.2-.41,2,2,0,0,1-.07-.48,9.62,9.62,0,0,1-7,3.11,9.49,9.49,0,0,1-3.31-.6c-5.41-2-8.56-8.49-7-14.52,1.25-4.91,5.18-8.21,9.8-8.21a9.71,9.71,0,0,1,3.31.59l.74.32a2.44,2.44,0,0,1,3.26-2.46,2.39,2.39,0,0,1,1,3.33,2.36,2.36,0,0,1-1.34,1.13,11.49,11.49,0,0,1,2,2.47A2.25,2.25,0,0,1,101,107.8a2.47,2.47,0,0,1-.6.74,12.67,12.67,0,0,1,.2,3.26,2.46,2.46,0,0,1,2.21-.29,2.42,2.42,0,0,1,1.2,3.36,2.38,2.38,0,0,1-4.12.27,12.54,12.54,0,0,1-.6,1.4,2.16,2.16,0,0,1,2.17.54h0q1.56-1.06,3.27-2a2.45,2.45,0,0,1,3.15-1.64l0,0h0l1-.47a2.21,2.21,0,0,1-2.26-1.57,2.46,2.46,0,0,1,3.09-3.11,2.43,2.43,0,0,1,.71,4l1.23-.49h0a2.42,2.42,0,0,1,3.08-1.77,2.52,2.52,0,0,1,.7.43c1-.32,2-.64,3-1a2.43,2.43,0,0,1,2.89-3,2.26,2.26,0,0,1,1.5,1.78h0c2.21-.59,4.5-1.15,6.83-1.7a2.3,2.3,0,0,1,2.64-2.52,2.16,2.16,0,0,1,1.46,1.55l1.25-.29,4.9-1.16c-.51-1.53.35-3.56,2-3.35a2.31,2.31,0,0,1,1.49,2.5l.62-.15c.24-.95.88-1.73,1.84-1.64a1.67,1.67,0,0,1,1.1.9c1.69-.44,3.38-.89,5.07-1.38-.76-1.37-.42-3.94,1-4,1.06.18,1.46,1.69,1.41,2.71a3.28,3.28,0,0,1-.08.56l.56-.17c-.2-1.32.16-2.86,1.17-2.92.83.1,1.25,1.19,1.34,2.14l.41-.13c0-1,.38-1.91,1.06-2s.91.61,1.11,1.27l.62-.21c.12-.62.39-1.11.82-1.2a1,1,0,0,1,.81.64l1-.37a.92.92,0,0,1,.5-.58.6.6,0,0,1,.47.21l1.37-.52a.56.56,0,0,1,.16-.15.32.32,0,0,1,.17,0l1.53-.63h0l1.27-.55a.66.66,0,0,1,.12-.22.21.21,0,0,1,.24.07l.7-.31a1.42,1.42,0,0,1,.18-.67c.13-.1.28.09.41.42l.3-.13a3.7,3.7,0,0,1,.08-1.35S170.86,93.06,170.89,93.06Zm-2.29-7c.39,1.41.42,2.63.06,2.44-.53-.26-1.61-3.85-1.16-4.5C167.78,83.78,168.3,84.89,168.6,86ZM53.72,63.35c.57.78-.18,2.17-.9,2.92-1.2,1.22-2.49,1.21-2.48,0C50.36,64.65,52.68,62.35,53.72,63.35ZM51,58.42c.05-1.41,2.75-3.73,3.49-3l.06.07c.3.69-.65,1.94-1.42,2.61C52,59.09,51,59.24,51,58.42Zm-4,12c0-1.72,2.11-3.94,3.08-3.17l.1.09c.59.81-.09,2.28-.76,3.06C48.31,71.73,47,71.75,47,70.46Zm1.63,6.74c-1,1.38-2.37,1.4-2.56.06-.26-1.81,1.77-4.18,2.89-3.38a1.06,1.06,0,0,1,.11.09C49.79,74.83,49.24,76.37,48.63,77.2Zm.73-15.28c-1,1-2,1.22-2.06.37,0-1.48,2.53-4,3.27-3.21l.07.07C51,59.87,50.08,61.2,49.36,61.92Zm-1,3.16.09.08c.46.79-.27,2.23-.94,3-1.05,1.2-2.16,1.32-2.21.22C45.19,66.74,47.45,64.3,48.31,65.08ZM46.8,71.55l.09.09c.61.84,0,2.37-.61,3.19-1,1.28-2.14,1.4-2.33.25C43.66,73.33,45.76,70.73,46.8,71.55ZM46,78.4l.11.1c.74.87.28,2.47-.29,3.34-.94,1.43-2.24,1.48-2.48.1C43,80.08,44.86,77.6,46,78.4Zm-.14,7.16.13.1c.86.89.52,2.57,0,3.47-.84,1.49-2.2,1.56-2.58.13C42.85,87.28,44.55,84.72,45.84,85.56Zm0-1.19c-.46-1.94,1.4-4.4,2.69-3.55a.57.57,0,0,1,.13.1c.84.88.43,2.5-.14,3.37C47.56,85.73,46.16,85.77,45.82,84.37Zm5.54-1.1.14.09c1,.9.57,2.53,0,3.41-1,1.52-2.59,1.45-2.91-.13C48.2,84.71,50,82.47,51.36,83.27Zm3.14,2.47a.78.78,0,0,1,.15.1c1,.89.71,2.54.15,3.42-1,1.53-2.68,1.46-3.09-.12C51.22,87.19,53.06,84.94,54.5,85.74Zm3.57,2.58c1.13.91.84,2.56.28,3.45-1,1.65-2.92,1.46-3.3-.33S56.42,87.32,58.07,88.32ZM54.75,70.63c-.06-1.67,2.13-3.79,3.42-2.82.77.82.13,2.26-.57,3C56.37,72.17,54.8,72.05,54.75,70.63ZM59.88,54c.4.7-.55,1.9-1.36,2.53-1.26,1-2.46,1-2.38.07C56.26,55.26,59,53.06,59.88,54Zm-.82-2.65c.31-1.18,3.23-3.16,3.88-2.32.26.62-.82,1.69-1.66,2.26C60,52.2,58.83,52.23,59.06,51.38Zm-2,3.2c-1.18.9-2.25,1-2.19.24.09-1.29,3-3.44,3.68-2.75l.06.07C58.91,52.8,57.9,54,57.08,54.58Zm.68,4c.14-1.44,2.73-3.44,3.72-2.51.51.72-.38,2-1.18,2.61C59,59.71,57.64,59.66,57.76,58.53Zm2.48-5.3C60.4,52,63.3,50,64.13,50.85c.38.66-.64,1.78-1.47,2.36C61.33,54.12,60.12,54.13,60.24,53.23Zm3.17-4.88c.36-1.1,3.4-2.88,4-2.08.24.58-.9,1.56-1.78,2.07C64.29,49.14,63.15,49.14,63.41,48.35Zm2.25,4.4c.48.68-.48,1.83-1.31,2.43-1.39,1-2.73.94-2.56-.12C62,53.7,64.7,51.85,65.66,52.75Zm-1.12-2.64c.22-1.16,3.22-3,4-2.15.35.62-.72,1.65-1.6,2.17C65.6,51,64.37,51,64.54,50.11Zm22.4-11.87c.14.42-1.25,1-2.16,1.24-1.45.41-2.57.36-2.34-.1C82.82,38.58,86.44,37.66,86.94,38.24Zm-.32-2.37c.42-.59,4.38-1.2,4.65-.71,0,.3-1.52.66-2.47.82C87.36,36.22,86.41,36.17,86.62,35.87ZM98.93,41.3c-1.44.43-2.66.37-2.46-.13.3-.75,3.5-1.52,4.21-1C101,40.52,99.77,41.05,98.93,41.3Zm3-.12c.35.38-.79,1-1.6,1.24-1.47.51-2.74.43-2.45-.15C98.25,41.49,101.15,40.71,101.89,41.18Zm-4.18-1c-1.49.37-2.7.29-2.43-.18.39-.71,3.68-1.38,4.33-.88C99.86,39.49,98.58,40,97.71,40.2Zm-8.94.52c.3.47-1,1.13-1.86,1.43-1.51.53-2.75.45-2.51-.15C84.77,41.08,88.07,40.11,88.77,40.72ZM88.31,39c.54-.75,3.93-1.43,4.48-.9.18.39-1.19.9-2.1,1.12C89.14,39.63,88,39.52,88.31,39Zm-1.07,5.76c.33-.93,3.24-2.09,4.16-1.42.43.49-.72,1.24-1.55,1.6C88.35,45.61,87,45.52,87.24,44.79ZM89,46.16c.39-.94,3.1-2,4-1.44.49.5-.59,1.3-1.39,1.68C90.06,47.13,88.61,47,89,46.16Zm2.88-3.37c.42-.87,3.43-1.73,4.18-1.19.37.43-.82,1.07-1.65,1.38C92.85,43.53,91.53,43.42,91.84,42.79Zm1.5-4.94c.37-.63,4-1.18,4.55-.69.15.34-1.25.72-2.17.89C94.23,38.31,93.12,38.22,93.34,37.85Zm4.51-1.75c.28-.48,4.26-.75,4.68-.31.06.27-1.68.47-2.36.53C98.73,36.44,97.71,36.34,97.85,36.1Zm1.85-.59c-1.47.08-2.44,0-2.26-.25.37-.44,4.39-.6,4.73-.19C102.18,35.32,100.39,35.48,99.7,35.51Zm-.3-.75c-1.48.05-2.43-.07-2.2-.27.45-.39,4.5-.46,4.75-.08C101.91,34.64,100.09,34.74,99.4,34.76Zm2.48-.95a10.2,10.2,0,0,1-2.63.26c-.62,0-2.08,0-2.17-.22C97.24,33.44,101.68,33.41,101.88,33.81Zm-4.73-.61c.25-.36,4.69-.31,4.79.06a12.16,12.16,0,0,1-2.69.18C98.63,33.44,97.19,33.4,97.15,33.2Zm.13,3c.09.31-1.36.64-2.3.78-1.51.23-2.59.13-2.31-.21C93.14,36.23,96.85,35.78,97.28,36.24Zm-2.85-.17c-1.45.18-2.45.1-2.27-.18.34-.54,4.33-1,4.69-.5C96.88,35.7,95.07,36,94.43,36.07Zm-.36-.88c-1.45.14-2.42.06-2.19-.19.44-.5,4.44-.84,4.71-.4C96.55,34.88,94.76,35.12,94.07,35.19Zm-2,1.87c.11.37-1.31.82-2.24,1-1.49.32-2.59.25-2.33-.16C87.94,37.23,91.61,36.54,92.08,37.06Zm-4.34,2.38c.23.45-1.11,1.07-2,1.35-1.53.48-2.73.39-2.41-.18C83.8,39.73,87.15,38.85,87.74,39.44Zm-5.59,4.72c-1.55.65-2.86.53-2.5-.22.46-1,3.48-2.13,4.27-1.43C84.26,43,83,43.81,82.15,44.16Zm.63-3.06c.25.48-1,1.2-1.92,1.56-1.48.57-2.72.49-2.44-.14C78.8,41.64,82.08,40.39,82.78,41.1ZM77.5,46.48c-1.52.74-2.85.64-2.53-.2.4-1.07,3.35-2.42,4.19-1.66C79.53,45.17,78.41,46,77.5,46.48Zm2.31-5.26c-1.43.5-2.54.48-2.35,0,.36-.94,3.88-2.07,4.43-1.41C82.05,40.2,80.77,40.88,79.81,41.22Zm-1.9,1.85c.29.53-.89,1.36-1.82,1.78-1.45.65-2.68.6-2.44-.11C74,43.76,77.18,42.31,77.91,43.07Zm-3,.21c-1.47.62-2.63.58-2.3-.08.45-.93,3.69-2.31,4.28-1.59C77.13,42.1,75.89,42.88,75,43.28Zm-1.79,2.08c.32.58-.81,1.51-1.71,2-1.41.75-2.65.72-2.45-.06C69.28,46.21,72.4,44.55,73.17,45.36Zm-2.93.3c-1.43.71-2.58.69-2.29,0,.41-1,3.56-2.6,4.17-1.84C72.33,44.32,71.15,45.2,70.24,45.66ZM66,51.85c.28-1.27,3.07-3,4-2.1.45.64-.56,1.7-1.43,2.25C67.14,52.92,65.8,52.84,66,51.85Zm1.77,1.78c.33-1.31,2.94-2.87,3.94-2,.54.65-.42,1.75-1.26,2.32C69,54.91,67.51,54.76,67.79,53.63Zm2.62-4.71c.35-1.17,3.22-2.69,4.11-1.88.41.59-.66,1.56-1.55,2.06C71.49,49.93,70.15,49.84,70.41,48.92Zm5.72-.16c.49.61-.52,1.61-1.38,2.13-1.46.87-2.87.79-2.69-.16C72.29,49.52,75.12,47.93,76.13,48.76ZM74,52.45c.29-1.25,2.92-2.73,4-1.94.57.62-.36,1.67-1.21,2.21C75.26,53.67,73.73,53.52,74,52.45ZM76.5,48c.3-1.11,3.2-2.53,4.15-1.76.44.57-.61,1.48-1.5,1.94C77.66,48.93,76.27,48.84,76.5,48Zm1.81,1.6c.36-1.14,3-2.48,4-1.74.52.58-.47,1.53-1.33,2C79.49,50.72,78,50.56,78.31,49.57Zm2.76-4.07c.36-1,3.31-2.25,4.21-1.53.39.51-.7,1.32-1.61,1.73C82.15,46.39,80.79,46.29,81.07,45.5Zm1.64,1.59c.26-1,3.14-2.36,4.13-1.64.46.52-.57,1.37-1.45,1.81C83.91,48,82.51,47.91,82.71,47.09Zm1.88,1.5c.33-1.07,3-2.33,4-1.64.53.53-.43,1.43-1.28,1.89C85.8,49.67,84.3,49.53,84.59,48.59Zm5.93-.12c.59.54-.29,1.47-1.11,2-1.45.88-3,.76-2.78-.2S89.42,47.78,90.52,48.47Zm-1.65,3.27c.29-1.12,2.66-2.38,3.75-1.75.65.55-.16,1.52-.94,2C90.21,53,88.58,52.84,88.87,51.74Zm1.95-4.1c.3-1,2.91-2.17,3.9-1.56.55.51-.46,1.35-1.23,1.77C91.91,48.69,90.57,48.45,90.82,47.64Zm2.54-3.53c.32-.9,3.24-1.85,4.06-1.32.42.44-.7,1.13-1.5,1.47C94.46,44.86,93.12,44.79,93.36,44.11Zm1.71,1.24c.4-.93,3.05-1.86,3.88-1.35.48.45-.56,1.18-1.33,1.54C96,46.29,94.76,46.07,95.07,45.35Zm6.45,42.35a2.28,2.28,0,0,1,.89,3.19,2.11,2.11,0,0,1-3.93-.16A2.41,2.41,0,0,1,101.52,87.7ZM104,94.48a2.37,2.37,0,0,1,1,3.26,2.19,2.19,0,0,1-4.06-.11A2.43,2.43,0,0,1,104,94.48ZM103,92.71A2.4,2.4,0,0,1,106,89.6a2.32,2.32,0,0,1,1,3.2A2.11,2.11,0,0,1,103,92.71Zm14.08-43.1c-.18-1,1.22-2.34,2-2,.53.3.24,1.18-.14,1.7C118.3,50.31,117.25,50.35,117.12,49.61Zm2.16,1.69c.66.35.48,1.36.14,2-.61,1.08-1.8,1.3-2.09.39S118.23,50.93,119.28,51.3Zm-.76,7.85c.89.44.82,1.65.5,2.37-.62,1.36-2.13,1.53-2.56.29S117.23,58.72,118.52,59.15ZM117.2,72.69a2.17,2.17,0,0,1,.89,2.82c-.65,1.55-2.52,1.73-3.17.29S115.49,72.14,117.2,72.69Zm-1.83-25.16c-1,.89-2.06.87-2.06.19,0-.9,1.76-2.1,2.57-1.76C116.36,46.27,115.87,47.06,115.37,47.53Zm-1.81,23.7a2.06,2.06,0,0,1,.74,2.8c-.77,1.6-2.79,1.62-3.27,0S112,70.67,113.56,71.23Zm-2.75-22.09c-1.11.94-2.34.87-2.33.11,0-1,2-2.23,2.92-1.82C112,47.8,111.39,48.65,110.81,49.14Zm-1.91,38.8a2,2,0,0,1-3.8-.06A2.36,2.36,0,0,1,108,84.82,2.27,2.27,0,0,1,108.9,87.94Zm.2-9.41c-.5-1.56,1-3.51,2.65-2.92a2.13,2.13,0,0,1,.82,2.92C111.76,80.18,109.62,80.18,109.1,78.53Zm3.19,8a2.32,2.32,0,0,1,1.06,3.12,2,2,0,0,1-3.79,0C108.92,88,110.4,85.94,112.29,86.56Zm-.9-1.67c-.61-1.62.81-3.67,2.62-3.08a2.29,2.29,0,0,1,1,3A1.93,1.93,0,0,1,111.39,84.89Zm1.76-4.7c-.56-1.56.78-3.57,2.5-3a2.22,2.22,0,0,1,.95,2.93A1.81,1.81,0,0,1,113.15,80.19Zm5,3.19a2.35,2.35,0,0,1,1.13,3,1.9,1.9,0,0,1-3.59.15C115,84.94,116.36,82.84,118.17,83.38ZM117.34,82c-.82-1.58.41-3.85,2.24-3.3a2.32,2.32,0,0,1,1.08,2.94A1.78,1.78,0,0,1,117.34,82Zm1.45-4.67c-.77-1.51.37-3.72,2.08-3.21a2.25,2.25,0,0,1,1,2.83C121.34,78.5,119.51,78.73,118.79,77.29Zm1.34-4.52c-.69-1.42.38-3.58,1.93-3.12a2.21,2.21,0,0,1,1,2.71C122.52,73.91,120.82,74.15,120.13,72.77Zm.65-6c-.56,1.46-2.17,1.67-2.74.35s.56-3.35,2-2.9A2,2,0,0,1,120.78,66.77Zm-1.25-3.59c-.66-1.25.44-3.23,1.63-3l.13,0a1.93,1.93,0,0,1,.67,2.4C121.48,64,120.1,64.26,119.53,63.18Zm1.4-13.06c-.61,1.08-1.63,1.16-1.84.4-.26-1,1-2.45,1.79-2.17C121.43,48.65,121.23,49.59,120.93,50.12Zm-1.66-4.26c-.81.86-1.74.9-1.74.27s1.51-2,2.17-1.7C120.1,44.68,119.69,45.41,119.27,45.86Zm-1.47-.73c-.93.8-1.89.8-1.82.21.09-.75,1.77-1.82,2.43-1.56C118.78,44,118.28,44.72,117.8,45.13Zm-1.43-.75c-1.07.75-2,.72-1.89.15a3,3,0,0,1,2.68-1.42C117.54,43.38,116.79,44.09,116.37,44.38ZM115,43.62c-1.11.65-2.07.63-2,.15.13-.68,2.25-1.64,2.94-1.33C116.31,42.7,115.46,43.35,115,43.62Zm-.68,1.5c.45.31-.13,1.06-.69,1.49-1.09.85-2.2.8-2.12.13C111.6,45.88,113.51,44.77,114.31,45.12Zm-2.38.56c-1.2.79-2.32.7-2.17.06.19-.82,2.26-1.83,3-1.48C113.22,44.58,112.55,45.28,111.93,45.68ZM108.82,48c-1.21.88-2.45.78-2.37.05.1-1,2.24-2.11,3.13-1.69C110.1,46.78,109.45,47.59,108.82,48Zm-1.9-1.11c-1.32.82-2.56.69-2.41,0,.2-.92,2.48-2,3.34-1.54C108.34,45.74,107.6,46.51,106.92,46.93Zm1.73,49.43a2.38,2.38,0,0,1,1.14,3.25,2.19,2.19,0,0,1-4.07,0A2.43,2.43,0,0,1,108.65,96.36Zm-1-1.75a2.38,2.38,0,0,1,2.83-3.19,2.35,2.35,0,0,1,1.1,3.19A2.1,2.1,0,0,1,107.67,94.61Zm5.71,3.54a2.41,2.41,0,0,1,1.22,3.23,2.18,2.18,0,0,1-4,.07A2.41,2.41,0,0,1,113.38,98.15Zm-1-1.74a2.37,2.37,0,0,1,2.72-3.27,2.4,2.4,0,0,1,1.2,3.18A2.09,2.09,0,0,1,112.35,96.41Zm1.72-5c-.69-1.66.69-3.8,2.6-3.23a2.37,2.37,0,0,1,1.16,3.11A2,2,0,0,1,114.07,91.44Zm5.59,3.32a2.42,2.42,0,0,1,1.28,3.16,2.06,2.06,0,0,1-3.88.19C116.3,96.43,117.67,94.21,119.66,94.76Zm-1-1.68c-.75-1.65.55-3.84,2.45-3.32a2.43,2.43,0,0,1,1.28,3.1A2,2,0,0,1,118.61,93.08Zm1.44-5c-.72-1.61.49-3.76,2.31-3.26a2.41,2.41,0,0,1,1.24,3A1.86,1.86,0,0,1,120.05,88.12Zm5.43-17.27a2.32,2.32,0,0,1,1.11,2.72c-.41,1.59-2.07,1.89-2.82.5S123.93,70.44,125.48,70.85Zm0,20.36a2.44,2.44,0,0,1,1.36,3.07,1.93,1.93,0,0,1-3.67.33C122.37,93,123.58,90.73,125.47,91.21Zm-1-1.44c-1-1.6.12-4,2-3.54a2.48,2.48,0,0,1,1.35,3A1.82,1.82,0,0,1,124.51,89.77ZM126.59,80c-.9-1.5,0-3.83,1.68-3.4a2.46,2.46,0,0,1,1.29,2.83C129.18,81.09,127.43,81.43,126.59,80Zm.93-4.55c-1-1.43-.2-3.76,1.24-3.51l.15,0a2.44,2.44,0,0,1,1.24,2.73C129.86,76.24,128.38,76.66,127.52,75.45Zm1.74-8,.14,0a2.43,2.43,0,0,1,1.19,2.61c-.22,1.46-1.59,1.89-2.4.75C127.24,69.52,127.94,67.27,129.26,67.49Zm.34-4.28.13,0a2.43,2.43,0,0,1,1.14,2.48c-.16,1.34-1.27,1.82-2,.89C127.81,65.4,128.35,63,129.6,63.21Zm2.2,14.46.16,0a2.57,2.57,0,0,1,1.41,2.83c-.27,1.61-1.82,2.07-2.77.84C129.47,79.89,130.27,77.44,131.8,77.67Zm-.64-1.1c-1.08-1.42-.41-3.81,1-3.6a.66.66,0,0,0,.15,0,2.6,2.6,0,0,1,1.37,2.73C133.5,77.3,132.08,77.77,131.16,76.57Zm.52-4.51c-1.1-1.21-.72-3.63.57-3.64a1.26,1.26,0,0,1,.27,0,2.58,2.58,0,0,1,1.33,2.61C133.73,72.49,132.55,73,131.68,72.06Zm.38-8.72c-1.12-1.06-.85-3.4.11-3.45a.86.86,0,0,1,.22,0c.83.31,1.23,1.59,1.23,2.35C133.63,63.49,132.82,64.06,132.06,63.34Zm1.77,3.23c-.06,1.38-1.1,1.91-1.93,1-1.08-1.2-.71-3.65.52-3.49l.12,0A2.59,2.59,0,0,1,133.83,66.57ZM132,59.3c-1.1-.86-1-3.29-.17-3.37a.63.63,0,0,1,.19,0c.72.27,1.13,1.47,1.18,2.19C133.3,59.27,132.71,59.84,132,59.3Zm2-2.78.18,0c.71.25,1.21,1.46,1.32,2.21.17,1.14-.35,1.75-1,1.23C133.34,59.13,133.18,56.64,134,56.52Zm1.35,12.76a.77.77,0,0,1,.26,0,2.72,2.72,0,0,1,1.45,2.6c0,1.47-1.12,2-2,1.08C133.89,71.8,134.11,69.34,135.36,69.28Zm-.26-4.45a.9.9,0,0,1,.23,0,2.81,2.81,0,0,1,1.42,2.48c0,1.33-.82,1.94-1.67,1.19C133.92,67.5,133.93,64.91,135.1,64.83ZM137,61.16a.67.67,0,0,1,.2,0c.79.25,1.34,1.55,1.47,2.35.19,1.21-.35,1.88-1.11,1.35C136.36,64,136.15,61.31,137,61.16Zm1-3.7h.15c.67.2,1.32,1.43,1.55,2.2.32,1.1.06,1.79-.57,1.46C138,60.5,137.36,57.66,138,57.46Zm21.71,15.92c.55,1.26.62,2.27.14,2.11-.33-.1-.94-.83-1.53-2.2,0,0-.78-1.82-.31-2.07C158.54,71.18,159.35,72.49,159.75,73.38Zm-.49-2.59c.39-.08,1.16,1,1.67,2.09.58,1.24.73,2.27.29,2.15C160.62,74.86,158.65,71.24,159.26,70.79Zm-5.79-6.33c.64,1.09.84,2,.44,1.92-.75-.1-2.86-3.64-2.38-4h.05C152,62.38,153,63.59,153.47,64.46Zm-.8-2.32,0,0c.4,0,1.35,1.15,1.89,2,.68,1.09.94,2,.58,2C154.5,66,152.27,62.53,152.67,62.14Zm-.34-.49c-.62-.06-3.09-3.41-2.78-3.77l0,0c.37,0,1.39,1.12,2,1.94C152.3,60.81,152.66,61.68,152.33,61.65Zm-1.75-1.58c.7,1,1,1.88.63,1.83-.68-.1-3-3.48-2.64-3.8l0,0C149,58.09,150,59.24,150.58,60.07Zm-1.14.2c.67,1,.9,1.88.49,1.8-.73-.14-2.94-3.54-2.48-3.83h.05C147.94,58.26,148.91,59.43,149.44,60.27Zm-1.28.11c.62,1.06.78,1.87.35,1.77-.79-.19-2.84-3.59-2.31-3.84h.05C146.74,58.36,147.67,59.55,148.16,60.38Zm-1.42,0c.56,1.06.66,1.85.2,1.72-.84-.22-2.63-3.38-2.16-3.8l.1,0C145.4,58.38,146.29,59.58,146.74,60.41Zm.55,4.37c.47,1.18.34,2-.27,1.71-1-.48-2.31-3.57-1.64-3.94l.14,0C146.17,62.65,147,64,147.29,64.78Zm-.1-2.15h.06c.61.1,1.45,1.38,1.83,2.22.53,1.19.48,2-.11,1.77C147.94,66.15,146.46,62.84,147.19,62.63Zm1.6,0h.06c.56.07,1.44,1.34,1.85,2.18.59,1.18.62,2,.06,1.82C149.78,66.21,148.14,62.9,148.79,62.64Zm1.44-.07.06,0c.49,0,1.41,1.26,1.88,2.13.6,1.1.73,2,.29,1.89C151.65,66.42,149.67,62.87,150.23,62.57Zm2.5,4.52.07,0c.56,0,1.41,1.34,1.81,2.21.55,1.23.56,2.16,0,1.94C153.64,70.84,152.06,67.4,152.73,67.09Zm1.47-.19.05,0c.51,0,1.38,1.29,1.81,2.16.61,1.22.69,2.17.17,2C155.32,70.69,153.63,67.26,154.2,66.9Zm1.33-.32c.41,0,1.26,1.06,1.8,2.09.64,1.22.8,2.19.32,2C157,70.49,154.87,66.94,155.53,66.58Zm1,5,.06,0c.55,0,1.35,1.32,1.72,2.23.52,1.26.51,2.25,0,2.06C157.37,75.51,155.91,72,156.57,71.58Zm2.3-1.3c-.58-.17-2.79-3.67-2.25-4.09.38-.07,1.28,1.13,1.78,2C159.07,69.42,159.3,70.4,158.87,70.28Zm-1.75-5.06c-.51-.13-3-3.44-2.65-3.88.3-.09,1.27,1,1.86,1.89C157.11,64.35,157.49,65.32,157.12,65.22Zm-1.56-1.49c.74,1.14,1.06,2.09.65,2-.57-.17-3-3.53-2.54-3.92C154,61.71,155,62.87,155.56,63.73Zm-1.47-2.84c-.49,0-3.22-3.37-3-3.71.25-.06,1.23.91,2,1.82S154.35,60.87,154.09,60.89Zm-1.69-1.46c.77,1,1.19,1.89.89,1.88-.51,0-3.11-3.36-2.9-3.73l0,0C150.71,57.51,151.7,58.51,152.4,59.43Zm-1.71-2.68c-.4,0-3.4-3.22-3.24-3.5A7,7,0,0,1,149.51,55C150.38,55.92,150.94,56.75,150.69,56.75Zm-1.75-1.39c.85,1,1.34,1.77,1.07,1.76-.52,0-3.39-3.28-3.14-3.55C147.13,53.54,148.17,54.49,148.94,55.36Zm-.71.3c.81,1,1.26,1.78,1,1.75-.52-.06-3.24-3.27-3-3.57l0,0C146.47,53.81,147.49,54.78,148.23,55.66Zm-.84.24c.78,1,1.16,1.78.83,1.72-.61-.1-3.18-3.3-2.89-3.6h0C145.68,54,146.69,55,147.39,55.9Zm-1,.16c.73,1,1.06,1.78.69,1.71-.66-.14-3.07-3.36-2.72-3.63h0C144.79,54.16,145.77,55.18,146.43,56.06Zm-1.09.1c.68,1,.94,1.77.56,1.68-.7-.18-3-3.4-2.55-3.64h0C143.78,54.24,144.72,55.27,145.34,56.16Zm-1.21,0c.63,1,.82,1.75.41,1.64-.74-.21-2.81-3.44-2.34-3.63l.05,0C142.7,54.27,143.63,55.4,144.13,56.19Zm1.05,4.16c.51,1.06.53,1.83,0,1.68-.88-.26-2.51-3.42-1.95-3.79l.11,0C143.94,58.32,144.78,59.52,145.18,60.35Zm-1.69-.14c.45,1,.39,1.79-.12,1.63-.93-.3-2.37-3.45-1.73-3.78l.13,0C142.38,58.18,143.16,59.42,143.49,60.21ZM141.68,60c.4,1.12.22,1.84-.39,1.53-1.11-.59-2-3.47-1.39-3.71H140C140.68,58,141.39,59.2,141.68,60Zm-2.36,1.68a.37.37,0,0,1,.18,0c.76.22,1.38,1.52,1.57,2.33.27,1.23-.18,1.94-.92,1.43C138.92,64.58,138.5,61.85,139.32,61.66Zm1.06,4.39h.21c.85.24,1.44,1.6,1.58,2.44.2,1.29-.37,2-1.16,1.48C139.79,69.15,139.33,66.26,140.38,66.05Zm1.09-4h.17c.72.19,1.41,1.49,1.64,2.31.34,1.17,0,1.92-.62,1.58C141.56,65.37,140.62,62.32,141.47,62.05Zm1.35,4.45a.6.6,0,0,1,.19,0c.8.2,1.46,1.56,1.64,2.42.29,1.29-.19,2.06-1,1.55C142.49,69.69,141.85,66.76,142.82,66.5Zm.67-4.15a.44.44,0,0,1,.16,0c.68.16,1.42,1.46,1.71,2.29.41,1.17.19,1.95-.45,1.64C143.85,65.74,142.73,62.67,143.49,62.35Zm1.7,4.47h.09c.76.17,1.47,1.53,1.7,2.39.36,1.31,0,2.12-.79,1.63C145,70.08,144.2,66.92,145.19,66.82Zm1.28,4.69a.65.65,0,0,1,.2,0c.83.19,1.49,1.59,1.68,2.49.27,1.34-.23,2.17-1,1.67C146.11,74.88,145.47,71.82,146.47,71.51Zm.77-4.44a.41.41,0,0,1,.16,0c.72.14,1.47,1.48,1.74,2.35.4,1.23.16,2.07-.49,1.77C147.54,70.66,146.44,67.44,147.24,67.07Zm2,.09h.08c.67.1,1.46,1.44,1.78,2.31.46,1.23.3,2.11-.32,1.83C149.71,70.81,148.43,67.38,149.28,67.16Zm1.81,0,.07,0c.62.07,1.44,1.39,1.8,2.27.51,1.23.44,2.13-.15,1.89C151.76,70.88,150.34,67.44,151.09,67.18Zm2,4.71.08,0c.67.07,1.43,1.44,1.74,2.34.43,1.28.25,2.2-.36,2C153.47,75.72,152.26,72.16,153.12,71.89Zm1.82-.1.07,0c.61,0,1.4,1.38,1.74,2.28.47,1.27.38,2.23-.19,2C155.53,75.67,154.18,72.12,154.94,71.79Zm1.91,4.86.08,0c.66,0,1.38,1.42,1.66,2.35.41,1.4.17,2.4-.5,2C157,80.38,156,77,156.85,76.65Zm1.85-.26c.59,0,1.32,1.35,1.63,2.28.46,1.39.31,2.43-.31,2.08C159.12,80.26,157.8,76.7,158.7,76.39Zm1.55-.36c.52-.06,1.26,1.28,1.6,2.21.5,1.39.43,2.45-.14,2.15C160.88,79.94,159.48,76.41,160.25,76Zm1.33-.48c.41-.09,1.12,1,1.55,2.14.53,1.38.55,2.47,0,2.2C162.42,79.5,160.94,76,161.58,75.55Zm1.1-.6c.34-.12,1,1,1.49,2.07.56,1.37.66,2.48.21,2.25C163.74,79,162.21,75.45,162.68,75Zm.89,5.51c.48-.11,1.13,1.24,1.42,2.18.44,1.41.37,2.53-.14,2.27C164.11,84.52,162.88,80.93,163.57,80.46Zm1.19-.64c.39-.16,1,1.16,1.35,2.1.46,1.4.49,2.55,0,2.32C165.49,83.91,164.21,80.36,164.76,79.82Zm.57-1.29c-.54-.27-2.13-3.73-1.79-4.29.27-.16,1,.91,1.41,2C165.54,77.58,165.73,78.72,165.33,78.53ZM163.84,73c-.37,0-2.42-3.46-2.21-4.11.18-.17.91.82,1.47,1.86S164.1,73,163.84,73Zm-1.23-1.42c.62,1.2.92,2.28.6,2.23s-2.49-3.58-2.15-4.17C161.33,69.44,162.13,70.62,162.61,71.53Zm-.73.73c.62,1.23.83,2.28.45,2.19-.53-.12-2.54-3.69-2.06-4.2C160.59,70.13,161.35,71.2,161.88,72.26Zm-1.19-3.14c-.45-.09-2.74-3.46-2.45-4,.24-.12,1.06.87,1.68,1.88C160.64,68.15,161,69.18,160.69,69.12Zm-1.43-1.47c.7,1.17,1,2.19.62,2.1s-2.77-3.57-2.35-4C157.85,65.59,158.74,66.77,159.26,67.65Zm-1.42-3c-.42-.09-3-3.37-2.74-3.83.22-.11,1.14.87,1.82,1.82S158.16,64.72,157.84,64.65Zm-3.9-6.76c.88,1,1.47,2,1.19,1.9S152,56.68,152,56.22C152.2,56.11,153.17,57,153.94,57.89Zm-1.67-2.26,0,0a6.63,6.63,0,0,1,1.82,1.62c.73.79,1.44,1.75,1.33,1.9A13.71,13.71,0,0,1,152.27,55.63Zm1.32,2.85c.82,1,1.34,1.87,1.13,1.9-.42.07-3.22-3.27-3.07-3.65C151.86,56.65,152.84,57.59,153.59,58.48ZM148.42,52c.22-.06,1.45,1,2,1.52.78.75,1.56,1.63,1.46,1.76A16.69,16.69,0,0,1,148.42,52Zm1.83,2.09a5.68,5.68,0,0,1,1.39,1.75c-.22.15-3.45-3-3.42-3.35C148.37,52.36,149.41,53.22,150.25,54.05Zm-.3.5c.71.73,1.39,1.57,1.31,1.75-.29.12-3.46-3.11-3.36-3.42A7,7,0,0,1,150,54.55ZM146.38,50a7.07,7.07,0,0,1,1.6,1.59c-.4.1-3.71-3-3.72-3A9.29,9.29,0,0,1,146.38,50Zm-2.07-1.88a9.64,9.64,0,0,1,2.07,1.36A8.27,8.27,0,0,1,148,51C147.73,51.2,144.32,48.16,144.31,48.11Zm1.95,2.34c.75.64,1.55,1.42,1.53,1.61a17.94,17.94,0,0,1-3.68-3.12A10,10,0,0,1,146.26,50.45Zm-.24.41c.74.66,1.5,1.45,1.45,1.62a16.7,16.7,0,0,1-3.62-3.2A9.11,9.11,0,0,1,146,50.86Zm-.36.36c.73.67,1.46,1.47,1.37,1.63a15.85,15.85,0,0,1-3.54-3.27A8.54,8.54,0,0,1,145.66,51.22Zm-.47.3c1,1,1.47,1.65,1.24,1.63-.41,0-3.56-3.11-3.4-3.32A8.56,8.56,0,0,1,145.19,51.52Zm-.58.25c.95,1,1.39,1.66,1.14,1.62A12.92,12.92,0,0,1,142.46,50h0A8.26,8.26,0,0,1,144.61,51.77Zm-.68.19c.88.95,1.23,1.58,1.06,1.62-.37.08-3.25-3-3.18-3.39h0A8,8,0,0,1,143.93,52Zm-.79.14c.83.95,1.14,1.58.94,1.6-.42,0-3.16-3-3-3.41l0,0A7.77,7.77,0,0,1,143.14,52.1Zm-.33,4c.58,1,.7,1.73.26,1.6-.78-.24-2.66-3.46-2.12-3.62H141C141.48,54.22,142.36,55.36,142.81,56.14ZM141.38,56c.51,1,.56,1.7.1,1.55-.94-.32-2.33-3.3-1.93-3.58l.1,0C140.16,54.1,141,55.24,141.38,56Zm-.65-2.34c-.57,0-2.7-3-2.43-3.39l.07,0a6.24,6.24,0,0,1,1.82,1.9C140.77,53,141,53.7,140.73,53.68Zm-.9,2.14c.44,1,.41,1.67-.06,1.5-1-.35-2.14-3.3-1.68-3.54l.12,0C138.74,53.91,139.49,55.05,139.83,55.82Zm-1.64-.27c.36,1,.26,1.63-.24,1.44-.87-.34-2-3.25-1.41-3.49h.13C137.22,53.66,137.9,54.79,138.19,55.55Zm-.51,3.7c.24,1.08-.11,1.74-.75,1.38-1.16-.66-1.61-3.43-.86-3.59h.17C136.94,57.26,137.51,58.49,137.68,59.25Zm-1.45,3.69c.11,1.28-.62,1.88-1.42,1.17-1.16-1-1.09-3.45-.16-3.54l.21,0C135.68,60.87,136.16,62.16,136.23,62.94Zm-.76,15.74.16,0a2.65,2.65,0,0,1,1.49,2.8c-.18,1.62-1.66,2.15-2.64.94C133.31,81,134,78.49,135.47,78.68Zm-.68-1.09c-1.13-1.4-.61-3.85.78-3.69l.15,0a2.7,2.7,0,0,1,1.47,2.71C137.09,78.23,135.74,78.76,134.79,77.59Zm3-12.09a.89.89,0,0,1,.23,0c.9.28,1.42,1.61,1.5,2.47.13,1.35-.62,2-1.47,1.29C136.9,68.28,136.73,65.64,137.8,65.5Zm.57,4.52a1.1,1.1,0,0,1,.25,0c1,.3,1.47,1.69,1.51,2.58.06,1.39-.82,2.07-1.71,1.31C137.19,72.88,137.15,70.15,138.37,70Zm2.16,7.39c0,1.54-1.12,2.17-2.08,1.2-1.26-1.27-1-4,.41-3.9l.13,0C140.06,75.06,140.53,76.49,140.53,77.41ZM139,79.55l.15,0c1.15.35,1.59,1.83,1.54,2.77-.1,1.65-1.47,2.24-2.44,1.07C137.09,82,137.59,79.43,139,79.55Zm2.21-8.91a.91.91,0,0,1,.23,0c.94.26,1.49,1.65,1.58,2.55.14,1.41-.64,2.14-1.52,1.41C140.31,73.6,140.1,70.82,141.23,70.64Zm.74,4.74.14,0c1,.28,1.53,1.71,1.58,2.64.07,1.56-.93,2.25-1.89,1.32C140.57,78.12,140.68,75.34,142,75.38Zm2-4.24a.79.79,0,0,1,.22,0c.89.23,1.49,1.61,1.63,2.52.21,1.34-.39,2.12-1.2,1.59C143.31,74.42,142.83,71.39,143.93,71.14Zm.87,4.79a1,1,0,0,1,.25,0c1,.23,1.52,1.66,1.61,2.6.15,1.47-.65,2.25-1.55,1.53C143.86,79.06,143.65,76.16,144.8,75.93Zm.77,4.92h.13c1,.26,1.56,1.72,1.6,2.68.06,1.61-1,2.37-1.91,1.44C144.14,83.75,144.26,80.86,145.57,80.85ZM146,85.9l.14,0c1.1.26,1.58,1.76,1.57,2.74,0,1.63-1.16,2.4-2.12,1.44C144.29,88.84,144.57,85.9,146,85.9Zm2.58-4.61h.13c1,.21,1.52,1.67,1.6,2.63.13,1.51-.68,2.36-1.57,1.65C147.39,84.53,147.28,81.36,148.56,81.29Zm-.47-.78c-1.29-1-1.58-4.11-.4-4.19h.12c.91.2,1.5,1.62,1.64,2.57C149.66,80.36,149,81.2,148.09,80.51Zm.83-8.77h.1c.78.14,1.48,1.54,1.71,2.44.34,1.35-.07,2.22-.83,1.75C148.68,75.18,147.92,71.89,148.92,71.74Zm2.19.13h.09c.73.1,1.46,1.48,1.73,2.38.4,1.37.08,2.27-.64,1.83C151.12,75.39,150.2,72.08,151.11,71.87Zm1.55,4.87h.1c.8.11,1.46,1.5,1.68,2.46.31,1.39-.11,2.33-.86,1.88C152.36,80.34,151.64,76.94,152.66,76.74Zm1.28,5h.1c.85.11,1.45,1.54,1.61,2.52.25,1.53-.36,2.47-1.18,1.84C153.25,85.15,152.86,81.94,153.94,81.74Zm.92-5H155c.72.07,1.42,1.48,1.67,2.41.37,1.39,0,2.36-.68,1.95C154.79,80.43,153.94,77,154.86,76.75Zm1.45,5h.1c.77.07,1.39,1.48,1.59,2.46.28,1.43-.16,2.42-.88,2C155.94,85.52,155.3,82,156.31,81.75Zm1.25,5.1c.83.07,1.38,1.51,1.51,2.51.2,1.55-.41,2.56-1.19,2C156.81,90.49,156.32,87,157.56,86.85Zm.9-5.21.09,0c.69,0,1.34,1.44,1.56,2.4.33,1.42,0,2.45-.69,2.07C158.32,85.47,157.57,82,158.46,81.64Zm2-.28c.63,0,1.28,1.38,1.53,2.33.36,1.42.11,2.49-.51,2.14C160.57,85.33,159.48,81.69,160.46,81.36Zm1.68-.39c.55-.06,1.2,1.31,1.48,2.26.4,1.42.24,2.51-.32,2.21C162.47,85,161.3,81.38,162.14,81ZM163.69,86c.58-.07,1.15,1.3,1.36,2.3.31,1.44.06,2.56-.5,2.26C163.72,90.14,162.78,86.45,163.69,86Zm1.54-.55c.49-.12,1.06,1.25,1.28,2.22.34,1.43.19,2.59-.31,2.33C165.46,89.64,164.47,86,165.23,85.48Zm1.27-.69c.4-.16,1,1.18,1.2,2.14.37,1.43.3,2.61-.13,2.39C166.93,89,165.9,85.37,166.5,84.79Zm.46-3.72c.48,1.39.59,2.56.21,2.38-.55-.27-1.88-3.79-1.48-4.41C166,78.87,166.57,80,167,81.07Zm-1.2-6.77c.6,1.29,1,2.49.7,2.37a11.66,11.66,0,0,1-1.92-4.19C164.65,72.25,165.26,73.24,165.76,74.3Zm-.27,1c.59,1.31.87,2.49.54,2.34S164,74,164.17,73.42C164.37,73.21,165.07,74.39,165.49,75.32Zm-2.14-5.57c.69,1.23,1.12,2.4.84,2.28A12.39,12.39,0,0,1,162,68C162.08,67.78,162.78,68.75,163.35,69.75Zm-4.19-7c.13-.08.85.8,1.44,1.66s1.28,2.08,1.14,2.18a15.09,15.09,0,0,1-2.59-3.81Zm-.09.86c.2,0,.93.85,1.53,1.75.73,1.11,1.23,2.16,1,2.17s-2.59-3.27-2.56-3.89Zm1.3,2.61c.73,1.13,1.16,2.17.9,2.14s-2.67-3.39-2.52-3.95C158.93,64.27,159.73,65.24,160.37,66.24Zm-4.46-7.46v0c.16-.06,1,.78,1.61,1.6a6.6,6.6,0,0,1,1.29,2C158.58,62.5,156,59.3,155.91,58.78Zm2.8,4.45c-.33.06-2.89-3.21-2.88-3.69v0c.21,0,1,.86,1.68,1.69S158.81,63.06,158.71,63.23Zm-1.39-3.81a9.18,9.18,0,0,1,1.38,2h0a20.94,20.94,0,0,1-2.86-3.52v0C156,57.87,157,59,157.32,59.42Zm0,2.54c.79,1.06,1.31,2.07,1,2s-2.92-3.26-2.8-3.77C155.72,60.09,156.61,61,157.32,62Zm-1.79-3.58A15.22,15.22,0,0,1,152.35,55v0a6.47,6.47,0,0,1,1.76,1.53A6.49,6.49,0,0,1,155.53,58.38Zm-3.27-4.13v0a7.77,7.77,0,0,1,1.67,1.45,8.29,8.29,0,0,1,1.51,1.89A17.33,17.33,0,0,1,152.26,54.25Zm1.32.54a10.17,10.17,0,0,1,1.56,1.87h0A25.75,25.75,0,0,1,152,53.46v0A7.56,7.56,0,0,1,153.58,54.79Zm-5.1-3.38,0,0a9.48,9.48,0,0,1,1.89,1.46c.79.73,1.59,1.6,1.53,1.75A18.64,18.64,0,0,1,148.48,51.41Zm-.08-.6,0,0a9.46,9.46,0,0,1,1.83,1.38,7.73,7.73,0,0,1,1.6,1.73A20.93,20.93,0,0,1,148.4,50.81Zm3.2,2.31a22.76,22.76,0,0,1-3.42-3v0a8.06,8.06,0,0,1,1.76,1.28A9,9,0,0,1,151.6,53.12Zm-2.13-2.52a11.48,11.48,0,0,1,1.71,1.68h0a31.35,31.35,0,0,1-3.34-2.85v0A7.41,7.41,0,0,1,149.47,50.6ZM148,50.45l0,0a25.42,25.42,0,0,1-3.7-2.85h0a11.36,11.36,0,0,1,2,1.29A9,9,0,0,1,148,50.45Zm-.21-.62a25.71,25.71,0,0,1-3.68-2.72l0,0A10.21,10.21,0,0,1,146,48.3,8.34,8.34,0,0,1,147.75,49.83Zm-4-3.31a15.45,15.45,0,0,1,3.62,2.61,25.19,25.19,0,0,1-3.62-2.59Zm-1.73.24a7.89,7.89,0,0,1,1.73,1.44c-.35,0-4-2.75-4-2.78A11.81,11.81,0,0,1,142.06,46.76Zm-.09.36a8.46,8.46,0,0,1,1.67,1.43v0a28.57,28.57,0,0,1-3.93-2.87A12.05,12.05,0,0,1,142,47.12Zm-.18.31a8.31,8.31,0,0,1,1.61,1.46l0,0a28.14,28.14,0,0,1-3.86-3A12.48,12.48,0,0,1,141.79,47.43Zm-.28.28a7.56,7.56,0,0,1,1.54,1.47l0,0a21.87,21.87,0,0,1-3.77-3A12,12,0,0,1,141.51,47.71Zm-2.6-1.35a11.48,11.48,0,0,1,2.25,1.58,6.58,6.58,0,0,1,1.45,1.48c-.34.15-3.69-3-3.7-3.05Zm-.4.14a11,11,0,0,1,2.2,1.63,6.19,6.19,0,0,1,1.37,1.48c-.28.27-3.57-3-3.58-3.1Zm-1.62.22a9.3,9.3,0,0,1,2,1.72c.82.87,1.19,1.47,1,1.48a12.49,12.49,0,0,1-3-3.19Zm-.67,0a9,9,0,0,1,1.93,1.75c.78.9,1.07,1.45.88,1.45-.37,0-2.95-2.89-2.83-3.19Zm-1.32,6.43H135c.59.2,1.19,1.34,1.4,2.06.31,1,.07,1.66-.5,1.33C134.92,55.94,134.3,53.31,134.9,53.14Zm-1.73-.43a.43.43,0,0,1,.16,0c.61.22,1.12,1.36,1.27,2.06.22,1-.11,1.6-.69,1.25C132.88,55.41,132.51,52.85,133.17,52.71Zm-1.78-.49a.43.43,0,0,1,.16,0c.61.24,1,1.36,1.12,2,.14,1.13-.4,1.56-.94,1.11C130.77,54.6,130.68,52.32,131.39,52.22Zm-1.79-.54a.44.44,0,0,1,.16,0c.61.25.92,1.34.94,2,0,1.1-.56,1.49-1.07,1C128.71,54,128.85,51.75,129.6,51.68Zm.12,3.6a.63.63,0,0,1,.19,0c.72.29,1,1.47,1,2.18,0,1.14-.78,1.66-1.43,1C128.55,57.48,128.87,55.32,129.72,55.28Zm.07,3.86.11,0A2.42,2.42,0,0,1,131,61.5c-.09,1.29-1.06,1.77-1.78.89C128.29,61.29,128.72,59,129.79,59.14Zm-2.13-4.56.1,0c.71.3.93,1.46.85,2.14-.15,1.26-1.09,1.55-1.64.81C126.22,56.54,126.72,54.43,127.66,54.58Zm-.36,3.74.11,0c.82.35,1,1.58.91,2.31-.19,1.25-1.22,1.69-1.9.81C125.59,60.36,126.2,58.13,127.3,58.32Zm-.52,4,.13,0a2.23,2.23,0,0,1,1,2.46c-.26,1.38-1.54,1.76-2.24.67C124.85,64.2,125.61,62.07,126.78,62.28Zm-.66,4.18.15,0a2.28,2.28,0,0,1,1,2.6c-.33,1.46-1.73,1.84-2.49.66C123.93,68.39,124.79,66.2,126.12,66.46ZM124,68c-.46,1.5-2,1.76-2.67.43s.34-3.42,1.77-3A2.15,2.15,0,0,1,124,68Zm-1.26-25.11c.29.19,0,.87-.34,1.28-.6.77-1.32.91-1.39.42C121,43.92,122.23,42.68,122.78,42.86Zm-1-.46c.3.2-.24.9-.53,1.2-.73.72-1.49.81-1.49.35C119.78,43.34,121.25,42.2,121.81,42.4Zm-1-.48c.28.2-.37.85-.71,1.12-.85.66-1.64.72-1.59.29C118.64,42.68,120.36,41.73,120.86,41.92Zm-.92-.49c.27.2-.49.79-.89,1-1,.6-1.79.63-1.68.21C117.53,42.07,119.45,41.23,119.94,41.43Zm-.88-.49c.25.19-.62.72-1.07.94-1.08.54-1.92.54-1.75.15A3.88,3.88,0,0,1,119.06,40.94Zm-.84-.51c.24.21-.85.71-1.24.86-1.16.46-2,.45-1.86.14C115.3,40.89,117.72,40.21,118.22,40.43Zm-.8-.51c.21.21-1,.64-1.41.78-1.27.39-2.08.36-1.93.06C114.34,40.24,116.91,39.68,117.42,39.92Zm-.75-.51c.19.2-1.11.57-1.57.68-1.36.33-2.19.27-2,0C113.45,39.6,116.17,39.17,116.67,39.41Zm-1.86,2.34c.33.27-.63.86-1.14,1.1-1.23.59-2.19.55-2,.08C111.85,42.28,114.14,41.43,114.81,41.75Zm-3.46,1.65c.4.31-.37,1-1,1.34-1.3.71-2.43.61-2.21,0A3.49,3.49,0,0,1,111.35,43.4Zm-2.67-1.75c.35.32-.65.89-1.37,1.17-1.43.57-2.51.46-2.3,0C105.31,42.06,108,41.25,108.68,41.65Zm-1.2-.87c.31.31-.77.83-1.53,1.08-1.51.5-2.59.37-2.32-.1C104,41.08,106.79,40.37,107.48,40.78Zm-1.1-.87c.27.31-.9.77-1.7,1-1.39.38-2.55.33-2.36-.1C102.62,40.16,105.68,39.48,106.38,39.91Zm-1-.86c.23.3-1,.71-1.84.9-1.47.34-2.62.27-2.36-.14C101.55,39.19,104.73,38.61,105.37,39.05Zm-2.88,0c-1.51.28-2.66.18-2.35-.21.47-.58,3.74-1,4.34-.61C104.69,38.52,103.07,38.91,102.49,39Zm1.21-1.66c.16.32-1.52.65-2.12.73-1.48.22-2.56.13-2.37-.2C99.54,37.35,103.15,36.92,103.7,37.36Zm-.66-.8c.12.29-1.62.56-2.24.63-1.51.17-2.59.06-2.33-.24C98.88,36.43,102.56,36.12,103,36.56ZM98.3,31.68a13.79,13.79,0,0,1,4.61.25v0a20,20,0,0,1-2.78,0,5.8,5.8,0,0,1-1.84-.22Zm4.16.64v0a15.92,15.92,0,0,1-2.76,0,5.91,5.91,0,0,1-2-.24C97.87,31.85,102.18,32,102.46,32.32Zm-.33.43v0a14.2,14.2,0,0,1-2.73.11,6.5,6.5,0,0,1-2-.23C97.39,32.32,101.75,32.41,102.13,32.75Zm-4.93-.66v0a15.11,15.11,0,0,1-2.77.27,5.42,5.42,0,0,1-1.9-.12C92.69,31.93,97,31.77,97.2,32.09Zm-.39.52v0a12.61,12.61,0,0,1-2.74.34,5.75,5.75,0,0,1-2-.11C92.14,32.47,96.46,32.24,96.81,32.61Zm-.24.61c-.18.27-2.65.41-2.67.42-1.37.08-2.22,0-2.06-.17S96.48,32.72,96.57,33.22Zm-.07.65c-.1.26-1.91.45-2.61.5-1.38.11-2.26.05-2.14-.15S96.27,33.33,96.5,33.87ZM89.21,37c-1.41.27-2.43.22-2.27-.11.31-.64,4.25-1.33,4.64-.81C91.62,36.41,90.15,36.81,89.21,37Zm2.32-4.14v0a10.63,10.63,0,0,1-2.72.56c-.54.06-1.81.18-1.93,0C87,33,91.22,32.46,91.53,32.85Zm-.28.71a8.26,8.26,0,0,1-2.65.64c-1.35.18-2.18.15-2-.06S91.18,33,91.25,33.56Zm-2.42.72c.92-.13,2.25-.21,2.34,0-.1.3-1.89.63-2.57.73-1.35.19-2.23.17-2.11-.07A4.91,4.91,0,0,1,88.83,34.28Zm-2.46,2.84c.07.38-1.37.9-2.29,1.14-1.49.38-2.53.34-2.23-.1C82.35,37.42,86,36.58,86.37,37.12Zm-2.76,0c-1.39.32-2.35.31-2.15,0,.4-.69,4.29-1.55,4.57-1C86,36.43,84.54,36.91,83.61,37.13ZM86,34.24v0c-.17.32-2,.73-2.62.87-1.31.26-2.14.27-2,0C81.8,34.64,85.83,33.82,86,34.24Zm-.1.85v0c-.08.32-1.59.75-2.52.95-1.32.29-2.2.3-2.08,0C81.57,35.53,85.6,34.63,85.9,35.09Zm-4.64,3.42c.08.44-1.32,1.06-2.23,1.36-1.43.47-2.49.45-2.21,0C77.31,39,80.84,37.9,81.26,38.51Zm-2.74.11c-1.36.42-2.32.44-2.12.05.38-.77,4.19-1.88,4.48-1.31C80.88,37.76,79.43,38.35,78.52,38.62Zm2.33-3.31v0a7.13,7.13,0,0,1-2.57,1.08c-1.29.35-2.09.41-1.91.14C76.75,36,80.68,34.88,80.85,35.31Zm-.12.95v.05c-.08.35-1.56.91-2.47,1.17-1.27.36-2.15.42-2,.12C76.49,37,80.44,35.78,80.73,36.26Zm-4.48,4c.1.46-1.19,1.2-2.14,1.58-1.4.55-2.44.57-2.19,0C72.29,41,75.78,39.54,76.25,40.24ZM75.84,39c0,.44-1.4,1.13-2.28,1.47-1.31.5-2.27.55-2.09.13C71.83,39.73,75.54,38.37,75.84,39Zm-.16-1.2v0c-.08.4-1.52,1.06-2.4,1.38-1.25.45-2.1.54-2,.22C71.55,38.71,75.39,37.27,75.68,37.79Zm-4.31,4.52c.12.5-1.13,1.34-2,1.77-1.36.65-2.39.7-2.16.1C67.52,43.25,70.87,41.52,71.37,42.31ZM70.9,40.9l0,.05c0,.45-1.28,1.26-2.2,1.68-1.27.58-2.2.67-2,.2C67,42,70.51,40.35,70.9,40.9Zm-.14-1.25v.05c-.08.44-1.47,1.21-2.33,1.59-1.18.52-2,.65-1.92.3C66.76,40.82,70.48,39.12,70.76,39.65Zm-4.11,5c.13.54-1.06,1.48-1.94,2-1.32.73-2.33.81-2.12.15C62.91,45.82,66.13,43.86,66.65,44.69Zm-.5-1.51,0,.06c0,.49-1.21,1.39-2.1,1.87-1.23.67-2.13.8-2,.29C62.38,44.46,65.75,42.61,66.15,43.18ZM62.1,47.39c.14.58-1,1.61-1.84,2.16-1.26.82-2.25.93-2.06.22C58.48,48.7,61.56,46.53,62.1,47.39Zm-.54-1.6,0,.06c0,.53-1.14,1.53-2,2.06-1.18.75-2.05.92-1.91.37C58,47.22,61.15,45.17,61.56,45.79Zm-3.87,4.53.05.07c.16.61-.91,1.74-1.72,2.34-1.18.88-2.16,1-2,.29C54.27,51.81,57.16,49.69,57.69,50.32Zm-.51-1.61,0,.06c0,.56-1.07,1.65-1.88,2.25-1.13.82-2,1-1.84.44C53.72,50.34,56.77,48.07,57.18,48.71Zm-3.63,4.9,0,.07c.18.64-.83,1.86-1.59,2.51-1,.9-2,1.12-2,.48C50.09,55.41,53,52.89,53.55,53.61Zm-3.92,3.58,0,.07c.19.67-.73,2-1.46,2.67-1,1-1.84,1.23-1.85.55C46.35,59.17,49,56.46,49.63,57.19ZM46.94,63l.06.08c.34.75-.46,2.15-1.13,2.92-1,1.11-1.93,1.32-2,.43C43.84,64.88,46.2,62.22,46.94,63Zm-2,6.24a.61.61,0,0,1,.17.15c.49.81-.16,2.32-.78,3.14-.9,1.19-1.92,1.4-2.1.43C41.9,71.4,43.9,68.65,44.89,69.22ZM41.26,94.3c-.57-1.87.8-4.45,2.06-3.89a1.17,1.17,0,0,1,.26.17c.87.9.62,2.62.16,3.55C43,95.65,41.69,95.74,41.26,94.3Zm1.85,3.81a1,1,0,0,1,1-.16,1.17,1.17,0,0,1,.28.17,2.09,2.09,0,0,1,.27.39C44.16,98.36,43.63,98.25,43.11,98.11Zm3.67-1.47c-.76,1.51-2.16,1.59-2.68.14-.68-1.88.72-4.46,2.1-3.88a1.05,1.05,0,0,1,.29.17C47.46,94,47.25,95.7,46.78,96.64Zm-.61-5.09c-.46-2,1.23-4.31,2.55-3.51l.14.1c1,.9.67,2.58.15,3.49C48.11,93.19,46.55,93.14,46.17,91.55Zm6.16,2.6c-.9,1.56-2.56,1.51-3-.09-.57-2,1.15-4.32,2.58-3.52l.16.1C53.1,91.55,52.85,93.24,52.33,94.15Zm3.58,2.52c-1,1.69-2.81,1.51-3.25-.3s1.19-4.23,2.85-3.21A2.83,2.83,0,0,1,55.91,96.67Zm3.84,2.53c-1,1.69-2.92,1.52-3.42-.3-.56-2,1.14-4.1,2.72-3.32a.81.81,0,0,1,.18.1A2.77,2.77,0,0,1,59.75,99.2Zm.68-26c-1.21,1.36-2.87,1.25-3-.19-.17-1.69,2-3.86,3.42-2.87C61.7,70.93,61.12,72.39,60.43,73.16Zm2-12.42c-1.38,1.16-2.87,1-2.7-.25.19-1.49,2.62-3.33,3.7-2.42C64,58.81,63.17,60.07,62.39,60.74Zm1.26-3.81c.26-1.4,2.78-3.1,3.83-2.23.57.7-.32,1.88-1.14,2.5C64.91,58.28,63.42,58.13,63.65,56.93Zm4.95,2.32c-1.4,1.11-3,1-2.84-.26.15-1.43,2.64-3.19,3.81-2.31C70.23,57.4,69.4,58.61,68.6,59.25Zm1.2-3.66c.22-1.34,2.79-3,3.91-2.13.61.67-.27,1.8-1.1,2.39C71.16,56.89,69.61,56.74,69.8,55.59ZM75,57.82c-1.42,1.08-3,.94-2.94-.25.12-1.37,2.64-3,3.86-2.21C76.62,56,75.8,57.2,75,57.82Zm4-3.26c-1.46,1-3,.87-2.88-.25.19-1.27,2.76-2.82,3.93-2C80.69,52.92,79.82,54,79,54.56Zm1.3-3.24c.26-1.18,2.88-2.59,4-1.85.58.59-.33,1.58-1.17,2.1C81.62,52.48,80.08,52.35,80.3,51.32Zm2.21,1.77c.16-1.21,2.7-2.7,3.88-2,.65.59-.19,1.62-1,2.16C84,54.26,82.37,54.14,82.51,53.09Zm2.41,1.63c.23-1.21,2.59-2.61,3.77-1.92.71.6-.06,1.67-.83,2.23C86.41,56.1,84.71,55.92,84.92,54.72Zm5.57,2.05c-1.39,1.11-3.12,1-3-.27s2.41-2.71,3.65-2C91.92,55.07,91.23,56.17,90.49,56.77Zm3.62-3.14c-1.38,1-3.06.86-2.86-.25s2.47-2.49,3.63-1.86C95.58,52.07,94.84,53.08,94.11,53.63Zm-1.27-4.49c.21-1,2.72-2.29,3.77-1.68.57.49-.27,1.37-1.06,1.83C94.15,50.13,92.66,50.05,92.84,49.14Zm3.41,46.45a2.45,2.45,0,0,1,3.09-3.09,2.35,2.35,0,0,1,1,3.27A2.18,2.18,0,0,1,96.25,95.59Zm2.52,6.81a2.46,2.46,0,0,1,3.15-3,2.4,2.4,0,0,1,1.08,3.32A2.25,2.25,0,0,1,98.77,102.4Zm7.19,7.36a2.32,2.32,0,0,1-4.33-.28,2.47,2.47,0,0,1,3.14-3A2.42,2.42,0,0,1,106,109.76Zm2-5.09a2.26,2.26,0,0,1-4.25-.26,2.45,2.45,0,0,1,3.08-3A2.42,2.42,0,0,1,107.91,104.67Zm4.94,1.82a2.26,2.26,0,0,1-4.25-.17,2.45,2.45,0,0,1,3-3.11A2.42,2.42,0,0,1,112.85,106.49Zm5,1.69a2.25,2.25,0,0,1-4.15.15,2.46,2.46,0,0,1,2.85-3.39A2.41,2.41,0,0,1,117.81,108.18Zm1.62-5.15a2.16,2.16,0,0,1-4,.17,2.3,2.3,0,1,1,4-.17Zm4.84,1.53a2.14,2.14,0,0,1-4,.27c-.8-1.69.58-4,2.62-3.45A2.44,2.44,0,0,1,124.27,104.56Zm-2.48-4.86c-.81-1.67.49-3.93,2.46-3.43a2.45,2.45,0,0,1,1.38,3.13A2,2,0,0,1,121.79,99.7Zm7.29,6.25a2.4,2.4,0,0,1-.64,1l-2,.49a2.07,2.07,0,0,1-1.27-1.09c-.84-1.67.47-4,2.5-3.52A2.42,2.42,0,0,1,129.08,106Zm1.21-5.2a2,2,0,0,1-3.78.41c-.84-1.66.37-4,2.33-3.51A2.48,2.48,0,0,1,130.29,100.75ZM127.71,96c-.83-1.62.28-3.9,2.16-3.48a2.52,2.52,0,0,1,1.45,3A1.9,1.9,0,0,1,127.71,96Zm7.16,5.94a1.94,1.94,0,0,1-3.67.53c-.87-1.63.25-4,2.19-3.59A2.48,2.48,0,0,1,134.87,102Zm-2.53-4.48c-1.06-1.59-.08-4.13,1.89-3.75a2.54,2.54,0,0,1,1.5,3A1.82,1.82,0,0,1,132.34,97.47Zm6.92,5.49c-.44,1.84-2.38,2.34-3.36.87s-.07-4.19,1.89-3.86A2.47,2.47,0,0,1,139.26,103Zm.68-5.25c-.35,1.83-2.19,2.34-3.18.88s-.19-4.14,1.69-3.84A2.55,2.55,0,0,1,139.94,97.71ZM138,88.44c-1.2-1.46-.56-4.07,1-3.93l.17,0a2.69,2.69,0,0,1,1.53,2.85C140.49,89.05,139,89.65,138,88.44Zm5.92,10.07c-.28,1.85-2,2.44-3,1s-.29-4.14,1.49-3.91C143.73,96,144.08,97.51,143.93,98.51Zm.3-5.24c-.18,1.71-1.67,2.38-2.66,1.19-1.2-1.45-.56-4.15,1-4.06l.16,0C143.93,90.75,144.33,92.29,144.23,93.27Zm-2.4-4c-1.19-1.42-.69-4.07.74-4l.16,0c1.16.32,1.6,1.83,1.55,2.8C144.19,89.79,142.81,90.46,141.83,89.29Zm5.87,9.84c-.21,1.77-1.67,2.5-2.65,1.31-1.12-1.37-.58-4.3,1.18-4.15C147.44,96.58,147.81,98.12,147.7,99.13Zm.12-5.27c-.12,1.73-1.49,2.47-2.45,1.31-1.13-1.34-.74-4.25.93-4.1C147.45,91.34,147.88,92.87,147.82,93.86Zm1.35-7.49h.14c1,.22,1.54,1.71,1.56,2.69,0,1.65-1,2.47-1.91,1.56C147.72,89.41,147.87,86.43,149.17,86.37Zm2,7.92c0,1.66-1.17,2.49-2.11,1.57-1.26-1.24-.93-4.26.46-4.31h.15C150.76,91.78,151.21,93.29,151.18,94.29Zm0,5.28c-.15,1.79-1.49,2.59-2.43,1.44-1.09-1.32-.65-4.28,1-4.21C150.91,97,151.3,98.56,151.22,99.57ZM151,80.9c-1.28-.78-1.85-4.16-.73-4.31h.11c.85.15,1.48,1.56,1.66,2.52C152.3,80.49,151.79,81.39,151,80.9Zm1.4,15.33c-1.2-1.18-1-4.23.29-4.35h.14c1,.17,1.47,1.66,1.48,2.67C154.32,96.22,153.3,97.11,152.4,96.23Zm2.52-9.38H155c.9.12,1.43,1.58,1.53,2.57.16,1.55-.56,2.51-1.38,1.87C154,90.32,153.76,87.05,154.92,86.85Zm.58,9.59c-1.1-1.08-1.15-4.3.24-4.39.94.12,1.42,1.59,1.46,2.61C157.26,96.33,156.35,97.28,155.5,96.44Zm2.95.14c-1.08-.84-1.36-4.34,0-4.52.86.07,1.34,1.53,1.41,2.54C159.94,96.17,159.23,97.19,158.45,96.58Zm1.4-9.86c.75,0,1.31,1.44,1.47,2.44.25,1.55-.26,2.6-1,2C159.32,90.43,158.74,87,159.85,86.72ZM161,96.47c-1-.78-1.37-4.29-.19-4.55.78,0,1.27,1.46,1.37,2.47C162.36,96,161.75,97,161,96.47Zm.87-10c.66,0,1.23,1.37,1.42,2.37.29,1.55-.12,2.64-.8,2.12C161.59,90.22,160.92,86.77,161.9,86.45Zm1.44,9.74c-.92-.72-1.37-4.23-.33-4.56.7,0,1.18,1.38,1.3,2.4C164.5,95.6,164,96.71,163.34,96.19Zm2-.43c-.83-.66-1.36-4.16-.46-4.57.61-.08,1.09,1.31,1.23,2.32C166.36,95.08,166,96.23,165.37,95.76Zm1.75-.59c-.74-.6-1.34-4.08-.58-4.56.52-.14,1,1.23,1.15,2.24C167.94,94.41,167.65,95.6,167.12,95.17Zm1.52-.69c-.62-.32-1.4-4-.75-4.6.42-.18.87,1.18,1.05,2.16C169.2,93.49,169.05,94.7,168.64,94.48Zm1.14-.89c-.51-.25-1.32-3.9-.84-4.58.3-.21.73.92.95,2.07C170.17,92.52,170.12,93.76,169.78,93.59Z"/><path class="cls-4" d="M163.35,68.71l0,0c.06.11.13.22.18.33Z"/><path class="cls-4" d="M143.45,103.37h0c-.58.15-1.16.3-1.73.43Z"/><path class="cls-1" d="M91,150.29Z"/><path class="cls-2" d="M91,150.3Z"/><path class="cls-5" d="M221.09,148.36V101.78h20.4q8.46,0,12.49,3.32t4,9.39a10.46,10.46,0,0,1-2.26,6.63,10.29,10.29,0,0,1-6.63,3.67v.07a11.79,11.79,0,0,1,7.48,3.67,10.33,10.33,0,0,1,2.61,7.06,11.21,11.21,0,0,1-4.34,9.38q-4.34,3.39-12.66,3.39Zm9.46-27h9.67q7.69,0,7.69-6t-7.69-6h-9.67Zm0,19.69h10.8c2.63,0,4.59-.54,5.86-1.62a5.61,5.61,0,0,0,1.9-4.52,5.51,5.51,0,0,0-1.9-4.52c-1.27-1-3.23-1.55-5.86-1.55h-10.8Z"/><path class="cls-5" d="M278.26,101.78v46.58h-9.74V101.78Z"/><path class="cls-5" d="M310.51,101.08A23.41,23.41,0,0,1,322.43,104a19.42,19.42,0,0,1,7.73,8.26,28.13,28.13,0,0,1,2.72,12.84,28.18,28.18,0,0,1-2.72,12.85,19.46,19.46,0,0,1-7.73,8.25,23.42,23.42,0,0,1-11.92,2.9,23.66,23.66,0,0,1-12-2.9,19.4,19.4,0,0,1-7.76-8.25,28.18,28.18,0,0,1-2.72-12.85,28.13,28.13,0,0,1,2.72-12.84,19.37,19.37,0,0,1,7.76-8.26A23.66,23.66,0,0,1,310.51,101.08Zm0,8a11.81,11.81,0,0,0-6.67,1.84,11.33,11.33,0,0,0-4.24,5.43,27.3,27.3,0,0,0,0,17.5,11.41,11.41,0,0,0,4.24,5.44,11.88,11.88,0,0,0,6.67,1.83,11.72,11.72,0,0,0,6.63-1.83,11.52,11.52,0,0,0,4.2-5.44,27.3,27.3,0,0,0,0-17.5,11.44,11.44,0,0,0-4.2-5.43A11.65,11.65,0,0,0,310.51,109.05Z"/><path class="cls-5" d="M360.68,101.78q10.94,0,16.94,6t6,17.25q0,11.16-6,17.22t-16.94,6.07h-18V101.78Zm-.49,38.82q6.63,0,10-4t3.35-11.54q0-7.54-3.35-11.54t-10-4h-7.77V140.6Z"/><path class="cls-5" d="M403.16,101.78v46.58h-9.74V101.78Z"/><path class="cls-5" d="M455.53,101.78l-16.94,46.58H427.23l-17-46.58h10.3l9.81,29.64L433,140.6l2.62-9.11,9.87-29.71Z"/><path class="cls-5" d="M462.58,148.36V101.78h34.93v7.84H472.32v11.57h19.83v7.48H472.32v11.86H498.5v7.83Z"/><path class="cls-5" d="M527.79,101.78q7.9,0,12.42,3.81a12.72,12.72,0,0,1,4.52,10.24q0,6.84-4.52,10.48t-12.35,3.63l-1,.57h-10v17.85h-9.6V101.78Zm-1.13,21.32c2.73,0,4.76-.56,6.1-1.66a7.53,7.53,0,0,0,0-10.24q-2-1.65-6.1-1.65h-9.81V123.1Zm5.72,2,15.1,23.22H536.54L524.05,128Z"/><path class="cls-5" d="M572.25,101.08a26.63,26.63,0,0,1,11.15,2.19,21.84,21.84,0,0,1,8.18,6.49L586.15,116a19.12,19.12,0,0,0-6.32-5.4,17.42,17.42,0,0,0-7.94-1.73,13.24,13.24,0,0,0-4.9.78,6,6,0,0,0-2.82,2,4.85,4.85,0,0,0-.89,2.83,4.11,4.11,0,0,0,1.49,3.21,11.94,11.94,0,0,0,5.08,2.15l8.68,2q6.91,1.55,9.91,4.62a10.88,10.88,0,0,1,3,7.94,13,13,0,0,1-2.4,7.87,15.07,15.07,0,0,1-6.7,5,26.43,26.43,0,0,1-9.88,1.73,32.17,32.17,0,0,1-8.93-1.17,27.05,27.05,0,0,1-7.23-3.21A21.28,21.28,0,0,1,551,140l5.5-6.56a17.83,17.83,0,0,0,4,4,19.45,19.45,0,0,0,5.47,2.79,20.37,20.37,0,0,0,6.46,1,15.51,15.51,0,0,0,4.9-.67,6.47,6.47,0,0,0,3-1.9,4.58,4.58,0,0,0,1-3,4.4,4.4,0,0,0-1.23-3.14,8.87,8.87,0,0,0-4.56-2l-9.45-2.12a29,29,0,0,1-7-2.58,10.7,10.7,0,0,1-6-10,13,13,0,0,1,2.26-7.48A15.32,15.32,0,0,1,562,103,24.73,24.73,0,0,1,572.25,101.08Z"/><path class="cls-5" d="M610.42,101.78v46.58h-9.73V101.78Z"/><path class="cls-5" d="M659.4,101.78v7.84H643.8v38.74h-9.73V109.62H618.4v-7.84Z"/><path class="cls-5" d="M704,101.78l-16.51,29.15v17.43h-9.74V130.93l-16.51-29.15h10.37l7.48,13.91,3.53,7.34,3.6-7.34,7.48-13.91Z"/><path class="cls-5" d="M256.87,42.93V89.51H252.5L227.8,53l-3.46-6h-.07l.21,5.64V89.51h-3.39V42.93h4.45l24.63,36.49,3.53,6.07-.14-5.65V42.93Z"/><path class="cls-5" d="M303.31,46.18H275.08v18h22.37v3.31H275.08v22h-3.53V42.93h31.76Z"/><path class="cls-5" d="M327.44,42.93q11.16,0,17.19,5.9t6,17q0,11.5-6,17.57t-17.19,6.07H312.76V42.93Zm.28,43.33Q337,86.26,342,81t5-15.1q0-9.45-5-14.57t-14.3-5.12H316.29V86.26Z"/><path class="cls-5" d="M365.9,42.93V89.51h-3.53V42.93Z"/><path class="cls-5" d="M416.15,89.51V76.24H393V73.56l22.16-30.63h4.52V73.21h9v3h-9V89.51Zm0-16.3V51.9q0-1.41,0-3c0-1,.06-2,.11-3h-.14c-.52,1-1.14,2-1.87,3.14s-1.4,2.1-2,3L396.81,73.21Z"/></svg>