<?xml version="1.0" encoding="UTF-8"?>
<!-- Generator: Adobe Illustrator 16.0.4, SVG Export Plug-In . SVG Version: 6.00 Build 0)  -->
<!DOCTYPE svg PUBLIC "-//W3C//DTD SVG 1.1//EN" "http://www.w3.org/Graphics/SVG/1.1/DTD/svg11.dtd">
<svg version="1.1" id="Layer_1" xmlns="http://www.w3.org/2000/svg" xmlns:xlink="http://www.w3.org/1999/xlink" x="0px" y="0px" width="89.2px" height="18.8px" viewBox="0 0 89.2 18.8" style="enable-background:new 0 0 89.2 18.8;" xml:space="preserve">
<path style="fill:none;" d="M-233.1,71.9"/>
<path style="fill:none;" d="M-41.4,74.4"/>
<path style="fill:none;" d="M53.9,11.7C53.9,11.7,54,11.7,53.9,11.7c0.1,0,0.1,0,0.1,0C54,11.8,54,11.8,53.9,11.7  C54,11.8,53.9,11.7,53.9,11.7z"/>
<path style="fill:none;" d="M46,11.2L46,11.2C46,11.3,46,11.3,46,11.2C45.9,11.2,45.9,11.2,46,11.2C45.9,11.2,46,11.2,46,11.2z"/>
<path style="fill:#FFFFFF;" d="M33.7,1.4c-2.8,0-5.2,1.4-6.6,3.6c1,1.1,1.6,2.5,1.7,4.1c0.2-2.6,2.3-4.6,4.9-4.6  c2.7,0,4.9,2.2,4.9,4.9c0,2.7-2.2,4.9-4.9,4.9c-2.6,0-4.7-2-4.9-4.6c-0.1,1.6-0.7,3-1.7,4.1c1.4,2.1,3.9,3.6,6.6,3.6  c4.4,0,8-3.6,8-8C41.7,5,38.1,1.4,33.7,1.4"/>
<path style="fill:#FFFFFF;" d="M13,9.4c0,5.2,4.2,9.4,9.4,9.4c1.7,0,3.3-0.5,4.7-1.3v-3.7c-1.2,1.3-2.9,2-4.7,2  c-3.1,0-5.6-2.1-6.3-5h6.3V8.1H16c0.6-3,3.2-5.2,6.4-5.2c1.9,0,3.5,0.8,4.7,2V1.3c-1.4-0.8-3-1.3-4.7-1.3C17.2,0,13,4.2,13,9.4"/>
<g>
	<path style="fill:#FFFFFF;" d="M46.9,17.2V1.6h5.9c1.2,0,2.1,0.2,2.9,0.5s1.3,0.8,1.7,1.5s0.6,1.3,0.6,2.1c0,0.7-0.2,1.3-0.5,1.9   c-0.4,0.6-0.9,1.1-1.6,1.4c0.9,0.3,1.7,0.7,2.2,1.4c0.5,0.7,0.8,1.5,0.8,2.4c0,0.7-0.2,1.4-0.5,2s-0.7,1.1-1.1,1.5   c-0.5,0.3-1,0.6-1.7,0.8c-0.7,0.2-1.5,0.3-2.5,0.3H46.9z M49,8.1h3.4c0.9,0,1.6-0.1,2-0.2c0.5-0.2,0.9-0.4,1.2-0.8   c0.3-0.4,0.4-0.8,0.4-1.4c0-0.5-0.1-1-0.4-1.4c-0.2-0.4-0.6-0.7-1.1-0.8c-0.5-0.1-1.3-0.2-2.4-0.2H49V8.1z M49,15.4h3.9   c0.7,0,1.1,0,1.4-0.1c0.5-0.1,0.9-0.2,1.2-0.4c0.3-0.2,0.6-0.5,0.8-0.9c0.2-0.4,0.3-0.8,0.3-1.3c0-0.6-0.1-1.1-0.4-1.5   c-0.3-0.4-0.7-0.7-1.2-0.9S53.6,10,52.6,10H49V15.4z"/>
</g>
<g>
	<path style="fill:#FFFFFF;" d="M76.9,17.2V1.6H79l8.2,12.3V1.6h2v15.6h-2.1L78.9,4.9v12.3H76.9z"/>
</g>
<path style="fill:#FFFFFF;" d="M15.8,8.1H6.3v2.8h6.4c-0.6,2-2.5,3.4-4.7,3.4c-2.7,0-4.9-2.2-4.9-4.9c0-2.7,2.2-4.9,4.9-4.9  c0.7,0,1.4,0.2,2,0.4V1.7C9.4,1.5,8.7,1.4,8,1.4c-4.4,0-8,3.6-8,8c0,4.4,3.6,8,8,8c4.4,0,8-3.6,8-8C15.9,9,15.9,8.5,15.8,8.1"/>
<g>
	<path style="fill:#FFFFFF;" d="M71.6,15.6c-0.3,0-0.5,0-0.8,0c-0.3,0.1-0.7,0.2-1,0.3c-0.4,0.1-0.7,0.2-1.1,0.2   c-0.4,0.1-0.9,0.1-1.3,0.1c-0.4,0-0.9,0-1.3-0.1c1-0.1,2-0.2,3-0.6c0-0.1,0-0.1-0.1-0.1c-0.3,0-0.5-0.1-0.8-0.2   c-0.6-0.1-1.3-0.3-1.9-0.6c-0.5-0.2-0.9-0.3-1.4-0.4c-0.8-0.1-1.5-0.4-2.2-0.8c0,0-0.1,0-0.1-0.1c0.1,0,0.1,0,0.1,0   c0.6,0.2,1.2,0.3,1.9,0.4c0-0.1,0-0.1-0.1-0.1c-0.5-0.3-0.9-0.7-1.3-1.1c-0.2-0.3-0.5-0.6-0.7-0.9c0,0,0,0,0,0c0,0,0,0,0.1,0   c1.2,1.3,2.6,2.2,4.3,2.6c-0.2-0.9-0.7-1.6-1.3-2.3c0.4,0.2,0.6,0.6,0.9,0.9c0.4,0.5,0.7,1,1,1.6c0,0,0,0.1,0.1,0.1   c0.4,0.1,0.9,0.2,1.4,0.2c0.3,0,0.6,0,0.9,0c0.4,0,0.7-0.1,1.1,0c-0.5-1.1-1.1-2-1.9-2.8c0.1,0,0.1,0,0.1,0c0.4,0.3,0.8,0.6,1.1,1   c0.5,0.5,0.9,1.1,1.2,1.6c0,0.1,0.1,0.1,0.2,0.1c0.3-0.1,0.5-0.1,0.8-0.2c0.3-0.1,0.7-0.1,1-0.2c0-0.6-0.1-1.3-0.4-1.9   c-0.3-0.6-0.6-1.2-1.1-1.7c-0.5-0.5-1-0.8-1.6-1.1c-0.7-0.3-1.4-0.4-2.1-0.3c-0.5,0-1.1,0.1-1.6,0.2c-0.5,0.1-0.9,0.2-1.4,0.3   c-0.3,0.1-0.6,0-0.8,0c-0.3,0-0.7-0.1-1-0.2c-0.5-0.2-0.9-0.6-1.3-1c-0.5-0.5-0.8-1.2-1-1.9c-0.1-0.5-0.1-1,0-1.5   c0-0.2,0.1-0.3,0.1-0.5c-0.1,0-0.1,0-0.1,0.1c-0.1,0.2-0.2,0.3-0.3,0.5c-0.1,0.1-0.1,0.2-0.2,0.3c-0.1,0.2-0.2,0.5-0.4,0.7   c-0.4,0.9-0.6,2-0.6,3.1c0,4.4,3.5,8,7.9,8c1.9,0,3.7-0.7,5.1-1.8c-0.1,0-0.2,0-0.2,0C72,15.6,71.8,15.6,71.6,15.6z"/>
	<path style="fill:#FFFFFF;" d="M74.9,6.9C74.9,6.9,74.9,6.9,74.9,6.9C74.9,7,74.9,7,74.9,6.9C74.9,6.9,74.9,6.9,74.9,6.9   c-0.7-2.2-2.3-3.9-4.3-4.8c-0.1,0-0.2-0.1-0.3-0.1c-0.3-0.1-0.5-0.2-0.8-0.3c-0.2-0.1-0.4-0.1-0.6-0.1c-0.1,0-0.2,0-0.3,0   c-0.1,0-0.3,0-0.4,0c0.6,0,1.1,0.2,1.7,0.3C69.6,2,69.6,2,69.6,2c-0.1-0.1-0.3-0.1-0.4,0c0,0.1,0.1,0,0.1,0.1   c0,0.1,0.1,0.1,0.1,0.2c0,0.1-0.1,0.2-0.2,0.2c0,0.1,0.1,0.2,0.3,0.3h-0.3c0,0,0,0.1,0,0.1c0,0,0,0-0.1,0.1c0,0,0,0,0,0   c0,0,0,0,0,0c0,0.1-0.2,0.1-0.1,0.2c0,0,0,0,0,0c0,0-0.1,0-0.1,0c0-0.1-0.1-0.1-0.2-0.1c0,0.1,0.1,0.1,0.1,0.2c-0.1,0-0.1,0-0.1,0   c0,0,0,0.1,0,0.1c-0.1,0-0.1,0-0.2,0c0,0,0,0,0,0.1c0,0-0.1,0-0.1-0.1c0-0.1-0.1-0.1-0.1-0.1c0.1,0,0.1,0,0.2,0   c0.1,0,0.1,0,0.1-0.1c0-0.1,0-0.1-0.1-0.1c-0.1-0.1-0.3-0.1-0.5-0.1c0,0-0.1,0-0.1,0c0-0.1-0.1-0.1-0.1-0.1c-0.2,0-0.3,0-0.5,0.1   C67.2,3,67.1,3.1,67,3.2c-0.1,0.1-0.1,0.1-0.2,0.2c-0.2,0-0.3,0.1-0.3,0.3c0,0,0,0,0,0c0,0.1,0,0.1,0,0.1c0.1,0,0.1,0.1,0.1,0.2   c0,0.1,0,0.1,0,0.2s0,0.1-0.1,0.1c-0.1,0-0.2,0-0.3,0.1c-0.1,0.1-0.1,0.1-0.2,0.1c0-0.1,0.1-0.1,0.1-0.2c-0.1,0-0.1-0.1-0.1-0.1   c0-0.1-0.1-0.2-0.1-0.2c0,0,0.1-0.1,0.1-0.1c0,0-0.1,0-0.1,0c0,0,0,0,0-0.1c-0.1,0-0.2,0-0.3,0.1c0,0.1,0,0.1,0,0.2c0,0,0,0,0.1,0   c0,0,0,0,0,0.1c0,0,0,0-0.1,0c0,0-0.1,0-0.1,0c0,0,0,0.1-0.1,0.1c0,0,0,0.1,0,0.1c0,0.1-0.1,0.1-0.2,0.1c0,0,0,0,0,0   c0.1,0,0.2,0,0.2,0c0,0.1,0,0.1,0,0.2c-0.1,0-0.1,0-0.2,0c0,0-0.1,0-0.1,0c0,0,0,0.1,0,0.1c0.1,0,0.1,0.1,0.1,0.2   c0,0.2-0.1,0.3-0.2,0.3c-0.1,0-0.2,0-0.4-0.1c-0.1,0-0.2,0-0.2,0.1c0,0.1-0.1,0.3-0.2,0.4c0,0-0.1,0.1,0,0.1c0.1,0.1,0,0.1,0,0.2   c0.1,0,0.2,0,0.3,0.2c0,0,0,0-0.1,0.1c0,0.1-0.1,0.1-0.2,0.2c-0.2,0.1-0.3,0.2-0.3,0.4c0,0,0,0,0,0c-0.1,0.1-0.2,0.2-0.3,0.2   c-0.1,0-0.1,0-0.2,0.1c-0.1,0.1-0.2,0.2-0.3,0.3c0,0,0,0,0,0c-0.1,0.1-0.2,0.2-0.3,0.3c0,0,0,0.1,0,0.1c0.1,0.1,0,0.2,0,0.3   c0,0.2-0.1,0.3-0.2,0.5c0.2,0.2,0.4,0.3,0.7,0.4c0.3,0.1,0.6,0.2,1,0.2c0.3,0,0.6,0,0.8,0c0.5-0.1,0.9-0.2,1.4-0.3   c0.5-0.1,1-0.2,1.6-0.2c0.7,0,1.5,0.1,2.1,0.3c0,0,0,0,0.1,0c0.1,0,0.1,0,0.2-0.1c0,0,0,0,0.1,0c0.1,0,0.1-0.1,0.2-0.1   C71.1,9.2,71.2,9,71.4,9c0.1,0,0.1-0.1,0.1-0.2c0,0,0.1-0.1,0.1-0.1c0.1-0.1,0.2-0.1,0.2-0.2c0,0,0,0,0,0c0.1,0,0.1,0,0.1-0.1   c0,0,0-0.1,0.1-0.1c0,0,0.1-0.1,0-0.1c0,0,0-0.1,0-0.1c0.1,0,0.1-0.1,0.1-0.2c0,0,0-0.1,0-0.1c-0.1,0-0.1-0.1-0.2-0.2   c-0.1,0-0.2-0.1-0.2-0.3c0,0,0.1,0,0.1,0c0.2,0,0.3,0,0.5,0c0,0,0.1,0,0.1,0c0.1,0.1,0.2,0.1,0.3,0.2c0.1,0.1,0.2,0.2,0.3,0.2   c0.1,0,0.2,0.1,0.2,0.2c0,0.1,0,0.1,0.1,0.2c0.1,0.2,0.2,0.4,0.3,0.6c0,0.1,0.1,0.2,0.2,0.2c0.1,0,0.1,0,0.1-0.1c0,0,0,0,0-0.1   C73.9,9,73.9,9.2,74,9.3c0.1-0.1,0.1-0.3,0.1-0.4c0-0.2,0-0.4-0.1-0.5c0-0.1,0-0.2,0-0.2c0,0,0-0.1,0-0.1c0-0.2,0-0.4,0.1-0.6   c0,0,0,0,0-0.1c0,0,0,0,0-0.1c0,0,0,0,0,0c0,0,0,0,0,0c0,0,0,0,0-0.1c0,0,0,0,0,0c0,0,0,0,0,0.1c0,0,0,0,0,0v0c0,0,0,0,0,0s0,0,0,0   c0.1,0.1,0.2,0.3,0.3,0.4c0.1,0.1,0.1,0.1,0.1,0c0.1,0,0.1,0,0.1-0.2c0,0.1,0.1,0.2,0.1,0.3C75,8.1,75,8.3,75,8.6   c0,0.1,0,0.1,0,0.2c0.1,0.1,0.1,0.2,0.1,0.3c0,0,0-0.1-0.1-0.1c0,0,0,0,0,0c0,0,0,0.1,0,0.1c0,0-0.1,0-0.1,0c0,0.2,0.1,0.3,0.1,0.5   c0,0,0-0.1,0.1-0.1c0,0.2,0,0.3,0.1,0.4c0,0.1,0,0.3,0,0.4c0-0.1,0-0.2,0-0.3c0-0.2,0-0.4,0-0.7C75.3,8.5,75.2,7.7,74.9,6.9z    M68.3,5.6c0-0.1,0.1-0.2,0.2-0.3c0,0,0,0,0.1,0c0.1,0,0.2,0,0.3,0.1c0,0,0.1,0,0.1,0c0.1-0.1,0.2-0.1,0.3,0   c0.1,0.1,0.1,0.1,0.2,0.2c0.1,0,0.1,0.1,0.1,0.1c0,0.1-0.1,0.1-0.2,0.1c-0.1,0-0.1,0-0.2-0.1c-0.2-0.1-0.3,0-0.4,0c0,0-0.1,0-0.1,0   c-0.1,0-0.1,0-0.2,0.1c0,0.1-0.1,0-0.2,0c0-0.1,0.1,0,0.2-0.1C68.3,5.7,68.2,5.7,68.3,5.6z M67.3,3.8c0-0.1,0.1-0.2,0.2-0.2   c0.1,0.1,0.1,0.2,0.2,0.3c-0.1,0-0.1,0-0.1,0c0,0,0,0.1,0,0.1c0,0.1-0.1,0.2-0.2,0.1c0,0-0.1,0-0.1,0c0,0-0.1,0-0.1,0   C67.3,4.1,67.3,3.9,67.3,3.8z M66.8,4.1C66.8,4.1,66.8,4.1,66.8,4.1c0,0.2,0,0.2,0.1,0.1c0,0,0,0.1-0.1,0.1c0,0-0.1,0-0.1-0.1   C66.7,4.1,66.8,4.1,66.8,4.1z M69,7c-0.1,0-0.1,0-0.2,0c-0.1,0-0.1,0-0.2,0c0,0-0.1,0.1-0.2,0c-0.1,0-0.2,0-0.3-0.1   c-0.1,0-0.2,0-0.3-0.1c-0.1,0-0.2-0.1-0.3,0c-0.1,0-0.1,0.1-0.1,0.2c0,0.1-0.1,0.1-0.1,0.1c-0.1,0-0.2-0.1-0.2-0.1   C67,7.1,67,7,66.9,7c-0.1-0.1-0.2-0.1-0.3-0.1c-0.1,0-0.2-0.1-0.3-0.1c0,0,0-0.1,0-0.1c0.1,0,0.1-0.1,0.1-0.1c0-0.1,0-0.1,0-0.2   c-0.1,0-0.2-0.1-0.3,0c0,0-0.1,0-0.1,0c0,0-0.1,0-0.1,0c-0.2,0-0.4,0-0.6,0c-0.1,0-0.2,0.1-0.3,0.1c0,0-0.1,0.1-0.1,0   c0,0,0,0,0.1,0c0.1,0,0.3-0.1,0.3-0.2c0.1-0.2,0.4-0.4,0.6-0.5c0.1-0.1,0.2,0,0.3,0c0,0,0,0.1,0.1,0.1c0.1,0,0-0.1,0.1-0.2   c0.1,0,0.1,0.1,0.2,0.2c0.1,0.1,0.2,0.1,0.2,0.2c0,0,0.1,0.1,0.1,0.1c0,0,0,0.1,0,0.1c0,0.1-0.1,0.1-0.1,0.1c-0.1,0-0.1,0-0.2,0   c0,0-0.1,0-0.1,0c0,0,0,0,0,0.1c0.1,0,0.2,0.1,0.2,0.1c0,0,0,0,0-0.1c0-0.1,0-0.1,0.1-0.1c0,0,0.1-0.1,0.1-0.1c0.1,0,0-0.1,0-0.1   c0,0,0-0.1,0.1-0.1c0,0,0.1,0.1,0.1,0c0,0,0-0.1,0-0.1c-0.1-0.1-0.2-0.1-0.3-0.2c-0.1,0-0.1-0.1-0.1-0.2c0.1-0.1,0.1-0.1,0.2,0   c0,0.1,0.1,0.1,0.2,0.1c0.1,0.1,0.2,0.2,0.3,0.3c0.1,0.1,0.1,0.2,0.2,0.3c0,0.1,0.1,0.1,0.2,0.1c0-0.1,0-0.1,0-0.2l0,0l0,0v0   c0,0,0.1,0,0.1,0c0,0,0-0.1,0-0.1c-0.1,0,0-0.1,0-0.2c0.1,0,0.2,0,0.3,0.1c0,0.2,0.2,0.3,0.3,0.3c0.1,0,0.3,0,0.4,0   c0,0-0.1,0,0,0.1c0,0,0.1,0,0.1,0c0,0,0.1,0,0.1-0.1c0,0,0-0.1,0.1,0c0,0,0.1,0,0.1,0.1c0,0.2,0,0.3-0.1,0.5C69.1,7.1,69,7.1,69,7z    M69.9,9c0-0.1-0.1-0.2-0.2-0.3c-0.1-0.1-0.1-0.2-0.1-0.3c0-0.1,0-0.2-0.1-0.3c-0.1,0-0.1-0.1-0.1-0.2c0,0,0-0.1-0.1-0.1   c-0.1-0.1-0.2-0.2-0.2-0.4c0,0,0,0,0,0l0,0l0,0l0,0c0.2,0,0.3,0.2,0.4,0.3c0,0,0,0,0,0.1c0.1,0.1,0.2,0.3,0.3,0.4   c0.1,0.2,0.3,0.4,0.4,0.6c0.1,0.1,0.1,0.2,0.1,0.3c0,0,0,0.1,0.1,0.1C70.2,9.2,70,9.1,69.9,9z M70.5,6c-0.1-0.1,0-0.2,0-0.3   c-0.1-0.1-0.3-0.2-0.4-0.4c0,0,0,0-0.1-0.1c-0.1-0.1,0-0.1,0-0.2c0.1,0,0.2,0,0.2,0.1c0,0.1,0,0.1,0,0.2c0,0.1,0,0.1,0.1,0.1   c0.3,0.1,0.3,0.4,0.4,0.6C70.7,6.1,70.5,6.1,70.5,6z M74.7,11.3C74.7,11.3,74.7,11.3,74.7,11.3C74.7,11.3,74.7,11.3,74.7,11.3   c-0.1,0.2-0.1,0.3-0.2,0.5c-0.2,0.5-0.4,1-0.7,1.4c0,0.1-0.1,0.1,0,0.2c0.1,0,0.1-0.1,0.1-0.1c0-0.1,0.1-0.2,0.2-0.3   c0.2-0.2,0.3-0.5,0.4-0.8c0-0.1,0.1-0.2,0.1-0.3C74.8,11.7,74.7,11.5,74.7,11.3z M65.2,4.2c0,0.1-0.1,0.1-0.1,0.2   c0.1,0,0.1,0,0.2,0c0.2,0,0.2-0.2,0.3-0.3c0,0,0-0.1-0.1-0.1C65.4,4.1,65.2,4.2,65.2,4.2z M68.8,2.2C68.8,2.2,68.8,2.2,68.8,2.2   c-0.2,0.1-0.2,0.1-0.2,0.2c0,0,0,0.1,0.1,0.1c0,0,0,0,0.1,0.1c0.1,0,0.2,0,0.3,0c0,0,0,0,0,0C68.8,2.6,68.8,2.5,68.8,2.2   C68.9,2.2,68.9,2.2,68.8,2.2z M74.2,9c0,0.2,0,0.3,0.1,0.5C74.4,9.4,74.3,9.1,74.2,9z M67.3,2.3C67.3,2.3,67.3,2.3,67.3,2.3   c0.1,0.1,0.1,0.1,0.1,0.1c0-0.1,0.1-0.1,0.2-0.1c0,0,0,0,0,0c0,0-0.1,0-0.1,0c-0.1,0-0.1,0-0.2,0C67.2,2.2,67.2,2.2,67.3,2.3z    M68.6,1.9c0.1,0.2,0.3,0,0.4,0.1C68.9,1.8,68.8,1.9,68.6,1.9z M66.2,5.8c0,0.1,0,0.1,0,0.2c0,0,0,0.1,0.1,0.1   c0.1,0,0.1-0.1,0.1-0.2C66.4,5.7,66.3,5.8,66.2,5.8z M68.2,6.6c-0.1-0.1-0.2,0-0.3-0.1C67.9,6.6,68.1,6.6,68.2,6.6z M63.4,3.2   C63.5,3.2,63.5,3.1,63.4,3.2c-0.1-0.1-0.1-0.1-0.2-0.1c0,0-0.1,0-0.1,0c0,0,0-0.1,0-0.1c0.1-0.1,0.2-0.2,0.4-0.3   c0.3-0.2,0.6-0.3,0.9-0.5c0.3-0.1,0.7-0.3,1-0.4c0,0,0.1,0,0.1,0c0,0,0,0.1-0.1,0.1c-0.1,0.1-0.2,0.1-0.3,0.2   c-0.1,0-0.2,0.1-0.3,0.1c0,0-0.1,0.1-0.1,0.1c0,0.1,0,0.1-0.1,0.1c-0.1,0-0.2,0-0.2,0.1c-0.2,0.1-0.4,0.3-0.6,0.5   c0.1,0,0,0.1,0.1,0.2c0.2-0.1,0.3-0.2,0.5-0.3c0.1,0,0.2-0.1,0.3-0.1c0,0,0.1,0,0.1,0c-0.1,0.1-0.2,0.1-0.3,0.2   c0.2,0,0.4,0,0.5-0.1c0.1,0,0.1,0,0.2,0c-0.1,0,0,0.1-0.1,0.1c0.1,0.1,0.2,0.1,0.4,0c0.1,0,0.1-0.1,0.1-0.2c-0.1,0-0.2,0-0.3,0   c0.1,0,0.2,0,0.3,0c0.2-0.1,0.3-0.2,0.5-0.2c0.2,0,0.3-0.2,0.4-0.2c0.1-0.1,0.1-0.1,0-0.2c0,0,0,0,0-0.1c0.1-0.1,0.2-0.1,0.3-0.1   c0,0-0.1,0,0-0.1c0-0.1-0.1-0.1-0.1-0.1c-0.1,0-0.2,0-0.3,0c0,0,0.1,0,0.1-0.1c0-0.1,0.1-0.1,0.1,0c0.1,0,0.2,0.1,0.2,0   c0,0,0.1,0,0.1,0c0,0.1,0.1,0,0.1,0c0.1,0,0.1,0,0.2,0c0.1,0,0.3,0,0.4,0c0,0,0.1,0,0.1-0.1c-0.1-0.1-0.2,0-0.3-0.1   c0,0,0.1,0,0.1,0c0,0,0.1,0,0.1,0c-0.1,0-0.2-0.1-0.3-0.1c0,0-0.1,0-0.1,0c-0.2,0-0.4,0-0.7,0c-0.1,0-0.2,0-0.3,0   c-0.2,0-0.4,0.1-0.6,0.1c-0.1,0-0.3,0.1-0.4,0.1c-0.1,0-0.3,0.1-0.4,0.1c-0.3,0.1-0.6,0.2-0.9,0.3c-0.6,0.3-1.1,0.6-1.6,1   c-0.4,0.3-0.7,0.6-1.1,1c-0.1,0.1-0.1,0.1-0.2,0.2v0.1c0,0.1,0,0.2,0,0.3l0,0.2c0.1-0.1,0.1-0.1,0.2-0.2c0.1-0.2,0.3-0.4,0.4-0.5   c0,0,0.1-0.1,0.1,0c0,0.1,0.1,0.2,0.2,0.1c0,0,0,0,0.1,0c0.1-0.1,0.2-0.2,0.3-0.3c0.1,0,0.1,0,0.2,0c0.1,0,0.2,0,0.2-0.1   C63.2,3.6,63.3,3.4,63.4,3.2z M66.1,1.8c-0.1,0-0.1,0-0.2,0C66,1.8,66.1,1.8,66.1,1.8z M62.4,3.6L62.4,3.6L62.4,3.6L62.4,3.6z    M62.1,4c0.1-0.2,0.2-0.4,0.5-0.4C62.5,3.8,62.3,3.9,62.1,4z"/>
</g>
</svg>