<?xml version="1.0" encoding="UTF-8" standalone="no"?>
<svg
   viewBox="0 0 845.70612 135.2"
   height="512"
   width="3202.6741"
   version="1.1"
   id="svg18"
   sodipodi:docname="vat_logo_white.svg"
   inkscape:version="1.1.2 (0a00cf5339, 2022-02-04)"
   inkscape:export-filename="/home/beilschmidt/Downloads/vat_logo_white_bg.png"
   inkscape:export-xdpi="30.681488"
   inkscape:export-ydpi="30.681488"
   xmlns:inkscape="http://www.inkscape.org/namespaces/inkscape"
   xmlns:sodipodi="http://sodipodi.sourceforge.net/DTD/sodipodi-0.dtd"
   xmlns="http://www.w3.org/2000/svg"
   xmlns:svg="http://www.w3.org/2000/svg">
  <defs
     id="defs22">
    <linearGradient
       id="d"
       x1="15.622881"
       y1="352.33759"
       x2="213.02151"
       y2="122.20451"
       gradientUnits="userSpaceOnUse">
      <stop
         offset="0"
         stop-color="#3daa37"
         id="stop915" />
      <stop
         offset="1"
         stop-color="#d8e290"
         id="stop917" />
    </linearGradient>
    <clipPath
       id="clipPath38"
       clipPathUnits="userSpaceOnUse">
      <path
         inkscape:connector-curvature="0"
         id="path36"
         d="m 2767.99,2165.38 c -10.11,-56.83 -80.55,-104.25 -157.22,-97.6 -76.97,7.37 -95.33,41.9 -49.04,78.85 45.71,37.9 106,84.47 148.3,97.16 42.37,12.46 69.08,-22 57.96,-78.41 z" />
    </clipPath>
    <linearGradient
       id="linearGradient44"
       spreadMethod="pad"
       gradientTransform="matrix(0,-219.607,-219.607,0,2653.55,2284.8)"
       gradientUnits="userSpaceOnUse"
       y2="0"
       x2="1"
       y1="0"
       x1="0">
      <stop
         id="stop40"
         offset="0"
         style="stop-opacity:1;stop-color:#77cb46" />
      <stop
         id="stop42"
         offset="1"
         style="stop-opacity:1;stop-color:#45bb3a" />
    </linearGradient>
    <clipPath
       id="clipPath54"
       clipPathUnits="userSpaceOnUse">
      <path
         inkscape:connector-curvature="0"
         id="path52"
         d="m 3143.09,2250.74 c 67.89,-71.09 97.73,-131.51 32.59,-141.51 -63.3,-8.88 -143,42.97 -167.06,111.23 -26.24,67.86 -14.95,134.83 8.92,147.56 24.67,12.87 59.7,-44.96 125.55,-117.28 z" />
    </clipPath>
    <linearGradient
       id="linearGradient60"
       spreadMethod="pad"
       gradientTransform="matrix(0,409.137,409.137,0,3102.74,1437.52)"
       gradientUnits="userSpaceOnUse"
       y2="0"
       x2="1"
       y1="0"
       x1="0">
      <stop
         id="stop56"
         offset="0"
         style="stop-opacity:1;stop-color:#2555ad" />
      <stop
         id="stop58"
         offset="1"
         style="stop-opacity:1;stop-color:#3468bb" />
    </linearGradient>
    <clipPath
       id="clipPath70"
       clipPathUnits="userSpaceOnUse">
      <path
         inkscape:connector-curvature="0"
         id="path68"
         d="m 4145.99,1631.8 c 139.34,-68.02 69.88,-249.44 -161.59,-331.62 -234.31,-79.33 -479.22,23.48 -536.55,142.97 -58.25,120.9 13.83,210.15 163.52,242.98 149.42,28.92 393,17.33 534.62,-54.33 z" />
    </clipPath>
    <linearGradient
       id="linearGradient76"
       spreadMethod="pad"
       gradientTransform="matrix(0,670.354,670.354,0,3822.63,1228.3)"
       gradientUnits="userSpaceOnUse"
       y2="0"
       x2="1"
       y1="0"
       x1="0">
      <stop
         id="stop72"
         offset="0"
         style="stop-opacity:1;stop-color:#77cb46" />
      <stop
         id="stop74"
         offset="1"
         style="stop-opacity:1;stop-color:#45bb3a" />
    </linearGradient>
    <clipPath
       id="clipPath86"
       clipPathUnits="userSpaceOnUse">
      <path
         inkscape:connector-curvature="0"
         id="path84"
         d="m 2975.34,2211.75 c -23.2,68.04 -56.98,110 -90.49,94.15 -33.11,-16.07 -66.53,-75.82 -75.56,-133.1 -0.02,-0.13 -0.02,-0.25 -0.04,-0.38 -9.16,-106.25 -79.8,-163.71 -231.94,-142.41 0,0 0.01,-0.02 0.02,-0.03 -78.24,7.68 -198.91,-1.01 -273.66,-20.28 -74.06,-17.44 -38.1,-88.11 89.17,-144.66 128.42,-55.48 258.45,-23.06 282.27,42.51 0.05,0.13 0.07,0.25 0.12,0.38 0.01,-0.02 0.02,-0.03 0.03,-0.04 55.2,109.57 124.45,151.51 234.16,165.59 0,0 -0.01,0.01 -0.01,0.01 66.31,5.65 90.47,70.75 65.93,138.26 z" />
    </clipPath>
    <linearGradient
       id="linearGradient92"
       spreadMethod="pad"
       gradientTransform="matrix(0,601.928,601.928,0,2625.13,1130.62)"
       gradientUnits="userSpaceOnUse"
       y2="0"
       x2="1"
       y1="0"
       x1="0">
      <stop
         id="stop88"
         offset="0"
         style="stop-opacity:1;stop-color:#2555ad" />
      <stop
         id="stop90"
         offset="1"
         style="stop-opacity:1;stop-color:#3468bb" />
    </linearGradient>
    <clipPath
       id="clipPath104"
       clipPathUnits="userSpaceOnUse">
      <path
         inkscape:connector-curvature="0"
         id="path102"
         d="m 2508.83,1581.16 c -38.87,-91.27 -250.22,-99.06 -432.47,46.52 -178.91,146.98 -218.67,299.96 -130.81,303.04 90.21,6.28 264.51,-48.54 395.23,-105.95 128.85,-59.82 208.64,-152.5 168.05,-243.61 z" />
    </clipPath>
    <linearGradient
       id="linearGradient110"
       spreadMethod="pad"
       gradientTransform="matrix(0,650.987,650.987,0,2210.05,1472.34)"
       gradientUnits="userSpaceOnUse"
       y2="0"
       x2="1"
       y1="0"
       x1="0">
      <stop
         id="stop106"
         offset="0"
         style="stop-opacity:1;stop-color:#2555ad" />
      <stop
         id="stop108"
         offset="1"
         style="stop-opacity:1;stop-color:#3468bb" />
    </linearGradient>
  </defs>
  <sodipodi:namedview
     id="namedview20"
     pagecolor="#ffffff"
     bordercolor="#111111"
     borderopacity="1"
     inkscape:pageshadow="0"
     inkscape:pageopacity="0"
     inkscape:pagecheckerboard="1"
     showgrid="false"
     height="512px"
     inkscape:zoom="0.41"
     inkscape:cx="-9.7560976"
     inkscape:cy="171.95122"
     inkscape:window-width="3840"
     inkscape:window-height="2059"
     inkscape:window-x="0"
     inkscape:window-y="0"
     inkscape:window-maximized="1"
     inkscape:current-layer="g16"
     width="3202.6741px" />
  <g
     id="g44"
     transform="translate(9.9392112,10.064097)">
    <g
       transform="matrix(0.21197868,0,0,-0.21197868,-83.89857,160.81192)"
       id="g16">
      <ellipse
         transform="scale(1,-1)"
         cy="-487.20001"
         cx="667.79999"
         fill="#f5f5f5"
         stroke="#335aa3"
         stroke-width="11.8"
         id="ellipse2"
         rx="313.00034"
         ry="313"
         style="stroke:#335aa3;stroke-opacity:1" />
      <g
         fill="#335aa3"
         id="g8"
         style="fill:#335aa3;fill-opacity:1">
        <path
           d="m 730,191.4 c -0.6,-7.2 1.6,-13.4 -1.4,-17.2 172.6,33.3 285.5,200.2 252.3,373 -16,78.6 -58,145 -117,190.8 1,-3 1,-6.6 1,-10 1,-19.7 19,-33.5 33,-47.7 19,-20 32,-45 38,-72 5,-21.3 5,-43.3 5,-65.3 0,-35.8 -1,-74.4 -23,-103.2 -9,-12.2 -22,-21.7 -33,-31.6 -26,-22 -50,-46.7 -74,-71.2 -6,-5.4 -11,-11.3 -12,-18.7 -1,-6 2,-12 3,-18 5,-20.8 -3,-44.3 -19,-58 -11,-8.2 -23,-12.7 -35,-19.6 -10,-6.7 -20,-17.7 -21,-31.3"
           id="path4"
           style="fill:#335aa3;fill-opacity:1" />
        <path
           d="m 387.8,335.2 h -0.2 c 62.7,-115.4 192.6,-183.8 328,-163.3 -33.6,5 -39,-3 -54.5,7 -7,4 -14,10 -19,18 -4,6 -8,14 -14,19 -6,5 -15,9 -20,16 -7,12 3,28 16,36 13,7 28,11 38,21 10,10 15,25 28,29 5,1 11,1 15,4 7,5 7,16 14,21 8,6 21,0 31,4 6,2 10,8 17,9 8,1 15,-6 22,-10 14,-6 32,3 35,18 1,5 0,10 2,16 3,11 15,17 16,28 1,5 -2,11 -3,17 -1,6 3,13 9,13 7,-1 8,-10 14,-13 5,-3 10,-1 14,2 12,7 19,20 18,34 -1,14 -11,26 -25,28 -13,2 -27,-8 -30,-21 -1,-7 0,-16 -7,-18 -7,-2 -11,9 -12,17 0,16 -2,33 -13,44 -4,5 -11,9 -14,15 -3,5 -3,11 -6,17 -2,3 -5,6 -9,8 -12,8 -26,15 -40,19 -6,1 -12,3 -16,6 -4,4 -7,11 -4,16 2,2 4,3 5,5 4,5.4 -1,13 -8,15 -6,2 -13,1.6 -19,3 -6,1.5 -13,7 -11,13.4 1,4 4,6.5 6.8,9.4 7,7.5 11,18 12,28.2 0,5 -0.6,11 1.5,15 2,5 8.6,8 12.6,5 3,-2 4,-6 7.5,-7 6.8,-1 6,10 10,15 3,4 10,3 14,0 4,-3 5,-8 7,-13 5,-12 12,-24 20,-34 1,-1 2,-2.6 3.6,-3 5,-1.2 5,7.5 5.6,13 0.5,8.4 9,14 11.6,22 3,8 0,18 -6,24 -6,6 -15,8.5 -24,9 -2.5,0 -6,0.5 -8,2 -4,3 -3.6,9 -4.5,14 -2.5,11 -16.5,19 -24,11 12,-12 6,-37.2 -11,-42.2 -2,-1 -4,-1 -6,-1 -3,0 -5,2 -7,4 -7,8 -10,19 -7.6,29 1,8 6,15 7,23 1,8 -3,17 -11,18 -10,0 -14,-14 -14,-24 -1.7,-17 -5,-34 -10,-50 -2,-5 -4,-10 -9,-12 -8,-3 -16.3,5 -18.6,13 -2.3,8.8 -1.6,18 -6,25 -4.6,8 -14,13 -14.7,22 -1,10.6 11,17 19,23 1.4,1 2.6,2 3,3.8 1,4.4 -5,7 -9.3,6.4 -4.7,-1 -10,-2.6 -13,0.3 22.5,20 57,14 86,6 17.5,-4 35,-9 49.8,-19 3.7,-2 7,-5 11.7,-6 4,0 9.5,2 9.7,7 -7,0 -12,4 -13,9 -1,4.6 3,9 6.5,11 l 1,0.6 c -50,17 -104.5,21 -159.7,11 -33,-6 -64,-17 -92,-32 5.3,2 10.5,3 16,3.5 1,0 14.3,1 16.2,-3 0.5,-0.3 1,-1.4 0.6,-3 -1,-2 -2,-4 -4,-5.3 l -54,-55 c -9,-9 -22,-18.2 -32,-11.6 -9,-16.5 -18.5,-34 -17,-52.7 0,-5.6 2,-11 0,-16.5 -1.3,-4 -4,-7 -6,-11 -6,-12 -2,-26 -2,-39 0,-13 -9,-29 -22,-27 -9,1 -14,11 -16,20 -2,9 -1,18.4 -5,27 -4.4,-2.6 -7,-7.7 -9,-12.5 -3.3,-7.6 -5.4,-11 -9,-12 -5,-1.5 -10.4,3.4 -12,5 -1,1 -1.4,2 -2,3.5 -13,-45 -17,-94 -9,-143 -8,61 1,109 3,109 0.5,0 0.4,-4 4,-11 1,-3 3,-6 6.5,-9.4 6.7,5 11,13 11,22 0,3.5 -0.4,8 3,9.5 3,1 6,-2 7,-4.7 1,-3 0.7,-6 1.6,-9 2,-7 8,-11 13,-15 12,-11 16,-28 19,-44.8 l 14.7,-76 c 1.7,-8 3,-17 3,-25 0,-11 -3.3,-22 -7,-33 -2,-8 -5,-16 -11,-21 -6,-5 -16,-6 -21,0.4 -3,4 -6,10 -10,8 -1,-2 -2,-4 -4,-4"
           id="path6"
           style="fill:#335aa3;fill-opacity:1" />
      </g>
      <g
         fill="#f5f5f5"
         stroke="#335aa3"
         stroke-linecap="round"
         stroke-linejoin="round"
         stroke-width="10"
         id="g14"
         style="stroke:#335aa3;stroke-opacity:1">
        <path
           d="m 461.5,632.7 -6,-31 -26.8,-10.8 -26,17 -25,-25 18,-26 -11,-27 -30.8,-6 v -35 l 30,-5 11,-27 -18,-26 25,-25 26,18 27,-11 6,-31 h 35 l 5,31 27,10 26,-18 25,25 -18,26 11,27 31,5 v 35 l -31,6 -11,27 18,26 -25,24 -26,-18 -27,11 -5,31 z m 17,-79.7 c 25,0 44.8,-20 44.8,-45 0,-24.8 -20,-44.7 -44.8,-44.7 -25,0 -45,20 -45,44.8 0,25 20,45 45,45 z"
           id="path10"
           style="stroke:#335aa3;stroke-opacity:1" />
        <path
           d="m 588,543 -8,-43.8 -38.7,-16 -38,25 -34.8,-35 25,-37.8 -16,-39 -44,-8 v -49.7 l 44,-8 16,-38.8 -25,-38 35,-35 37.8,25 38.8,-16 8,-44 h 50 l 8,44 39,16 38,-25 35,35 -25,38 16,38 44,8 v 50 l -44,8 -16,39 25,38 -35,35 -38,-25 -39,16 -8,44 z m 25,-119.6 c 33,0 59.8,-27 59.8,-59.8 0,-33 -27,-59.8 -59.8,-59.8 -33,0 -59.8,27 -59.8,59.8 0,33 27,59.8 59.8,59.8 z"
           id="path12"
           style="stroke:#335aa3;stroke-opacity:1" />
      </g>
    </g>
  </g>
  <g
     aria-label="VAT"
     id="text1126"
     style="font-size:155.581px;line-height:1.25;letter-spacing:0px;word-spacing:0px;fill:#ffffff;fill-opacity:1;stroke-width:3.88952"
     transform="translate(0,-0.30202051)">
    <path
       d="m 267.38551,67.51301 q 3.57836,0 5.13417,1.55581 1.71139,1.55581 1.71139,4.045106 0,4.045105 -2.48929,7.156725 -2.33372,3.11162 -7.46789,3.267201 -12.44648,0.311162 -22.0925,-1.866972 -11.04625,23.18157 -26.75993,38.58409 -15.5581,15.24693 -31.27178,15.24693 -16.18042,0 -24.11506,-18.8253 -7.93463,-18.825296 -7.93463,-50.874981 0,-27.382255 3.88953,-49.163594 1.40023,-8.0902118 3.88952,-10.8906697 2.64488,-2.9560389 8.86812,-2.9560389 10.26835,0 10.26835,8.8681166 0,0.933486 -0.31117,3.422782 -4.66743,28.004579 -4.66743,50.719404 0,23.803892 3.88953,36.250371 4.0451,12.2909 11.97974,12.2909 8.09021,0 17.58065,-11.20183 9.49044,-11.201834 17.42507,-28.160163 -9.49044,-5.912077 -14.31345,-15.246937 -4.82301,-9.490441 -4.82301,-21.781339 0,-12.290899 3.73394,-20.692272 3.88953,-8.5569548 10.42393,-12.7576417 6.68998,-4.20068679 14.78019,-4.20068679 9.95718,0 15.71368,7.15672569 5.91208,7.1567258 5.91208,19.6032048 0,17.891815 -7.77905,39.05083 8.24579,1.400229 18.8253,1.400229 z M 221.48912,36.863554 q 0,15.246937 9.8016,22.559244 6.06766,-17.425071 6.06766,-28.782484 0,-6.534401 -1.71139,-9.49044 -1.71139,-3.11162 -4.66743,-3.11162 -4.20069,0 -6.84557,4.978592 -2.64487,4.82301 -2.64487,13.846708 z"
       style="font-family:Pacifico;-inkscape-font-specification:Pacifico;fill:#ffffff;fill-opacity:1"
       id="path916" />
    <path
       d="m 298.34591,135.5019 q -10.73509,0 -19.44763,-5.28975 -8.55695,-5.28975 -13.53554,-15.24694 -4.9786,-10.11276 -4.9786,-23.803889 0,-23.648311 10.11277,-43.718259 10.11276,-20.22553 29.87155,-32.360847 19.75879,-12.2908986 47.4522,-12.2908986 7.15673,0 15.24694,1.089067 8.24579,1.0890669 14.93577,3.2672008 4.35627,1.244648 4.35627,6.2232398 0,4.045106 -3.11162,7.623469 -2.95604,3.578363 -7.00114,3.578363 -1.24465,0 -1.86697,-0.155581 -8.09022,-1.866972 -13.84671,-2.644877 -5.7565,-0.933486 -12.13532,-0.933486 -19.75879,0 -33.60549,9.646021 -13.84671,9.490441 -20.69228,25.204121 -6.84556,15.713681 -6.84556,33.916657 0,13.224389 5.13417,20.536689 5.28976,7.15673 13.69113,7.15673 9.49044,0 16.64717,-7.77905 7.15672,-7.77905 13.0688,-25.204123 5.91208,-17.425071 11.66857,-47.296622 0.93349,-4.356268 3.73395,-5.912078 2.80046,-1.55581 7.46789,-1.55581 11.04625,0 11.04625,7.156726 0,1.244648 -0.46675,3.11162 -4.0451,15.091356 -7.46788,33.449914 -3.26721,18.202976 -3.26721,27.693413 0,8.40138 2.4893,12.2909 2.4893,3.73395 7.62347,3.73395 4.97859,0 9.49044,-3.26721 4.51185,-3.42278 11.35741,-11.51299 1.86697,-2.17813 4.20069,-2.17813 2.02255,0 3.11162,1.86697 1.24465,1.86697 1.24465,5.13417 0,6.06766 -2.95604,9.64602 -7.62347,9.17928 -14.93578,14.00229 -7.3123,4.82301 -17.89181,4.82301 -10.89067,0 -17.58065,-6.22324 -6.68999,-6.37882 -8.40138,-17.89181 -11.51299,24.11505 -33.91665,24.11505 z"
       style="font-family:Pacifico;-inkscape-font-specification:Pacifico;fill:#ffffff;fill-opacity:1"
       id="path918" />
    <path
       d="m 504.80178,5.5917743 q 4.82301,0.933486 7.15672,3.2672009 2.4893,2.3337148 2.4893,5.4453348 0,5.134173 -2.95604,7.467888 -2.80046,2.333715 -9.0237,1.866972 -14.00229,-1.089067 -21.93692,-1.400229 -7.77905,-0.466743 -20.53669,-0.622324 -5.7565,28.626902 -10.57951,57.564967 -1.71139,10.579508 -3.57836,24.581796 -1.86697,13.84671 -2.4893,22.40366 -0.31116,4.51185 -3.73394,7.00115 -3.42278,2.33371 -8.24579,2.33371 -5.13418,0 -7.93463,-2.48929 -2.80046,-2.4893 -2.80046,-6.5344 0,-3.73395 1.08907,-12.2909 1.24464,-8.71254 2.80045,-18.202978 1.71139,-9.490441 2.64488,-16.491586 1.71139,-11.824155 3.88953,-23.49273 2.17813,-11.668574 4.35626,-22.092501 0.46675,-2.333715 1.08907,-5.289754 0.62232,-3.11162 1.40023,-6.845563 -15.24694,0.466743 -23.95947,2.489296 -8.71254,2.022552 -12.44648,5.756496 -3.57837,3.578363 -3.57837,9.33486 0,5.289754 3.11162,10.112765 0.62233,1.089066 0.62233,2.333714 0,2.956039 -3.57837,5.600916 -3.42278,2.489296 -7.15672,2.489296 -2.64488,0 -4.35627,-1.55581 -3.11162,-2.644877 -5.13417,-7.467888 -2.02255,-4.978591 -2.02255,-11.201831 0,-13.224385 8.55695,-21.159015 8.71254,-8.090212 26.29319,-11.8241558 17.73623,-3.7339438 45.42965,-3.7339438 17.11391,0 27.22667,0.622324 10.26835,0.6223239 17.89182,2.0225529 z"
       style="font-family:Pacifico;-inkscape-font-specification:Pacifico;fill:#ffffff;fill-opacity:1"
       id="path920" />
  </g>
  <path
     style="fill:none;stroke:#000000;stroke-width:2.1125;stroke-linecap:butt;stroke-linejoin:miter;stroke-miterlimit:4;stroke-dasharray:none;stroke-opacity:1"
     d="m 549.30413,8.45 v 118.3"
     id="path18149" />
  <g
     aria-label="powered by"
     id="text1605"
     style="font-size:19.7562px;line-height:1.25;letter-spacing:0px;word-spacing:0px;stroke-width:0.493904">
    <path
       d="m 719.45454,16.507702 q 1.95586,0 3.14123,1.363178 1.20513,1.363178 1.20513,4.10929 0,2.7066 -1.20513,4.10929 -1.18537,1.40269 -3.16099,1.40269 -1.22489,0 -2.03489,-0.454393 -0.79025,-0.474148 -1.24464,-1.086591 h -0.11854 q 0.0395,0.335856 0.079,0.849517 0.0395,0.513661 0.0395,0.889029 v 4.346364 H 714.4167 V 16.705264 h 1.42245 l 0.23707,1.442203 h 0.079 q 0.47415,-0.691467 1.24464,-1.165616 0.77049,-0.474149 2.05465,-0.474149 z m -0.3161,1.461959 q -1.62001,0 -2.29172,0.908786 -0.65196,0.908785 -0.69147,2.765868 v 0.335855 q 0,1.955864 0.6322,3.022699 0.65195,1.047078 2.3905,1.047078 0.96805,0 1.58049,-0.533417 0.6322,-0.533417 0.92855,-1.442203 0.31609,-0.928541 0.31609,-2.113913 0,-1.817571 -0.71122,-2.904162 -0.69147,-1.086591 -2.15342,-1.086591 z"
       style="font-weight:300;font-family:Poppins;-inkscape-font-specification:'Poppins weight=255'"
       id="path919" />
    <path
       d="m 735.77315,21.98017 q 0,2.627575 -1.34342,4.069777 -1.32366,1.442203 -3.59563,1.442203 -1.40269,0 -2.50904,-0.632198 -1.08659,-0.651955 -1.71879,-1.876839 -0.63219,-1.244641 -0.63219,-3.002943 0,-2.627575 1.32366,-4.050021 1.32367,-1.422447 3.59563,-1.422447 1.4422,0 2.52879,0.651955 1.10635,0.632199 1.71879,1.857083 0.6322,1.205128 0.6322,2.96343 z m -8.00126,0 q 0,1.876839 0.73098,2.983186 0.75074,1.086591 2.37074,1.086591 1.60026,0 2.35099,-1.086591 0.75074,-1.106347 0.75074,-2.983186 0,-1.876839 -0.75074,-2.943674 -0.75073,-1.066835 -2.37074,-1.066835 -1.62001,0 -2.35099,1.066835 -0.73098,1.066835 -0.73098,2.943674 z"
       style="font-weight:300;font-family:Poppins;-inkscape-font-specification:'Poppins weight=255'"
       id="path921" />
    <path
       d="m 744.95977,21.308459 q -0.25683,-0.810004 -0.45439,-1.580496 -0.17781,-0.790248 -0.27659,-1.224884 h -0.079 q -0.079,0.434636 -0.25683,1.224884 -0.1778,0.770492 -0.45439,1.600252 l -1.89659,5.946617 h -1.97563 l -2.90416,-10.589324 h 1.79782 l 1.46196,5.650274 q 0.21731,0.849516 0.41488,1.718789 0.19756,0.869273 0.27658,1.442203 h 0.079 q 0.079,-0.335856 0.1778,-0.829761 0.11854,-0.493905 0.25683,-1.027322 0.1383,-0.553174 0.27659,-0.98781 l 1.87684,-5.966373 h 1.8966 l 1.81757,5.966373 q 0.21731,0.671711 0.41488,1.461959 0.21731,0.790248 0.29634,1.363178 h 0.079 q 0.0593,-0.493905 0.25684,-1.363178 0.21731,-0.869273 0.45439,-1.778058 l 1.48171,-5.650274 h 1.77806 l -2.94367,10.589324 h -2.03489 z"
       style="font-weight:300;font-family:Poppins;-inkscape-font-specification:'Poppins weight=255'"
       id="path923" />
    <path
       d="m 757.74202,16.507702 q 1.36317,0 2.33123,0.592686 0.98781,0.592687 1.50147,1.679278 0.53342,1.066834 0.53342,2.509037 v 1.047079 h -7.25053 q 0.0395,1.797814 0.90879,2.746112 0.88903,0.928541 2.46952,0.928541 1.00757,0 1.77806,-0.177806 0.79025,-0.197562 1.62001,-0.553173 v 1.521227 q -0.81001,0.355612 -1.60025,0.513661 -0.79025,0.177806 -1.87684,0.177806 -1.50147,0 -2.66709,-0.612442 -1.14586,-0.612442 -1.79781,-1.817571 -0.6322,-1.224884 -0.6322,-2.983186 0,-1.738546 0.57293,-2.983186 0.59268,-1.244641 1.63976,-1.916352 1.06684,-0.671711 2.46953,-0.671711 z m -0.0198,1.422447 q -1.24464,0 -1.97562,0.810004 -0.71122,0.790248 -0.84952,2.212695 h 5.39345 q -0.0198,-1.343422 -0.6322,-2.173182 -0.61244,-0.849517 -1.93611,-0.849517 z"
       style="font-weight:300;font-family:Poppins;-inkscape-font-specification:'Poppins weight=255'"
       id="path925" />
    <path
       d="m 769.73401,16.507702 q 0.29634,0 0.6322,0.03951 0.35561,0.01976 0.61244,0.07902 l -0.21732,1.600252 q -0.25683,-0.05927 -0.57293,-0.09878 -0.29634,-0.03951 -0.57293,-0.03951 -0.81,0 -1.52122,0.454392 -0.71123,0.434637 -1.14586,1.244641 -0.41488,0.790248 -0.41488,1.857083 v 5.650273 h -1.73855 V 16.705264 h 1.42245 l 0.19756,1.936108 h 0.079 q 0.51367,-0.869273 1.32367,-1.501471 0.81,-0.632199 1.91635,-0.632199 z"
       style="font-weight:300;font-family:Poppins;-inkscape-font-specification:'Poppins weight=255'"
       id="path927" />
    <path
       d="m 776.64864,16.507702 q 1.36318,0 2.33123,0.592686 0.98781,0.592687 1.50147,1.679278 0.53342,1.066834 0.53342,2.509037 v 1.047079 h -7.25053 q 0.0395,1.797814 0.90879,2.746112 0.88903,0.928541 2.46953,0.928541 1.00756,0 1.77805,-0.177806 0.79025,-0.197562 1.62001,-0.553173 v 1.521227 q -0.81,0.355612 -1.60025,0.513661 -0.79025,0.177806 -1.87684,0.177806 -1.50147,0 -2.66709,-0.612442 -1.14586,-0.612442 -1.79781,-1.817571 -0.6322,-1.224884 -0.6322,-2.983186 0,-1.738546 0.57293,-2.983186 0.59269,-1.244641 1.63976,-1.916352 1.06684,-0.671711 2.46953,-0.671711 z m -0.0198,1.422447 q -1.24464,0 -1.97562,0.810004 -0.71122,0.790248 -0.84951,2.212695 h 5.39344 q -0.0198,-1.343422 -0.6322,-2.173182 -0.61244,-0.849517 -1.93611,-0.849517 z"
       style="font-weight:300;font-family:Poppins;-inkscape-font-specification:'Poppins weight=255'"
       id="path929" />
    <path
       d="m 787.45526,27.49215 q -1.97562,0 -3.16099,-1.363178 -1.18537,-1.382934 -1.18537,-4.10929 0,-2.726355 1.18537,-4.109289 1.20513,-1.402691 3.18075,-1.402691 1.22488,0 1.99538,0.454393 0.79024,0.454393 1.28415,1.106347 h 0.11854 q -0.0198,-0.25683 -0.079,-0.750735 -0.0395,-0.513662 -0.0395,-0.810005 v -4.227827 h 1.73854 v 15.014713 h -1.40269 l -0.25683,-1.422446 h -0.079 q -0.47415,0.67171 -1.2644,1.145859 -0.79025,0.474149 -2.03489,0.474149 z m 0.27659,-1.442203 q 1.67928,0 2.35099,-0.908785 0.69147,-0.928541 0.69147,-2.785624 v -0.316099 q 0,-1.97562 -0.65196,-3.022699 -0.65195,-1.066835 -2.41026,-1.066835 -1.40269,0 -2.11391,1.126104 -0.69147,1.106347 -0.69147,2.983186 0,1.896595 0.69147,2.943674 0.71122,1.047078 2.13367,1.047078 z"
       style="font-weight:300;font-family:Poppins;-inkscape-font-specification:'Poppins weight=255'"
       id="path931" />
    <path
       d="m 802.72677,15.934773 q 0,0.67171 -0.0395,1.264396 -0.0198,0.57293 -0.0593,0.908786 h 0.0988 q 0.45439,-0.671711 1.24464,-1.126104 0.79025,-0.454392 2.03489,-0.454392 1.97562,0 3.16099,1.382934 1.20513,1.363178 1.20513,4.089533 0,2.726356 -1.20513,4.10929 -1.20513,1.382934 -3.16099,1.382934 -1.24464,0 -2.03489,-0.454393 -0.79025,-0.454392 -1.24464,-1.086591 h -0.1383 l -0.35561,1.343422 h -1.24464 V 12.279875 h 1.73855 z m 2.98318,2.034888 q -1.67927,0 -2.33123,0.968054 -0.65195,0.968054 -0.65195,3.002943 v 0.07902 q 0,1.955864 0.6322,3.002943 0.65195,1.027322 2.3905,1.027322 1.42244,0 2.11391,-1.047078 0.71122,-1.047079 0.71122,-3.022699 0,-4.010509 -2.86465,-4.010509 z"
       style="font-weight:300;font-family:Poppins;-inkscape-font-specification:'Poppins weight=255'"
       id="path933" />
    <path
       d="m 811.08363,16.705264 h 1.85708 l 2.29172,6.025642 q 0.29634,0.790248 0.53342,1.521227 0.23707,0.711223 0.35561,1.363178 h 0.079 q 0.11853,-0.493905 0.37536,-1.284153 0.25683,-0.810004 0.53342,-1.620008 l 2.15343,-6.005886 h 1.87684 l -4.56369,12.051283 q -0.55317,1.501471 -1.4422,2.3905 -0.86927,0.889029 -2.41026,0.889029 -0.47414,0 -0.82976,-0.05927 -0.35561,-0.03951 -0.61244,-0.09878 v -1.382934 q 0.21732,0.03951 0.51366,0.07902 0.3161,0.03951 0.65196,0.03951 0.90878,0 1.46196,-0.513661 0.57293,-0.513662 0.88903,-1.363178 l 0.55317,-1.402691 z"
       style="font-weight:300;font-family:Poppins;-inkscape-font-specification:'Poppins weight=255'"
       id="path935" />
  </g>
  <g
     id="g1028"
     style="isolation:isolate"
     transform="matrix(0.30444832,0,0,0.30444832,582.04788,12.675)">
    <g
       id="g1000">
      <g
         id="g970">
        <rect
           x="119.65388"
           y="0.75078303"
           width="34.7286"
           height="34.703159"
           fill="#0087bb"
           id="rect922" />
        <rect
           x="158.2697"
           y="0.75078303"
           width="34.703003"
           height="34.703159"
           fill="#0087bb"
           id="rect924" />
        <rect
           x="196.80872"
           y="0.75078303"
           width="34.780109"
           height="34.703159"
           fill="#91d2e4"
           id="rect926" />
        <rect
           x="235.47603"
           y="0.75078303"
           width="34.753887"
           height="34.703159"
           fill="#91d2e4"
           id="rect928" />
        <rect
           x="274.06592"
           y="0.75078303"
           width="34.780109"
           height="34.703159"
           fill="#6dbd90"
           id="rect930" />
        <path
           d="M 115.81787,0.75078301 V 35.453942 H 81.063355 V 9.7270807 c 0,-4.961251 4.015203,-8.97629769 8.976298,-8.97629769 z"
           fill="#0087bb"
           id="path932" />
        <rect
           x="81.063354"
           y="39.341152"
           width="34.754513"
           height="34.728756"
           fill="#114494"
           id="rect934" />
        <rect
           x="119.65388"
           y="39.341152"
           width="34.7286"
           height="34.728756"
           fill="#0087bb"
           id="rect936" />
        <rect
           x="158.2697"
           y="39.341152"
           width="34.703003"
           height="34.728756"
           fill="#0087bb"
           id="rect938" />
        <rect
           x="196.80872"
           y="39.341152"
           width="34.780109"
           height="34.728756"
           fill="#0087bb"
           id="rect940" />
        <rect
           x="235.47603"
           y="39.341152"
           width="34.753887"
           height="34.728756"
           fill="#0087bb"
           id="rect942" />
        <rect
           x="274.06592"
           y="39.341152"
           width="34.780109"
           height="34.728756"
           fill="#91d2e4"
           id="rect944" />
        <rect
           x="274.06592"
           y="77.956963"
           width="34.780109"
           height="34.754356"
           fill="#91d2e4"
           id="rect946" />
        <rect
           x="274.06592"
           y="116.54733"
           width="34.780109"
           height="34.779797"
           fill="#0087bb"
           id="rect948" />
        <rect
           x="274.06592"
           y="155.16315"
           width="34.780109"
           height="34.754356"
           fill="#0087bb"
           id="rect950" />
        <rect
           x="274.06592"
           y="193.75351"
           width="34.780109"
           height="34.779797"
           fill="#114494"
           id="rect952" />
        <rect
           x="274.06592"
           y="232.36932"
           width="34.780109"
           height="34.754356"
           fill="#114494"
           id="rect954" />
        <path
           d="M 347.43625,9.7270807 V 35.505139 H 312.68206 V 0.75078301 h 25.7779 c 4.9614,0 8.97629,4.01504669 8.97629,8.97629769 z"
           fill="#3eab38"
           id="path956" />
        <path
           d="m 347.43625,232.36933 v 25.77805 c 0,4.93566 -4.01489,8.9763 -8.97629,8.9763 h -25.7779 v -34.75435 z"
           fill="#114494"
           id="path958" />
        <rect
           x="312.68207"
           y="193.80472"
           width="34.7542"
           height="34.7286"
           fill="#0087bb"
           id="rect960" />
        <rect
           x="312.68207"
           y="155.21434"
           width="34.7542"
           height="34.703159"
           fill="#91d2e4"
           id="rect962" />
        <rect
           x="312.68207"
           y="116.59853"
           width="34.7542"
           height="34.779797"
           fill="#91d2e4"
           id="rect964" />
        <rect
           x="312.68207"
           y="77.956963"
           width="34.7542"
           height="34.754356"
           fill="#91d2e4"
           id="rect966" />
        <rect
           x="312.68207"
           y="39.341152"
           width="34.7542"
           height="34.779797"
           fill="#6dbd90"
           id="rect968" />
      </g>
      <rect
         x="81.063354"
         y="56.731052"
         width="210.39262"
         height="210.39262"
         fill="#010101"
         mix-blend-mode="multiply"
         opacity="0.3"
         id="rect972" />
      <g
         id="g988">
        <path
           d="M 270.21026,77.941208 V 337.25566 c 0,6.00985 -4.8843,10.89431 -10.89368,10.89431 H 10.895965 c -6.0349786,0 -10.89430424,-4.88446 -10.89430424,-10.89431 V 88.835357 c 0,-6.009693 4.85932564,-10.894149 10.89430424,-10.894149 z"
           fill="url(#d)"
           id="path974"
           style="fill:url(#d)" />
        <g
           opacity="0.7"
           id="g986">
          <path
             d="m 229.23992,149.29097 c -4.16817,-8.79726 -14.01419,-13.45164 -22.7089,-17.54333 -1.17628,-0.56269 -2.32696,-1.09964 -3.45266,-1.66233 -6.46953,-3.14549 -14.03917,-0.10224 -18.33595,4.09184 -3.93841,3.83601 -6.62312,9.4366 -8.00418,16.64832 -2.42998,12.81216 0.0762,25.18977 6.8535,33.98703 5.83082,7.56979 14.83271,11.89171 23.52743,11.89171 3.09428,0 6.13737,-0.5627 9.00189,-1.68794 8.03041,-3.17108 14.34697,-10.8431 16.46914,-20.02403 1.86681,-8.02994 0.66493,-17.15967 -3.35027,-25.70127 z m -0.38335,24.83186 c -1.84121,7.9789 -7.26245,14.60233 -14.14218,17.3387 -9.23166,3.65698 -21.30224,-0.20447 -28.07957,-8.97614 -6.11178,-7.92786 -8.33696,-19.20567 -6.11178,-30.94394 1.20188,-6.41896 3.52884,-11.35461 6.9047,-14.62793 2.48055,-2.4295 6.26537,-4.27087 9.8966,-4.27087 1.40666,0 2.78772,0.28143 4.09199,0.89516 1.12508,0.56254 2.27639,1.09964 3.45267,1.66218 8.13217,3.83602 17.33823,8.18353 20.89329,15.72772 3.65682,7.77427 4.7563,16.00899 3.09428,23.19512 z"
             fill="#ffffff"
             id="path976" />
          <path
             d="m 270.2086,261.12368 v 3.83601 c -47.84778,-0.40926 -59.76477,-12.4288 -71.29841,-24.09028 -4.34736,-4.39855 -8.46496,-8.56704 -14.52553,-11.86611 -12.14738,-6.67462 -22.0702,-9.3598 -30.02318,-11.53348 -15.44645,-4.16848 -25.62463,-6.93046 -34.49853,-32.06918 -6.49575,-18.3873 2.14777,-39.25515 12.37714,-52.6556 10.56215,-13.80971 20.91889,-39.869038 22.09579,-54.803832 h 3.83601 c -1.1257,16.980637 -12.78671,43.909532 -22.86311,57.130952 -9.64124,12.60768 -17.79901,32.09462 -11.8402,49.04981 8.20897,23.24631 16.62273,25.52239 31.88999,29.66527 8.15777,2.19928 18.31035,4.96125 30.8673,11.84051 6.57192,3.58018 11.07349,8.13233 15.42085,12.53088 10.97047,11.09894 22.32555,22.55578 68.56188,22.96505 z"
             fill="#ffffff"
             id="path978" />
          <path
             d="m 270.2086,302.39907 v 3.91281 c -1.40604,0.28127 -3.22165,0.69037 -5.19085,1.15083 -9.89722,2.27592 -25.85501,5.9841 -42.37535,5.9841 -19.41045,0 -39.56201,-5.11469 -51.32604,-23.65542 -18.74552,-29.56288 -40.91748,-29.86975 -64.36811,-30.17662 -11.227089,-0.15343 -22.837524,-0.30686 -34.447336,-3.63138 -10.050182,-2.73637 -17.748432,-9.4878 -22.223782,-19.51253 -6.802307,-15.24182 -5.523635,-37.15827 3.171704,-54.57377 3.937784,-7.85106 8.797109,-14.70472 13.477246,-21.35374 13.962991,-19.69157 27.133056,-38.3091 19.384233,-82.602142 h 3.912809 c 7.723225,45.443872 -6.444553,65.442312 -20.15156,84.827012 -4.62894,6.52119 -9.385873,13.24702 -13.17069,20.84225 -8.234568,16.44385 -9.487641,37.05603 -3.119883,51.27485 3.989605,8.95069 10.81751,14.96039 19.742611,17.38989 11.150288,3.19668 22.50474,3.35012 33.475838,3.50355 23.45063,0.30687 47.69419,0.63934 67.5648,31.96678 20.27955,31.96679 68.86906,20.76561 89.58378,15.9834 2.50615,-0.5627 4.52655,-1.023 6.06058,-1.32987 z"
             fill="#ffffff"
             id="path980" />
          <path
             d="M 20.765922,169.92875 C 12.505131,178.52138 3.964006,187.36984 0,196.62741 v -8.08113 C 4.6545385,181.10432 11.405648,174.09723 18.003792,167.26917 24.115567,160.92685 29.869588,154.96836 33.47584,149.18874 46.7227,127.93723 46.7227,109.11522 46.748299,80.626387 v -2.685179 h 3.836014 v 2.685179 c -0.0256,28.105173 -0.0256,48.410473 -13.860598,70.582593 -3.810415,6.13769 -9.692428,12.24977 -15.957793,18.71977 z"
             fill="#ffffff"
             id="path982" />
          <path
             d="m 148.17228,348.14997 h -3.93778 c -2.35318,-8.82287 -15.44645,-22.42795 -29.61423,-30.30445 -13.42605,-7.44196 -26.698505,-7.39076 -40.789488,-7.39076 -9.718027,0.0256 -19.717636,0.0256 -29.971981,-2.53174 C 34.038381,305.49351 13.298057,298.99791 0,285.46947 v -5.70282 c 12.224173,14.88375 34.600921,21.89084 44.779095,24.44819 9.794822,2.4295 19.563422,2.40391 29.026089,2.40391 13.988589,-0.0256 28.386126,-0.0512 42.656296,7.87665 14.27018,7.9277 29.48624,22.70922 31.7108,33.65457 z"
             fill="#ffffff"
             id="path984" />
        </g>
      </g>
      <g
         id="g998">
        <polygon
           points="246.55401,125.25357 270.21026,125.25357 270.21026,101.59746 270.21026,77.941208 246.55401,77.941208 222.89775,77.941208 222.89775,101.59746 246.55401,101.59746 "
           fill="#ffffff"
           id="polygon990" />
        <polygon
           points="128.37572,101.59746 128.37572,77.941208 104.71961,77.941208 81.063355,77.941208 81.063355,101.59746 81.063355,125.25372 104.71961,125.25372 104.71961,101.59746 "
           fill="#ffffff"
           id="polygon992" />
        <polygon
           points="246.55401,219.81132 270.21026,219.81132 270.21026,243.46743 270.21026,267.12368 246.55401,267.12368 222.89775,267.12368 222.89775,243.46743 246.55401,243.46743 "
           fill="#ffffff"
           id="polygon994" />
        <polygon
           points="128.37572,243.46743 128.37572,267.12368 104.71961,267.12368 81.063355,267.12368 81.063355,243.46743 81.063355,219.81118 104.71961,219.81118 104.71961,243.46743 "
           fill="#ffffff"
           id="polygon996" />
      </g>
    </g>
    <g
       id="g1026"
       transform="matrix(0.6666674,0,0,0.6666674,142.85148,88.351489)">
      <g
         id="g1008">
        <path
           d="m 513.61065,103.23133 h 32.84096 v 19.69015 c -4.2536,4.00683 -17.36363,14.1337 -41.01565,14.1337 -32.20731,0 -54.70287,-23.9657 -54.70287,-58.280995 0,-33.891815 23.09365,-58.491168 54.912,-58.491168 16.61915,0 30.18089,5.311771 41.4569,16.239588 l 1.54334,1.494197 13.87543,-14.4087 -1.44505,-1.485832 C 553.03695,13.859748 535.09404,0 505.22474,0 461.51556,0 428.5554,33.865674 428.5554,78.774185 c 0,45.401005 32.0672,78.352795 76.249,78.352795 25.67008,0 45.28599,-7.76166 61.73574,-24.42578 l 0.61692,-0.62632 V 84.00126 h -53.54641 z"
           fill="#010811"
           id="path1002" />
        <path
           d="m 643.01082,37.89551 c -31.98146,0 -55.19432,25.248686 -55.19432,60.036601 0,34.852739 23.99499,59.194869 58.3521,59.194869 30.06588,0 43.65899,-19.01258 47.10746,-24.83984 l 0.99125,-1.673 -14.26649,-10.42383 -1.25684,1.76188 c -5.26576,7.36956 -15.15319,16.15489 -32.36416,16.15489 -21.69461,0 -36.08031,-13.60984 -37.16357,-34.87575 h 87.52083 l 0.19448,-1.92813 c 0.14639,-1.467008 0.22168,-3.238295 0.22168,-5.26576 0,-34.776413 -21.75735,-58.14193 -54.14242,-58.14193 z m -32.81378,48.631978 c 2.10589,-17.275802 15.85166,-30.033462 32.81378,-30.033462 18.28797,0 30.8961,11.708899 32.65066,30.033462 z"
           fill="#010811"
           id="path1004" />
        <path
           d="m 773.23494,37.89551 c -33.86777,0 -59.40609,25.629293 -59.40609,59.61626 0,34.54324 24.89422,59.61521 59.19487,59.61521 33.86777,0 59.40609,-25.62929 59.40609,-59.61521 0,-33.986967 -25.4484,-59.61626 -59.19487,-59.61626 z m 38.06908,59.61626 c 0,23.27873 -16.09843,40.17497 -38.2803,40.17497 -22.29061,0 -37.85786,-16.52086 -37.85786,-40.17497 0,-23.27873 15.92067,-40.174971 37.85786,-40.174971 22.18187,0 38.2803,16.896241 38.2803,40.174971 z"
           fill="#010811"
           id="path1006" />
      </g>
      <g
         id="g1024">
        <polygon
           points="449.89032,280.7804 495.28544,280.7804 495.28544,261.12894 449.89032,261.12894 449.89032,216.35845 522.82284,216.35845 522.82284,196.49578 428.5554,196.49578 428.5554,348.14997 522.82284,348.14997 522.82284,328.49851 449.89032,328.49851 "
           fill="#010811"
           id="polygon1010" />
        <path
           d="m 598.7194,231.65489 c -13.27106,0 -24.0389,6.2957 -30.4904,13.81479 v -11.07839 h -20.70336 v 113.75868 h 20.91457 v -68.66928 c 0,-16.9778 10.56081,-28.38451 26.27863,-28.38451 14.42961,0 23.75449,10.14987 23.75449,25.85828 v 71.19551 h 20.91457 v -70.56395 c 0,-28.33118 -15.58398,-45.93113 -40.6685,-45.93113 z"
           fill="#010811"
           id="path1012" />
        <path
           d="m 756.10047,247.86102 c -5.69238,-6.41491 -17.50793,-16.20613 -36.59685,-16.20613 -32.24914,0 -54.77397,24.60144 -54.77397,59.82643 0,34.97717 22.61057,59.40504 54.98519,59.40504 18.52218,0 29.93413,-9.15966 35.75407,-15.76801 v 3.31149 c 0,26.89555 -22.7967,30.91179 -36.38563,30.91179 -16.53132,0 -29.51797,-7.28695 -31.95218,-8.74769 l -2.06406,-1.23802 -7.65606,16.95479 1.59144,0.99021 c 11.00415,6.84675 26.82026,11.27078 40.28999,11.27078 37.88296,0 57.09107,-19.42037 57.09107,-57.72159 v -96.45882 h -20.28301 z m -35.33373,3.23516 c 20.80373,0 35.33373,16.6066 35.33373,40.38514 0,23.53073 -14.35642,39.9648 -34.9113,39.9648 -20.80374,0 -35.33373,-16.43407 -35.33373,-39.9648 0,-23.40107 14.68265,-40.38514 34.9113,-40.38514 z"
           fill="#010811"
           id="path1014" />
        <rect
           x="806.72333"
           y="234.39128"
           width="20.914574"
           height="113.75867"
           fill="#010811"
           id="rect1016" />
        <path
           d="m 911.4593,231.65489 c -13.27106,0 -24.0389,6.2957 -30.4904,13.81479 v -11.07839 h -20.70336 v 113.75868 h 20.91458 v -68.66928 c 0,-16.9778 10.5608,-28.38451 26.27862,-28.38451 14.42962,0 23.75449,10.14987 23.75449,25.85828 v 71.19551 h 20.91458 v -70.56395 c 0,-28.33118 -15.58399,-45.93113 -40.66851,-45.93113 z"
           fill="#010811"
           id="path1018" />
        <path
           d="m 1030.6082,231.65489 c -31.98149,0 -55.19434,25.24869 -55.19434,60.0366 0,34.85274 23.99498,59.19487 58.35214,59.19487 30.0658,0 43.6589,-19.01258 47.1074,-24.83984 l 0.9913,-1.673 -14.2665,-10.42383 -1.2569,1.76188 c -5.2657,7.36956 -15.1532,16.15489 -32.3641,16.15489 -21.6946,0 -36.08033,-13.60984 -37.1636,-34.87575 h 87.5208 l 0.1945,-1.92813 c 0.1464,-1.46701 0.2217,-3.2383 0.2217,-5.26576 0,-34.77641 -21.7574,-58.14193 -54.1424,-58.14193 z m -32.81381,48.63198 c 2.10589,-17.2758 15.85171,-30.03346 32.81381,-30.03346 18.2879,0 30.8961,11.7089 32.6506,30.03346 z"
           fill="#010811"
           id="path1020" />
        <rect
           x="806.63702"
           y="194.81232"
           width="21.23349"
           height="21.233431"
           fill="#010811"
           id="rect1022" />
      </g>
    </g>
  </g>
</svg>
