<?xml version="1.0" encoding="UTF-8" standalone="no"?>
<svg
   xmlns:dc="http://purl.org/dc/elements/1.1/"
   xmlns:cc="http://creativecommons.org/ns#"
   xmlns:rdf="http://www.w3.org/1999/02/22-rdf-syntax-ns#"
   xmlns:svg="http://www.w3.org/2000/svg"
   xmlns="http://www.w3.org/2000/svg"
   xmlns:sodipodi="http://sodipodi.sourceforge.net/DTD/sodipodi-0.dtd"
   xmlns:inkscape="http://www.inkscape.org/namespaces/inkscape"
   viewBox="0 0 140 140"
   version="1.1"
   id="svg8"
   sodipodi:docname="cogs.svg"
   width="140"
   height="140"
   inkscape:version="0.92.4 (5da689c313, 2019-01-14)">
  <metadata
     id="metadata14">
    <rdf:RDF>
      <cc:Work
         rdf:about="">
        <dc:format>image/svg+xml</dc:format>
        <dc:type
           rdf:resource="http://purl.org/dc/dcmitype/StillImage" />
        <dc:title></dc:title>
      </cc:Work>
    </rdf:RDF>
  </metadata>
  <defs
     id="defs12" />
  <sodipodi:namedview
     pagecolor="#ffffff"
     bordercolor="#666666"
     borderopacity="1"
     objecttolerance="10"
     gridtolerance="10"
     guidetolerance="10"
     inkscape:pageopacity="0"
     inkscape:pageshadow="2"
     inkscape:window-width="2560"
     inkscape:window-height="1381"
     id="namedview10"
     showgrid="false"
     fit-margin-top="0"
     fit-margin-left="0"
     fit-margin-right="0"
     fit-margin-bottom="0"
     inkscape:zoom="2.597239"
     inkscape:cx="69.681057"
     inkscape:cy="30.988763"
     inkscape:window-x="0"
     inkscape:window-y="0"
     inkscape:window-maximized="1"
     inkscape:current-layer="svg8" />
  <g
     transform="rotate(-45,-784.20514,508.22271)"
     id="g6">
    <path
       d="m 80.594,756.96 c -1.4336,0.11093 -3.2466,0.73862 -5.5938,2.0938 -15.022,8.6728 6.6103,12.666 -2.0625,27.688 -8.6728,15.022 -22.938,-1.7207 -22.938,15.625 0,17.3457 14.265,0.60321 22.938,15.625 8.673,15.02179 -12.959,19.015 2.0625,27.688 15.0215,8.673 7.6543,-12.062 25,-12.062 17.3457,0 9.9782,20.735 25,12.062 15.0218,-8.673 -6.6103,-12.666 2.0625,-27.688 8.6728,-15.022 22.938,1.7207 22.938,-15.625 0,-17.3457 -14.265,-0.60321 -22.938,-15.625 -8.673,-15.02179 12.959,-19.015 -2.0625,-27.688 -15.0215,-8.673 -7.6543,12.062 -25,12.062 -14.635,0 -11.665,-14.755 -19.406,-14.156 z M 100,782.366 c 11.046,0 20,8.9543 20,20 0,11.0457 -8.9543,20 -20,20 -11.0457,0 -20,-8.9543 -20,-20 0,-11.0457 8.9543,-20 20,-20 z"
       id="path2"
       inkscape:connector-curvature="0" />
    <path
       d="m 145.84,780.15 c -0.88956,0.60965 -1.8317,1.6972 -2.8481,3.4576 -6.5046,11.266 9.0432,5.7478 9.0432,18.757 0,13.0092 -15.544,7.484 -9.039,18.75 6.505,11.266 9.4914,-4.9574 20.758,1.5472 11.2666,6.5046 -1.2868,17.21 11.722,17.21 13.0088,0 0.4482,-10.705 11.715,-17.21 11.2668,-6.505 14.257,9.7262 20.761,-1.5402 6.504,-11.2664 -9.0432,-5.7478 -9.0432,-18.757 0,-13.0092 15.544,-7.484 9.039,-18.75 -6.505,-11.266 -9.4914,4.9574 -20.758,-1.5472 -11.2666,-6.5046 1.2868,-17.21 -11.722,-17.21 -13.0088,0 -0.4482,10.705 -11.715,17.21 -9.506,5.4883 -13.11,-5.2096 -17.913,-1.9174 z m 22.132,9.2245 c 7.1744,-4.1421 16.348,-1.684 20.49,5.4904 4.142,7.1744 1.684,16.348 -5.4904,20.49 -7.1744,4.142 -16.348,1.684 -20.49,-5.4904 -4.142,-7.1744 -1.684,-16.348 5.4904,-20.49 z"
       id="path4"
       inkscape:connector-curvature="0" />
  </g>
</svg>
