<?xml version="1.0" encoding="UTF-8"?><svg id="b" xmlns="http://www.w3.org/2000/svg" width="123.277940421920817mm" height="123.265303759506281mm" viewBox="0 0 349.449285184355176 349.41346472342957"><g id="c"><g><g><rect x="120.346143221171587" width="34.929970539718852" height="34.904380702671915" fill="#fff"/><rect x="159.185864074699566" width="34.904223709814687" height="34.904380702671915" fill="#fff"/><rect x="197.948344438560525" width="34.981778185210715" height="34.904380702671915" fill="#fff"/><rect x="236.839872937578548" width="34.955403383864905" height="34.904380702671915" fill="#fff"/><rect x="275.653532975486087" width="34.981778185210715" height="34.904380702671915" fill="#fff"/><path d="M116.487886567128953,0V34.904380702671915h-34.956031355310188V9.028345689301204c0-4.990018218948535,4.03848446322263-9.028345689301204,9.028345689295747-9.028345689301204h25.92768566601444Z" fill="#fff"/><rect x="81.531855211818765" y="38.814131016479223" width="34.956031355310188" height="34.930127532592451" fill="#fff"/><rect x="120.346143221171587" y="38.814131016479223" width="34.929970539718852" height="34.930127532592451" fill="#fff"/><rect x="159.185864074699566" y="38.814131016479223" width="34.904223709814687" height="34.930127532592451" fill="#fff"/><rect x="197.948344438560525" y="38.814131016479223" width="34.981778185210715" height="34.930127532592451" fill="#fff"/><rect x="236.839872937578548" y="38.814131016479223" width="34.955403383864905" height="34.930127532592451" fill="#fff"/><rect x="275.653532975486087" y="38.814131016479223" width="34.981778185210715" height="34.930127532592451" fill="#fff"/><rect x="275.653532975486087" y="77.653851870007202" width="34.981778185210715" height="34.955874362465693" fill="#fff"/><rect x="275.653532975486087" y="116.467982886515529" width="34.981778185210715" height="34.981464199485345" fill="#fff"/><rect x="275.653532975486087" y="155.307703740039869" width="34.981778185210715" height="34.955874362465693" fill="#fff"/><rect x="275.653532975486087" y="194.121834756548196" width="34.981778185210715" height="34.981464199459879" fill="#fff"/><rect x="275.653532975486087" y="232.961555610050709" width="34.981778185210715" height="34.955874362463874" fill="#fff"/><path d="M349.449285184355176,9.028345689301204v25.927528673139022h-34.955717369619379V0h25.927371680296346c4.990175211794849,0,9.028345689323032,4.038327470352669,9.028345689323032,9.028345689301204Z" fill="#fff"/><path d="M349.449285184355176,232.961555610050709v25.927528673164488c0,4.964271389051646-4.038170477528183,9.028345689299385-9.028345689323032,9.028345689299385h-25.927371680296346v-34.955874362463874h34.955717369619379Z" fill="#fff"/><rect x="314.493567814735798" y="194.173328416316508" width="34.955717369619379" height="34.929970539691567" fill="#fff"/><rect x="314.493567814735798" y="155.359197399811819" width="34.955717369619379" height="34.904380702693743" fill="#fff"/><rect x="314.493567814735798" y="116.51947654628384" width="34.955717369619379" height="34.981464199488983" fill="#fff"/><rect x="314.493567814735798" y="77.653851870007202" width="34.955717369619379" height="34.955874362465693" fill="#fff"/><rect x="314.493567814735798" y="38.814131016479223" width="34.955717369619379" height="34.981464199488983" fill="#fff"/></g><g><path d="M115.283203125,318.93336218436707c-13.503662109375-7.485107421875-26.85302734375-7.43359375-41.02587890625-7.43359375-9.7744140625,.0257568359375-19.83203125,.0257568359375-30.145751953125-2.5465087890625-9.876953125-2.443359375-30.736083984375-8.976318359375-44.111572265625-22.58203125v52.0848388671875c0,6.044677734375,4.8876953125,10.9573974609375,10.95751953125,10.9573974609375H145.0693359375c-2.366943359375-8.8740234375-15.5361328125-22.557861328125-29.7861328125-30.4801025390625Z" fill="#fff"/><path d="M224.188720703125,267.91743200858582v-9.2333984375c-11.708740234375-4.62774658203125-17.97265625-10.95086669921875-24.126708984375-17.173095703125-4.37255859375-4.424072265625909-8.51416015625-8.616760253907159-14.60986328125-11.934936523438409-12.2177734375-6.71331787109375-22.197998046875-9.4140625-30.197265625-11.600341796875-15.535888671875-4.19268798828125-25.77294921875-6.97064208984375-34.698486328125-32.255126953125-6.533447265625-18.49395751953125,2.160400390625-39.4827880859375,12.448974609375-52.9609375,10.623291015625-13.8897705078125,21.0400390625-40.1002197265625,22.223876953125-55.12158203125h-26.110595703125v23.79339599609375h-23.79345703125v23.79339599609375h-15.2001953125c-4.0625,15.69537353515625-11.927001953125,26.81201171875-19.648681640625,37.7320556640625-4.65576171875,6.55902099609375-9.440185546875,13.3238525390625-13.2470703125,20.96307373046875-8.2822265625,16.53924560546875-9.542724609375,37.27093505859375-3.137939453125,51.57220458984375,4.0126953125,9.002563476563409,10.88037109375,15.047119140625909,19.85693359375,17.490722656250909,2.519775390625,.72235107421875,5.050048828125,1.283447265625,7.58349609375,1.73150634765625v-34.383789062500909h23.79345703125v23.793395996094659h23.79345703125v13.540771484375c16.44921875,2.2171630859375,32.52197265625,9.02569580078125,46.456298828125,30.99407958984375,20.397216796875,32.152099609375,69.268310546875,20.885986328125,90.103271484375,16.076171875,2.5205078125-.5660400390625,4.552734375-1.029052734375,6.095703125-1.337646484375v3.935546875c-1.414306640625,.2828369140625-3.240478515625,.6943359375-5.22119140625,1.157470703125-9.95458984375,2.2890625-26.0048828125,6.018798828125-42.620849609375,6.018798828125-19.523193359375,0-39.79150390625-5.144287109375-51.623779296875-23.7926025390625-12.9951171875-20.4940185546875-27.62744140625-27.008056640625-43.189453125-29.17938232421875v6.3802490234375h-47.5869140625v-9.27044677734375c-2.86669921875-.4840087890625-5.7392578125-1.11187744140625-8.612060546875-1.9344482421875-10.1083984375-2.75225830078125-17.851318359375-9.5428466796875-22.3525390625-19.625671386719659-6.841796875-15.3302001953125-5.5556640625-37.37371826171875,3.190185546875-54.89019775390625,3.96044921875-7.8966064453125,8.84814453125-14.78997802734375,13.55517578125-21.47760009765625,7.60302734375-10.72216796875,14.964599609375-21.136474609375,18.888427734375-35.4942626953125h-4.669189453125v-47.5867919921875h-30.65576171875v2.70074462890625c-.025634765625,28.26812744140625-.025634765625,48.691162109375-13.94091796875,70.9918212890625-3.83251953125,6.17327880859375-9.74853515625,12.32080078125-16.05029296875,18.82830810546875-8.3076171875,8.641357421875-16.89697265625,17.53997802734375-20.884765625,26.84991455078125v83.626831054688409c12.29541015625,14.96875,34.80029296875,22.015869140625,45.037109375,24.5880126953125,9.8515625,2.443603515625,19.677001953125,2.4178466796875,29.194580078125,2.4178466796875,14.069580078125-.0257568359375,28.550537109375-.051513671875,42.903564453125,7.92236328125,14.35302734375,7.9736328125,29.6572265625,22.8408203125,31.89453125,33.849609375h111.788818359375c6.044189453125,0,10.956787109375-4.9127197265625,10.956787109375-10.9573974609375v-70.53863525390625h-47.586669921875Z" fill="#fff"/><path d="M18.106689453125,167.48389929374116c6.147216796875-6.37908935546875,11.9345703125-12.37213134765625,15.561767578125-18.18524169921875,13.32373046875-21.374755859375,13.32373046875-40.305908203125,13.349365234375-68.95989990234375v-2.70074462890625H10.95751953125c-6.06982421875,0-10.95751953125,4.91278076171875-10.95751953125,10.957275390625v100.28662109375c4.681396484375-7.484130859375,11.470947265625-14.5311279296875,18.106689453125-21.39801025390625Z" fill="#fff"/><path d="M206.055419921875,135.22877234061616c-1.18310546875-.5657958984375-2.341064453125-1.10601806640625-3.47265625-1.67181396484375-1.311767578125-.6173095703125-2.700927734375-.90032958984375-4.11572265625-.90032958984375-3.65234375,0-7.459228515625,1.85205078125-9.9541015625,4.29559326171875-3.395263671875,3.29229736328125-5.73583984375,8.256591796875-6.944580078125,14.7127685546875-2.23828125,11.80633544921875,0,23.1495361328125,6.14697265625,31.12335205078125,6.81689453125,8.82257080078125,18.957275390625,12.70635986328125,28.242431640625,9.0281982421875,6.919677734375-2.75225830078125,12.372314453125-9.4140625,14.224365234375-17.439208984375,1.671630859375-7.22784423828125,.565673828125-15.51031494140625-3.1123046875-23.32965087890625-3.57568359375-7.58795166015625-12.835205078125-11.96063232421875-21.014404296875-15.81890869140625Z" fill="#fff"/><path d="M247.98193359375,101.43140905936616h-23.793212890625v-23.79339599609375h-65.101318359375c-1.132080078125,17.0791015625-12.86083984375,44.16412353515625-22.99560546875,57.46221923828125-9.697265625,12.6807861328125-17.90234375,32.28070068359375-11.90869140625,49.33416748046875,8.25634765625,23.381103515625,16.718994140625,25.67041015625,32.07470703125,29.8372802734375,8.205078125,2.2120361328125,18.41650390625,4.99005126953125,31.04638671875,11.9091796875,6.60986328125,3.6009521484375,11.1376953125,8.17950439453125,15.51025390625,12.60357666015625,5.5517578125,5.616943359375909,11.20654296875,11.323547363282159,21.374267578125,15.661376953125909v-10.32183837890625h23.793212890625v-23.793273925782159h23.79345703125V125.22468298514741h-23.79345703125v-23.79327392578125Zm-14.044677734375,73.82037353515625c-2.134521484375,9.234130859375-8.487548828125,16.95062255859375-16.564697265625,20.14013671875-2.881103515625,1.1317138671875-5.94189453125,1.69769287109375-9.053955078125,1.69769287109375-8.7451171875,0-17.79931640625-4.34698486328125-23.663818359375-11.96063232421875-6.816650390625-8.8482666015625-9.33740234375-21.29766845703125-6.893310546875-34.18414306640625,1.38916015625-7.2535400390625,4.08935546875-12.8865966796875,8.050537109375-16.74481201171875,4.32177734375-4.21844482421875,11.935302734375-7.279296875,18.4423828125-4.1156005859375,1.13232421875,.56597900390625,2.28955078125,1.10601806640625,3.47265625,1.6719970703125,8.7451171875,4.11541748046875,18.648193359375,8.7967529296875,22.840576171875,17.64501953125,4.038330078125,8.59112548828125,5.247314453125,17.7738037109375,3.36962890625,25.850341796875Z" fill="#fff"/></g></g></g></svg>