<?xml version="1.0" encoding="UTF-8"?><svg xmlns="http://www.w3.org/2000/svg" width="625.266320995406204mm" height="123.265328217130062mm" xmlns:xlink="http://www.w3.org/1999/xlink" viewBox="0 0 1772.408495582260912 349.413534052127943"><defs><linearGradient id="d" x1="15.713468357498641" y1="353.625447993257694" x2="214.25669406894275" y2="122.157968771900244" gradientUnits="userSpaceOnUse"><stop offset="0" stop-color="#3daa37"/><stop offset="1" stop-color="#d8e290"/></linearGradient></defs><g isolation="isolate"><g id="b"><g id="c"><g><g><g><rect x="120.347678983550395" width="34.929970539719761" height="34.904380702671006" fill="#0087bb"/><rect x="159.187399837078374" width="34.904223709814687" height="34.904380702671006" fill="#0087bb"/><rect x="197.949880200939333" width="34.981778185210715" height="34.904380702671006" fill="#91d2e4"/><rect x="236.841408699957356" width="34.955403383866724" height="34.904380702671006" fill="#91d2e4"/><rect x="275.655068737864895" width="34.981778185210715" height="34.904380702671006" fill="#6dbd90"/><path d="M116.48942232950958,0V34.904380702671006h-34.956031355311097V9.028345689301204c0-4.990018218947625,4.038484463221721-9.028345689301204,9.028345689295747-9.028345689301204h25.92768566601535Z" fill="#0087bb"/><rect x="81.533390974198483" y="38.814131016481042" width="34.956031355311097" height="34.930127532590632" fill="#114494"/><rect x="120.347678983550395" y="38.814131016481042" width="34.929970539719761" height="34.930127532590632" fill="#0087bb"/><rect x="159.187399837078374" y="38.814131016481042" width="34.904223709814687" height="34.930127532590632" fill="#0087bb"/><rect x="197.949880200939333" y="38.814131016481042" width="34.981778185210715" height="34.930127532590632" fill="#0087bb"/><rect x="236.841408699957356" y="38.814131016481042" width="34.955403383866724" height="34.930127532590632" fill="#0087bb"/><rect x="275.655068737864895" y="38.814131016481042" width="34.981778185210715" height="34.930127532590632" fill="#91d2e4"/><rect x="275.655068737864895" y="77.653851870008111" width="34.981778185210715" height="34.955874362465693" fill="#91d2e4"/><rect x="275.655068737864895" y="116.467982886514619" width="34.981778185210715" height="34.981464199486254" fill="#0087bb"/><rect x="275.655068737864895" y="155.307703740041688" width="34.981778185210715" height="34.955874362465693" fill="#0087bb"/><rect x="275.655068737864895" y="194.121834756548196" width="34.981778185210715" height="34.981464199460788" fill="#114494"/><rect x="275.655068737864895" y="232.9615556100498" width="34.981778185210715" height="34.955874362464783" fill="#114494"/><path d="M349.450820946735803,9.028345689301204v25.927528673140841h-34.955717369619379V0h25.927371680296346c4.99017521179303,0,9.028345689323032,4.038327470353579,9.028345689323032,9.028345689301204Z" fill="#3eab38"/><path d="M349.450820946735803,232.9615556100498v25.927528673165398c0,4.964271389051646-4.038170477530002,9.028345689299385-9.028345689323032,9.028345689299385h-25.927371680296346v-34.955874362464783h34.955717369619379Z" fill="#114494"/><rect x="314.495103577116424" y="194.173328416317418" width="34.955717369619379" height="34.929970539691567" fill="#0087bb"/><rect x="314.495103577116424" y="155.359197399813638" width="34.955717369619379" height="34.904380702693743" fill="#91d2e4"/><rect x="314.495103577116424" y="116.519476546285659" width="34.955717369619379" height="34.981464199487164" fill="#91d2e4"/><rect x="314.495103577116424" y="77.653851870008111" width="34.955717369619379" height="34.955874362465693" fill="#91d2e4"/><rect x="314.495103577116424" y="38.814131016481042" width="34.955717369619379" height="34.981464199486254" fill="#6dbd90"/></g><rect x="81.533390974198483" y="56.304863116226443" width="211.612566856286321" height="211.61256685628814" fill="#010101" mix-blend-mode="multiply" opacity=".3"/><g><path d="M271.777043027592299,77.638004418426135V338.456060035784503c0,6.044696287065563-4.912620736430654,10.95747401634344-10.956846044869962,10.95747401634344H10.959144403083883C4.889172264744957,349.413534052127943,.001670386737715,344.500756322850066,.001670386737715,338.456060035784503V88.59532144187051c0-6.044539294163769,4.887501878007242-10.957317023444375,10.957474016346168-10.957317023444375H271.777043027592299Z" fill="url(#d)"/><g opacity=".7"><path d="M230.56914133796181,149.401483987834581c-4.19233747108774-8.848274872965703-14.095447405040431-13.529645119015186-22.840577965611374-17.645056086184013-1.183098231804252-.565959278878836-2.340449633713433-1.10601473501174-3.472682177218303-1.671974013892395-6.507040274933388-3.16372021859388-14.120566263472938-.102830326690309-18.442265855446749,4.115567960022418-3.961243973579258,3.858256654035358-6.661521254239233,9.491317648660697-8.050594125128555,16.744858997402844-2.444064924728082,12.886445350462964,.076612518194452,25.335822564360569,6.893242723223921,34.184097437351738,5.864625470702777,7.613682981414968,14.918717989897232,11.960658424663052,23.663848550473631,11.960658424663052,3.11222655882284,0,6.172959457878278-.565959278878836,9.054092519195365-1.697720843787465,8.076968926472546-3.189467048469851,14.430156193564471-10.905980356552391,16.564631188191925-20.140143692082347,1.877634667251186-8.076497947877215,.668789605575512-17.25916762363704-3.36969485767986-25.850288183493831Zm-.385574476818874,24.97583792459136c-1.851887837347022,8.025161280981592-7.304564029914218,14.686996520944376-14.224181554449387,17.439238439971632-9.285186016709304,3.678185837705314-21.425758264860633-.20566065336152-28.242388469861908-9.028188696449433-6.147212628005946-7.973824614084151-8.385302913652595-19.317030100099146-6.147212628005946-31.123364538324495,1.208845061703869-6.456174586606721,3.549294695416393-11.420445975656548,6.944736382991323-14.712743350816709,2.494930613027464-2.443593946127294,6.301693607296329-4.29563877635519,9.953975622252074-4.29563877635519,1.414819700789849,0,2.803892571674623,.283058135878491,4.115724952893288,.90035408165204,1.131604572033211,.565802286033431,2.289583945418599,1.106014735014469,3.472682177217393,1.671817021042443,8.179328274576619,3.858256654040815,17.438767461380849,8.230978927188517,21.014436958136685,15.818915078701139,3.678028844859909,7.819343634748293,4.783886586997141,16.10181622170694,3.112226558826478,23.329610740578573Z" fill="#fff"/><path d="M271.77537264082639,261.882633063766662v3.858256654038087c-48.125220855955376-.411635292442043-60.111312124764481-12.500870873671374-71.711828916786544-24.229964822225156-4.372565280268645-4.424058940071518-8.51403706306246-8.616710396883718-14.609756031272809-11.934911594791629-12.217812737793793-6.713328899734734-22.198163161418051-9.414077158995497-30.197263626774657-11.600359799145735-15.536013935701703-4.19265145681311-25.773204686702229-6.970640205737254-34.698563056459534-32.255126103205839-6.533415076277379-18.49391650808775,2.16022182452798-39.482763629200235,12.448906235298637-52.960915088441652,10.62339319927105-13.889786751708925,21.040183788008108-40.100216567850111,22.223909991288565-55.121607891568601h3.858256654040815c-1.132232543509417,17.079096807302449-12.86085551346423,44.164133875225161-22.995686916402519,57.462214518155633-9.697135294871259,12.680784697129639-17.902210399310206,32.28071594022822-11.90885077916937,49.334222910508288,8.256568764214535,23.381104400346885,16.719112167505045,25.670374360039204,32.074898294025843,29.837278986951787,8.205075104438038,2.212029470048037,18.416519025542584,4.990018218949444,31.04628104150288,11.909164764919296,6.610027594468193,3.600945348036475,11.137701825527984,8.179485267414748,15.510267105825733,12.60354420745989,11.034086534512426,11.163291662551273,22.455003488797047,22.686567964902679,68.959430004882961,23.098203257345631Z" fill="#fff"/><path d="M271.77537264082639,303.39735534664942v3.935497143686916c-1.414191729312734,.282901143025811-3.240332736787423,.694379442596983-5.220954723582508,1.157508394808247-9.954603593723732,2.289112966815992-26.004926155657813,6.018792464289618-42.621051003621687,6.018792464289618-19.523004739179669,0-39.791411602102016-5.144342205385328-51.623649863073297-23.792582699910781-18.854215133613252-29.734291667436992-41.154737643092631-30.042939640310578-64.741345703922889-30.351587613213269-11.292182804842923-.154323986433155-22.969940086503811-.308647972897234-34.647069396692132-3.652439007831163-10.108456601588841-2.752241919027256-17.851344711009915-9.542811308404453-22.352644140726625-19.625678072970913-6.841749063425596-15.330196289492051-5.555663512073806-37.373721478695188,3.190095019941509-54.890200408336568,3.960616002135794-7.896584124417132,8.848117880113932-14.789983840487366,13.555391948912074-21.477565910350677,14.043953745269391-19.805748889308234,27.290383735557043-38.53122987347524,19.496629937837497-83.081095218394694h3.935497143678731c7.76800696785358,45.707373739697687-6.481921416501791,65.821770601908611-20.268406862922347,85.318871518315063-4.655780409021645,6.55900491329885-9.44029496746225,13.323827472802805-13.247057961732025,20.963100291241062-8.282315594109605,16.539198344044053-9.542654315556319,37.270891152029435-3.137973388721548,51.572156203279519,4.012737633350298,9.002598859423415,10.880233526675511,15.047138153615379,19.857085556226593,17.490732099745401,11.214942315176813,3.215213878364921,22.635231297979772,3.369537864828999,33.669945803969313,3.523861851264883,23.586608060830258,.308647972899962,47.970739876642256,.643042775673166,67.956559582288719,32.152138783666487,20.397141012360407,32.152138783664668,69.268391963530121,20.886016794445823,90.103229083929364,16.07606939183006,2.520677442922533-.565959278876107,4.55279308948775-1.028931238214682,6.095718968211258-1.337579211119191Z" fill="#fff"/><path d="M20.886330780170283,170.158923625714124c-8.308690395458143,8.642457226752413-16.899339976719602,17.542225759511894-20.886330780170283,26.853472591840728v-8.127991607645527c4.681527238898525-7.485105824848688,11.471782642579456-14.532829527383001,18.108185038395277-21.400482413556347,6.147212627977751-6.379091089836948,11.934597609037155-12.372136724256961,15.561760765568579-18.18526853518506,13.323670479954671-21.374735583684014,13.323670479954671-40.30587722121254,13.349417309827004-68.959900983510124v-2.700748259231659h3.858256654044453v2.700748259231659c-.025746829871423,28.26813529975243-.025746829871423,48.691180134862407-13.940966425734587,70.991859637194466-3.83250982413665,6.173273443601829-9.748628954637752,12.320800057334054-16.050322561930443,18.828311310861864Z" fill="#fff"/><path d="M149.031442976894141,349.413534052127943h-3.960616002134884c-2.366824435056515-8.874021702858954-15.536013935697156-22.557990808335489-29.785942320051618-30.48016476977682-13.503898289141034-7.485105824843231-26.853315598967129-7.43361216507401-41.026003493650023-7.43361216507401-9.774375784542826,.025746829896889-19.831966697809548,.025746829896889-30.145769967008164-2.546424272796685-9.877363104053074-2.443593946127294-30.737947054351025-8.976852029551992-44.113111194049452-22.583737638233288v-5.735891321290183c12.295053227436256,14.970054656821048,34.801550376000705,22.01777835935718,45.038741127001231,24.589949462051663,9.85161627418529,2.443593946124565,19.676857747017493,2.417847116229495,29.194393204155858,2.417847116229495,14.069700575169009-.02574682987597,28.550722457031952-.05149365977104,42.903638160925766,7.922330954312201,14.352915703897452,7.973667621182358,29.657208170612648,22.840891951338563,31.894670484811286,33.849702634577625Z" fill="#fff"/></g></g><g><polygon points="247.98362161112982 77.638004418426135 224.190200194717363 77.638004418426135 224.190200194717363 101.431425834836773 247.98362161112982 101.431425834836773 247.98362161112982 125.224700790564384 271.777043027592299 125.224700790564384 271.777043027592299 101.431425834836773 271.777043027592299 77.638004418426135 247.98362161112982 77.638004418426135" fill="#fff"/><polygon points="81.533390974198483 101.431425834836773 81.533390974198483 125.224847251274696 105.326812390637315 125.224847251274696 105.326812390637315 101.431425834836773 129.12008734633946 101.431425834836773 129.12008734633946 77.638004418426135 105.326812390637315 77.638004418426135 81.533390974198483 77.638004418426135 81.533390974198483 101.431425834836773" fill="#fff"/><polygon points="247.98362161112982 267.917429972514583 224.190200194717363 267.917429972514583 224.190200194717363 244.124008556101217 247.98362161112982 244.124008556101217 247.98362161112982 220.330733600371786 271.777043027592299 220.330733600371786 271.777043027592299 244.124008556101217 271.777043027592299 267.917429972514583 247.98362161112982 267.917429972514583" fill="#fff"/><polygon points="81.533390974198483 244.124008556101217 81.533390974198483 220.330587139664203 105.326812390637315 220.330587139664203 105.326812390637315 244.124008556101217 129.12008734633946 244.124008556101217 129.12008734633946 267.917429972514583 105.326812390637315 267.917429972514583 81.533390974198483 267.917429972514583 81.533390974198483 244.124008556101217" fill="#fff"/></g></g><g><g><path d="M529.304874338965419,202.170393235782285h39.446655270208794v23.65066114981073c-5.109175803594553,4.812773274182291-20.856188150060007,16.976580466360247-49.265617028442648,16.976580466360247-38.6855538599375,0-65.705909867430819-28.786211754749274-65.705909867430819-70.003746543904526,0-40.708877906051384,27.738755358438539-70.256191071071953,65.957098451679485-70.256191071071953,19.961956790140903,0,36.251536478580419,6.380190039883928,49.795624941200913,19.506049509730474l1.853771751744716,1.794742434448381,16.666362564817973-17.306893454645433-1.735713117152955-1.78469489107647c-9.655689178470311-9.924460963616184-31.207669706893284-26.571984384611824-67.084935194950049-26.571984384611824-52.500925993543206,0-92.09075875677172,40.677479333022347-92.09075875677172,94.618971857226825,0,54.533041640109332,38.517257508491639,94.112826859969573,91.585869702436867,94.112826859969573,30.833398716365082,0,54.394887918772838-9.322864304341238,74.153381955673467-29.338826640094339l.741006323526562-.752309809821782v-57.743231746789206h-64.316836996540587v23.098046264469303Z" fill="#010811"/><path d="M684.732834613717387,123.69279980229112c-38.414270188952287,0-66.296203040409637,30.327253719109649-66.296203040409637,72.112474708662376,0,41.863089450667758,28.821378156540959,71.101440657064813,70.089150662546672,71.101440657064813,36.113382757243926,0,52.4406407333272-22.836810136852364,56.582740487569026-29.836180036904807l1.190633889333185-2.009508673979326-17.136085217360232-12.52049498181168-1.50964339132679,2.116263822285873c-6.324928551345693,8.85188570887658-18.201124814563627,19.404318133110792-38.873945298124454,19.404318133110792-26.05830372982291,0-43.337566440201954-16.347353062821639-44.638723306601605-41.890720194936875h105.124934393370495l.233605383349641-2.31595874676259c.175832008975704-1.762087918494217,.266259899306533-3.889655227068943,.266259899306533-6.324928551347512,0-41.771405617420896-26.13366030510133-69.836706135381064-65.032724461652833-69.836706135381064Zm-39.414000754257358,58.41390526673149c2.529469043372046-20.750688944675858,19.040094685950862-36.074448526688684,39.414000754257358-36.074448526688684,21.966441692436092,0,37.110601436711477,14.064048832009576,39.218073658546018,36.074448526688684h-78.632074412803377Z" fill="#010811"/><path d="M841.150477910408881,123.69279980229112c-40.679991218864416,0-71.355141127158277,30.784416942439748-71.355141127158277,71.607585654324794,0,41.491330345983442,29.901489068811316,71.606329711402395,71.101440657067542,71.606329711402395,40.679991218868054,0,71.355141127157367-30.784416942437929,71.355141127157367-71.606329711402395,0-40.823168711885046-30.567138817063096-71.607585654324794-71.101440657066632-71.607585654324794Zm45.726369876395438,71.607585654324794c0,27.961057255497508-19.336497215363124,48.255838919765665-45.980070346486173,48.255838919765665-26.774191194926971,0-45.472669406305613-19.843898155543684-45.472669406305613-48.255838919765665,0-27.961057255499327,19.122986918752758-48.255838919765665,45.472669406305613-48.255838919765665,26.643573131123048,0,45.980070346486173,20.294781664266338,45.980070346486173,48.255838919765665Z" fill="#010811"/></g><g><polygon points="1009.851242976797039 182.699510127845315 1064.377223717057859 182.699510127845315 1064.377223717057859 159.09531886611785 1009.851242976797039 159.09531886611785 1009.851242976797039 105.319610807518984 1097.453554646514021 105.319610807518984 1097.453554646514021 81.461719075698056 984.224983611881726 81.461719075698056 984.224983611881726 263.619912543141254 1097.453554646514021 263.619912543141254 1097.453554646514021 240.015721281413789 1009.851242976797039 240.015721281413789 1009.851242976797039 182.699510127845315" fill="#010811"/><path d="M1188.616083161227834,123.69279980229112c-15.940427556340182,0-28.874127759237126,7.562032328766691-36.623295583275649,16.593517875382531v-13.306715250503657h-24.867669840485178v136.640310115971261h25.121370310575912v-82.48153946639286c0-20.392745212123373,12.685023504498531-34.093826539898146,31.564357496531557-34.093826539898146,17.332012313066116,0,28.532511284661268,12.191437936445254,28.532511284661268,31.059468442186699v85.515897564104307h25.12137031058046v-84.757308039674172c0-34.029773450914945-18.718573298115189-55.169804701175963-48.84864397858837-55.169804701175963Z" fill="#010811"/><path d="M1377.653076008283278,143.158659138542134c-6.837353263219484-7.70520982178823-21.029508273193642-19.465859336251015-43.958002243295596-19.465859336251015-38.73579157678796,0-65.791313986073874,29.549825050864456-65.791313986073874,71.86003018149222,0,42.012546658296742,27.158509728828903,71.353885184234969,66.045014456164608,71.353885184234969,22.247772906790487,0,35.955133949171795-11.002059990035377,42.945712248774726-18.939619252253578v3.977571231559523c0,32.305363820053572-27.382067568803905,37.129440580526534-43.704301773204861,37.129440580526534-19.856457584751297,0-35.455268666520169-8.752666218100785-38.379103787155145-10.507218479068797l-2.479231326525223-1.487036418745447-9.196014069293597,20.365114467857893,1.911545126123201,1.189377946411696c13.217543303093407,8.223914248258552,32.214935929727289,13.537808748013049,48.39399264109943,13.537808748013049,45.502812036416799,0,68.574483499536655-23.326627876135717,68.574483499536655-69.331817081043482V126.979602427169993h-24.362780786150324v16.179056711372141Zm-42.440823194439872,3.885887398308114c24.988240360931741,0,42.440823194439872,19.946885475084855,42.440823194439872,48.508283446933092,0,28.263739499518124-17.244096308584631,48.003394392598238-41.933422254258403,48.003394392598238-24.988240360931741,0-42.440823194439872-19.739654893080115-42.440823194439872-48.003394392598238,0-28.108002577282605,17.635950500007311-48.508283446933092,41.933422254258403-48.508283446933092Z" fill="#010811"/><rect x="1438.458296597046683" y="126.979602427169993" width="25.12137031058046" height="136.640310115971261" fill="#010811"/><path d="M1564.26107524566487,123.69279980229112c-15.940427556335635,0-28.874127759236217,7.562032328766691-36.623295583271101,16.593517875382531v-13.306715250503657h-24.867669840490635v136.640310115971261h25.121370310582279v-82.48153946639286c0-20.392745212123373,12.685023504493074-34.093826539898146,31.56435749652519-34.093826539898146,17.332012313072482,0,28.532511284662178,12.191437936445254,28.532511284662178,31.059468442186699v85.515897564104307h25.12137031058046v-84.757308039674172c0-34.029773450914945-18.718573298114279-55.169804701175963-48.84864397858837-55.169804701175963Z" fill="#010811"/><path d="M1707.375771120613535,123.69279980229112c-38.414270188952287,0-66.296203040414184,30.327253719109649-66.296203040414184,72.112474708662376,0,41.863089450667758,28.821378156544597,71.101440657064813,70.089150662552129,71.101440657064813,36.113382757248473,0,52.440640733322653-22.836810136852364,56.582740487563569-29.836180036904807l1.190633889331366-2.009508673979326-17.136085217352957-12.52049498181168-1.5096433913277,2.116263822285873c-6.324928551352059,8.85188570887658-18.201124814564537,19.404318133110792-38.873945298124454,19.404318133110792-26.058303729827458,0-43.337566440206501-16.347353062821639-44.638723306605243-41.890720194936875h105.124934393374133l.233605383349641-2.31595874676259c.175832008970247-1.762087918494217,.266259899301076-3.889655227068943,.266259899301076-6.324928551347512,0-41.771405617420896-26.13366030510042-69.836706135381064-65.032724461647376-69.836706135381064Zm-39.414000754257358,58.41390526673149c2.529469043367499-20.750688944675858,19.040094685949953-36.074448526688684,39.414000754257358-36.074448526688684,21.966441692431545,0,37.11060143670511,14.064048832009576,39.218073658541471,36.074448526688684h-78.632074412798829Z" fill="#010811"/><rect x="1438.354681397398053" y="79.439650972507479" width="25.504432718884345" height="25.504362568754914" fill="#010811"/></g></g></g></g></g></g></svg>