<?xml version="1.0" encoding="UTF-8"?><svg id="b" xmlns="http://www.w3.org/2000/svg" width="625.265736384030902mm" height="123.265327378521519mm" viewBox="0 0 1772.406838416132814 349.413531674969818"><g id="c"><g><g><g><rect x="120.346021817422297" width="34.929970539719761" height="34.904380702671006" fill="#fff"/><rect x="159.185742670950276" width="34.904223709814687" height="34.904380702671006" fill="#fff"/><rect x="197.948223034811235" width="34.981778185210715" height="34.904380702671006" fill="#fff"/><rect x="236.839751533829258" width="34.955403383866724" height="34.904380702671006" fill="#fff"/><rect x="275.653411571736797" width="34.981778185210715" height="34.904380702671006" fill="#fff"/><path d="M116.487765163381482,0V34.904380702671006h-34.956031355311097V9.028345689301204c0-4.990018218947625,4.038484463221721-9.028345689301204,9.028345689295747-9.028345689301204h25.92768566601535Z" fill="#fff"/><rect x="81.531733808070385" y="38.814131016481042" width="34.956031355311097" height="34.930127532590632" fill="#fff"/><rect x="120.346021817422297" y="38.814131016481042" width="34.929970539719761" height="34.930127532590632" fill="#fff"/><rect x="159.185742670950276" y="38.814131016481042" width="34.904223709814687" height="34.930127532590632" fill="#fff"/><rect x="197.948223034811235" y="38.814131016481042" width="34.981778185210715" height="34.930127532590632" fill="#fff"/><rect x="236.839751533829258" y="38.814131016481042" width="34.955403383866724" height="34.930127532590632" fill="#fff"/><rect x="275.653411571736797" y="38.814131016481042" width="34.981778185210715" height="34.930127532590632" fill="#fff"/><rect x="275.653411571736797" y="77.653851870008111" width="34.981778185210715" height="34.955874362465693" fill="#fff"/><rect x="275.653411571736797" y="116.467982886514619" width="34.981778185210715" height="34.981464199486254" fill="#fff"/><rect x="275.653411571736797" y="155.307703740041688" width="34.981778185210715" height="34.955874362465693" fill="#fff"/><rect x="275.653411571736797" y="194.121834756548196" width="34.981778185210715" height="34.981464199460788" fill="#fff"/><rect x="275.653411571736797" y="232.9615556100498" width="34.981778185210715" height="34.955874362465693" fill="#fff"/><path d="M349.449163780607705,9.028345689301204v25.927528673140841h-34.955717369619379V0h25.927371680296346c4.99017521179303,0,9.028345689323032,4.038327470353579,9.028345689323032,9.028345689301204Z" fill="#fff"/><path d="M349.449163780607705,232.9615556100498v25.927528673164488c0,4.964271389053465-4.038170477530002,9.028345689301204-9.028345689323032,9.028345689301204h-25.927371680296346v-34.955874362465693h34.955717369619379Z" fill="#fff"/><rect x="314.493446410988327" y="194.173328416317418" width="34.955717369619379" height="34.929970539691567" fill="#fff"/><rect x="314.493446410988327" y="155.359197399813638" width="34.955717369619379" height="34.904380702693743" fill="#fff"/><rect x="314.493446410988327" y="116.519476546285659" width="34.955717369619379" height="34.981464199487164" fill="#fff"/><rect x="314.493446410988327" y="77.653851870008111" width="34.955717369619379" height="34.955874362465693" fill="#fff"/><rect x="314.493446410988327" y="38.814131016481042" width="34.955717369619379" height="34.981464199486254" fill="#fff"/></g><g><path d="M247.98199462890625,101.431414975751068h-23.79345703125v-23.79339599609375h-65.10113525390625c-1.13226318359375,17.07904052734375-12.86083984375,44.16412353515625-22.9957275390625,57.462158203125-9.69708251953125,12.6807861328125-17.90216064453125,32.28076171875-11.9088134765625,49.334228515625,8.256591796875,23.381103515625,16.7191162109375,25.67041015625,32.07489013671875,29.8372802734375,8.205078125,2.2120361328125,18.41650390625,4.99005126953125,31.0462646484375,11.9091796875,6.61004638671875,3.6009521484375,11.1376953125,8.17950439453125,15.51031494140625,12.60357666015625,5.5518798828125,5.616943359375,11.20654296875,11.32354736328125,21.37420654296875,15.661376953125v-10.32183837890625h23.79345703125v-23.79327392578125h23.79339599609375V125.224688901532318h-23.79339599609375v-23.79327392578125Zm-14.0447998046875,73.8203125c-2.13446044921875,9.23419189453125-8.4876708984375,16.95068359375-16.56463623046875,20.14019775390625-2.881103515625,1.1317138671875-5.94183349609375,1.69769287109375-9.0540771484375,1.69769287109375-8.7451171875,0-17.79925537109375-4.34698486328125-23.66387939453125-11.96063232421875-6.81658935546875-8.84832763671875-9.3372802734375-21.29766845703125-6.89324951171875-34.18414306640625,1.38909912109375-7.2535400390625,4.08935546875-12.8865966796875,8.05059814453125-16.74481201171875,4.32171630859375-4.21844482421875,11.93524169921875-7.279296875,18.4422607421875-4.1156005859375,1.13226318359375,.56597900390625,2.28961181640625,1.10601806640625,3.47271728515625,1.6719970703125,8.7451171875,4.11541748046875,18.64825439453125,8.7967529296875,22.840576171875,17.64501953125,4.0384521484375,8.59112548828125,5.247314453125,17.7738037109375,3.36968994140625,25.85028076171875Z" fill="#fff"/><path d="M224.18853759765625,267.917437924969818v-9.2333984375c-11.70880126953125-4.62774658203125-17.97265625-10.950927734375-24.12664794921875-17.17315673828125-4.37255859375-4.42401123046875-8.5140380859375-8.61669921875-14.6097412109375-11.93487548828125-12.21783447265625-6.71331787109375-22.19818115234375-9.4140625-30.197265625-11.600341796875-15.5360107421875-4.19268798828125-25.773193359375-6.97064208984375-34.69854736328125-32.255126953125-6.533447265625-18.49395751953125,2.16021728515625-39.4827880859375,12.44891357421875-52.9609375,10.62335205078125-13.8897705078125,21.0401611328125-40.1002197265625,22.223876953125-55.12158203125h-26.11065673828125v23.79339599609375h-23.79327392578125v23.79339599609375h-15.200439453125c-4.0625,15.69537353515625-11.92694091796875,26.81201171875-19.6485595703125,37.7320556640625-4.65576171875,6.55902099609375-9.44024658203125,13.32379150390625-13.24700927734375,20.96307373046875-8.2823486328125,16.53924560546875-9.54266357421875,37.27093505859375-3.13800048828125,51.57220458984375,4.01275634765625,9.0025634765625,10.8802490234375,15.047119140625,19.85711669921875,17.49072265625,2.51959228515625,.72235107421875,5.0498046875,1.283447265625,7.58343505859375,1.73150634765625v-34.3837890625h23.79345703125v23.79339599609375h23.79327392578125v13.540771484375c16.44940185546875,2.2171630859375,32.5220947265625,9.02569580078125,46.456298828125,30.994140625,20.39715576171875,32.152099609375,69.2684326171875,20.885986328125,90.103271484375,16.0760498046875,2.5206298828125-.5660400390625,4.55279541015625-1.0289306640625,6.095703125-1.3375244140625v3.9354248046875c-1.4141845703125,.2828369140625-3.2403564453125,.6944580078125-5.220947265625,1.1575927734375-9.95465087890625,2.2890625-26.00494384765625,6.0186767578125-42.62109375,6.0186767578125-19.52301025390625,0-39.7913818359375-5.144287109375-51.62359619140625-23.7926025390625-12.99505615234375-20.49395751953125-27.6275634765625-27.00799560546875-43.18963623046875-29.1793212890625v6.3802490234375h-47.58673095703125v-9.27044677734375c-2.86688232421875-.4840087890625-5.739501953125-1.11187744140625-8.612060546875-1.9344482421875-10.10845947265625-2.75225830078125-17.85137939453125-9.5428466796875-22.3526611328125-19.62567138671875-6.84173583984375-15.3302001953125-5.5556640625-37.37371826171875,3.19012451171875-54.89019775390625,3.9605712890625-7.8966064453125,8.84808349609375-14.78997802734375,13.55535888671875-21.47760009765625,7.60296630859375-10.72216796875,14.964599609375-21.136474609375,18.8883056640625-35.4942626953125h-4.6690673828125v-47.5867919921875h-30.65576171875v2.70074462890625c-.0257568359375,28.26812744140625-.0257568359375,48.691162109375-13.94097900390625,70.9918212890625-3.83251953125,6.17327880859375-9.74859619140625,12.32080078125-16.05029296875,18.82830810546875-8.3076171875,8.641357421875-16.89697265625,17.53997802734375-20.88470458984375,26.84991455078125v83.62689208984375c12.29534912109375,14.968505859375,34.80035400390625,22.015869140625,45.037109375,24.587890625,9.85162353515625,2.443603515625,19.67681884765625,2.41796875,29.19439697265625,2.41796875,14.0697021484375-.02587890625,28.55072021484375-.051513671875,42.90362548828125,7.9222412109375s29.6572265625,22.8409423828125,31.8946533203125,33.8497314453125h111.78875732421875c6.04425048828125,0,10.95684814453125-4.912841796875,10.95684814453125-10.95751953125v-70.53857421875h-47.58685302734375Z" fill="#fff"/><path d="M115.28326416015625,318.933307065594818c-13.50390625-7.485107421875-26.85333251953125-7.43359375-41.0260009765625-7.43359375-9.7744140625,.0257568359375-19.83197021484375,.0257568359375-30.14581298828125-2.54638671875-9.87689208984375-2.4434814453125-30.7362060546875-8.976318359375-44.1114501953125-22.58203125v52.084716796875c0,6.044677734375,4.88751220703125,10.95751953125,10.95751953125,10.95751953125H145.0692138671875c-2.36688232421875-8.8740234375-15.53607177734375-22.5579833984375-29.78594970703125-30.480224609375Z" fill="#fff"/><path d="M206.05523681640625,135.228778257001068c-1.18304443359375-.5657958984375-2.341064453125-1.10601806640625-3.47265625-1.67181396484375-1.31182861328125-.6173095703125-2.700927734375-.90032958984375-4.11572265625-.90032958984375-3.65228271484375,0-7.45904541015625,1.85198974609375-9.9539794921875,4.29559326171875-3.39544677734375,3.29229736328125-5.73590087890625,8.256591796875-6.94476318359375,14.7127685546875-2.238037109375,11.80633544921875,0,23.1495361328125,6.147216796875,31.12335205078125,6.816650390625,8.822509765625,18.95721435546875,12.70635986328125,28.242431640625,9.0281982421875,6.91961669921875-2.75225830078125,12.37225341796875-9.4140625,14.22418212890625-17.43927001953125,1.671630859375-7.227783203125,.5657958984375-15.51025390625-3.11224365234375-23.32958984375-3.57568359375-7.58795166015625-12.8350830078125-11.96063232421875-21.01446533203125-15.81890869140625Z" fill="#fff"/><path d="M18.1065673828125,167.483905210126068c6.147216796875-6.37908935546875,11.9345703125-12.37213134765625,15.56170654296875-18.18524169921875,13.32373046875-21.374755859375,13.32373046875-40.305908203125,13.34942626953125-68.95989990234375v-2.70074462890625H10.95751953125c-6.07000732421875,0-10.95751953125,4.9127197265625-10.95751953125,10.957275390625v100.28662109375c4.68133544921875-7.484130859375,11.47088623046875-14.5311279296875,18.1065673828125-21.39801025390625Z" fill="#fff"/></g></g><g><g><path d="M529.303217172837321,202.170393235782285h39.446655270208794v23.65066114981073c-5.109175803594553,4.812773274182291-20.856188150060007,16.976580466361156-49.265617028442648,16.976580466361156-38.6855538599375,0-65.705909867430819-28.786211754750184-65.705909867430819-70.003746543905436,0-40.708877906051384,27.738755358438539-70.256191071071953,65.957098451679485-70.256191071071953,19.961956790140903,0,36.251536478580419,6.380190039883928,49.795624941200913,19.506049509730474l1.853771751744716,1.794742434448381,16.666362564817973-17.306893454645433-1.735713117152955-1.78469489107647c-9.655689178470311-9.924460963616184-31.207669706893284-26.571984384611824-67.084935194950049-26.571984384611824-52.500925993543206,0-92.09075875677172,40.677479333022347-92.09075875677172,94.618971857226825,0,54.533041640109332,38.517257508491639,94.112826859969573,91.585869702436867,94.112826859969573,30.833398716365082,0,54.394887918772838-9.322864304342147,74.153381955673467-29.338826640094339l.741006323526562-.752309809821782v-57.743231746789206h-64.316836996540587v23.098046264469303Z" fill="#fff"/><path d="M684.731177447589289,123.69279980229112c-38.414270188952287,0-66.296203040409637,30.327253719109649-66.296203040409637,72.112474708662376,0,41.863089450667758,28.821378156540959,71.101440657064813,70.089150662546672,71.101440657064813,36.113382757243926,0,52.4406407333272-22.836810136852364,56.582740487569026-29.836180036904807l1.190633889333185-2.009508673979326-17.136085217360232-12.52049498181168-1.50964339132679,2.116263822285873c-6.324928551345693,8.85188570887658-18.201124814563627,19.404318133110792-38.873945298124454,19.404318133110792-26.05830372982291,0-43.337566440201954-16.347353062821639-44.638723306601605-41.890720194936875h105.124934393370495l.233605383349641-2.31595874676259c.175832008975704-1.762087918494217,.266259899306533-3.889655227068943,.266259899306533-6.324928551347512,0-41.771405617420896-26.13366030510133-69.836706135381064-65.032724461652833-69.836706135381064Zm-39.414000754257358,58.41390526673149c2.529469043372046-20.750688944675858,19.040094685950862-36.074448526688684,39.414000754257358-36.074448526688684,21.966441692436092,0,37.110601436711477,14.064048832009576,39.218073658546018,36.074448526688684h-78.632074412803377Z" fill="#fff"/><path d="M841.148820744280783,123.69279980229112c-40.679991218864416,0-71.355141127158277,30.784416942439748-71.355141127158277,71.607585654324794,0,41.491330345983442,29.901489068811316,71.606329711402395,71.101440657067542,71.606329711402395,40.679991218868054,0,71.355141127157367-30.784416942437929,71.355141127157367-71.606329711402395,0-40.823168711885046-30.567138817063096-71.607585654324794-71.101440657066632-71.607585654324794Zm45.726369876395438,71.607585654324794c0,27.961057255497508-19.336497215363124,48.255838919764756-45.980070346486173,48.255838919764756-26.774191194926971,0-45.472669406305613-19.843898155542774-45.472669406305613-48.255838919764756,0-27.961057255499327,19.122986918752758-48.255838919765665,45.472669406305613-48.255838919765665,26.643573131123048,0,45.980070346486173,20.294781664266338,45.980070346486173,48.255838919765665Z" fill="#fff"/></g><g><polygon points="1009.849585810668941 182.699510127845315 1064.375566550929761 182.699510127845315 1064.375566550929761 159.09531886611785 1009.849585810668941 159.09531886611785 1009.849585810668941 105.319610807518984 1097.451897480385924 105.319610807518984 1097.451897480385924 81.461719075698056 984.223326445753628 81.461719075698056 984.223326445753628 263.619912543140344 1097.451897480385924 263.619912543140344 1097.451897480385924 240.015721281414699 1009.849585810668941 240.015721281414699 1009.849585810668941 182.699510127845315" fill="#fff"/><path d="M1188.614425995099737,123.69279980229112c-15.940427556340182,0-28.874127759237126,7.562032328766691-36.623295583275649,16.593517875382531v-13.306715250503657h-24.867669840485178v136.640310115970351h25.121370310575912v-82.481539466391951c0-20.392745212123373,12.685023504498531-34.093826539898146,31.564357496531557-34.093826539898146,17.332012313066116,0,28.532511284661268,12.191437936445254,28.532511284661268,31.059468442186699v85.515897564103398h25.12137031058046v-84.757308039673262c0-34.029773450914945-18.718573298115189-55.169804701175963-48.84864397858837-55.169804701175963Z" fill="#fff"/><path d="M1377.651418842155181,143.158659138542134c-6.837353263219484-7.70520982178823-21.029508273193642-19.465859336251015-43.958002243295596-19.465859336251015-38.73579157678796,0-65.791313986073874,29.549825050864456-65.791313986073874,71.86003018149222,0,42.012546658296742,27.158509728828903,71.353885184234969,66.045014456164608,71.353885184234969,22.247772906790487,0,35.955133949171795-11.002059990036287,42.945712248774726-18.939619252252669v3.977571231558613c0,32.305363820052662-27.382067568803905,37.129440580525625-43.704301773204861,37.129440580525625-19.856457584751297,0-35.455268666520169-8.752666218100785-38.379103787155145-10.507218479067888l-2.479231326525223-1.487036418746357-9.196014069293597,20.365114467858803,1.911545126123201,1.189377946411696c13.217543303093407,8.223914248257643,32.214935929727289,13.537808748013049,48.39399264109943,13.537808748013049,45.502812036416799,0,68.574483499536655-23.326627876136627,68.574483499536655-69.331817081043482V126.979602427169993h-24.362780786150324v16.179056711372141Zm-42.440823194439872,3.885887398308114c24.988240360931741,0,42.440823194439872,19.946885475084855,42.440823194439872,48.508283446933092,0,28.263739499518124-17.244096308584631,48.003394392597329-41.933422254258403,48.003394392597329-24.988240360931741,0-42.440823194439872-19.739654893079205-42.440823194439872-48.003394392597329,0-28.108002577282605,17.635950500007311-48.508283446933092,41.933422254258403-48.508283446933092Z" fill="#fff"/><rect x="1438.456639430918585" y="126.979602427169993" width="25.12137031058046" height="136.640310115970351" fill="#fff"/><path d="M1564.259418079536772,123.69279980229112c-15.940427556335635,0-28.874127759236217,7.562032328766691-36.623295583271101,16.593517875382531v-13.306715250503657h-24.867669840490635v136.640310115970351h25.121370310582279v-82.481539466391951c0-20.392745212123373,12.685023504493074-34.093826539898146,31.56435749652519-34.093826539898146,17.332012313072482,0,28.532511284662178,12.191437936445254,28.532511284662178,31.059468442186699v85.515897564103398h25.12137031058046v-84.757308039673262c0-34.029773450914945-18.718573298114279-55.169804701175963-48.84864397858837-55.169804701175963Z" fill="#fff"/><path d="M1707.374113954485438,123.69279980229112c-38.414270188952287,0-66.296203040414184,30.327253719109649-66.296203040414184,72.112474708662376,0,41.863089450667758,28.821378156544597,71.101440657064813,70.089150662552129,71.101440657064813,36.113382757248473,0,52.440640733322653-22.836810136852364,56.582740487563569-29.836180036904807l1.190633889331366-2.009508673979326-17.136085217352957-12.52049498181168-1.5096433913277,2.116263822285873c-6.324928551352059,8.85188570887658-18.201124814564537,19.404318133110792-38.873945298124454,19.404318133110792-26.058303729827458,0-43.337566440206501-16.347353062821639-44.638723306605243-41.890720194936875h105.124934393374133l.233605383349641-2.31595874676259c.175832008970247-1.762087918494217,.266259899301076-3.889655227068943,.266259899301076-6.324928551347512,0-41.771405617420896-26.13366030510042-69.836706135381064-65.032724461647376-69.836706135381064Zm-39.414000754257358,58.41390526673149c2.529469043367499-20.750688944675858,19.040094685949953-36.074448526688684,39.414000754257358-36.074448526688684,21.966441692431545,0,37.11060143670511,14.064048832009576,39.218073658541471,36.074448526688684h-78.632074412798829Z" fill="#fff"/><rect x="1438.353024231269956" y="79.439650972507479" width="25.504432718884345" height="25.504362568754914" fill="#fff"/></g></g></g></g></svg>