<?xml version="1.0" encoding="UTF-8"?>
<svg xmlns="http://www.w3.org/2000/svg" xmlns:xlink="http://www.w3.org/1999/xlink" viewBox="0 0 3840 2160">
  <defs>
    <style>
      .cls-1 {
        fill: #0089bd;
      }

      .cls-2 {
        fill: url(#Unbenannter_Verlauf_25);
      }
    </style>
    <radialGradient id="Unbenannter_Verlauf_25" data-name="Unbenannter Verlauf 25" cx="2563.17" cy="444.75" fx="2563.17" fy="444.75" r="1745.75" gradientTransform="translate(-1919 -1068.04) scale(2)" gradientUnits="userSpaceOnUse">
      <stop offset="0" stop-color="#0089bd"/>
      <stop offset="1" stop-color="#104494"/>
    </radialGradient>
  </defs>
  <g id="Ebene_2" data-name="Ebene 2">
    <rect class="cls-2" width="3840" height="2160"/>
  </g>
  <g id="Ebene_1" data-name="Ebene 1">
    <g>
      <path class="cls-1" d="m512.2,1363.23c-20.11,0-43.13-14.86-68.67-44.36-34.17-39.47-65.16-63.99-95.14-87.7-50.92-40.28-94.9-75.07-133.04-170.09l-.02-.04c-.16-.47-16.28-47.36-21.32-101.48-6.7-71.84,9.1-123.76,45.68-150.15,29.68-21.41,60.62-37.54,89.49-46.66,35.12-11.09,66.96-11.99,94.65-2.67,44.48,14.96,77.25,55.96,97.41,121.85,54.84,179.28,54.84,285.8,54.84,356.29,0,25.06-4.32,51.8-11.85,73.38-9.16,26.23-22.43,43.24-38.37,49.18-4.39,1.63-8.94,2.45-13.65,2.45Zm-294.98-302.88c37.93,94.51,81.71,129.14,132.41,169.25,30.05,23.77,61.12,48.35,95.41,87.96,30.92,35.72,57.88,49.63,80.11,41.34,19.42-7.24,30.94-30.08,37.18-47.96,7.46-21.37,11.74-47.88,11.74-72.72,0-70.37,0-176.71-54.75-355.71-19.95-65.24-52.3-105.79-96.13-120.54-70.36-23.67-150.95,26.42-182.33,49.06-25.08,18.09-53.23,58.52-44.86,148.34,4.98,53.42,20.78,99.74,21.21,100.99Z"/>
      <path class="cls-1" d="m2902.66,2075.67c-28.41,0-74.18-4.57-120.03-14.57-82.24-17.95-117.83-42.05-133.2-59.12-12.21-13.54-16.96-28.33-14.12-43.94,2.94-16.18,11.65-29.18,25.9-38.65,53.83-35.8,171.47-10.4,172.65-10.14,1.05.21,107.29,21.46,162.67,34.65,20.85,4.97,42.2,13.42,58.59,23.19,13.47,8.03,30.05,20.83,32.52,36.17,2.01,12.51-5.67,24.21-22.81,34.79-50.81,31.35-77.39,32.88-121.43,35.42-8.45.49-17.18.99-27.02,1.74-3.92.3-8.53.45-13.71.45Zm13.56-2.45l.08,1-.08-1c9.85-.75,18.6-1.25,27.05-1.74,43.72-2.52,70.12-4.05,120.5-35.13,16.39-10.11,23.76-21.14,21.89-32.77-3.95-24.57-49.11-48.08-89.6-57.73-55.34-13.19-161.55-34.43-162.62-34.64-1.19-.26-118.01-25.48-171.13,9.85-13.77,9.16-22.19,21.72-25.03,37.35-2.72,14.97,1.87,29.18,13.64,42.24,15.18,16.84,50.43,40.67,132.14,58.5,54.02,11.79,107.88,16.01,133.16,14.08Z"/>
      <path class="cls-1" d="m3652.48,558.27c-37.52,0-78.3-8.23-112.25-15.08-7.07-1.43-13.82-2.79-20.13-3.99-82.11-15.64-281.13-28.18-387.74-19.99-120.1,9.24-281.57,10.08-297.06-88.84-1.99-56.32,18.47-75.87,168.41-160.97,3.14-2.75,94.48-82.59,119.83-111.84,11.15-12.87,52.33-55.17,114.08-59.29,46.77-3.13,94.32,16.35,141.34,57.88,92.71,72.3,145.17,92.12,145.68,92.32.5.12,60.71,15.58,120.14,48.47,34.94,19.33,62.79,40.82,82.77,63.87,25.04,28.89,37.74,60.31,37.74,93.41,0,36.78-10.6,64.1-31.52,81.22-20.89,17.09-49.95,22.84-81.29,22.84Zm-439.51-43.64c107.25,0,243.19,10.35,307.51,22.61,6.32,1.2,13.07,2.57,20.15,4,61.92,12.5,146.72,29.61,191.88-7.34,20.43-16.72,30.78-43.52,30.78-79.67,0-40.78-20.72-100.87-119.45-155.51-59.2-32.77-119.2-48.18-119.8-48.33-.62-.22-53.32-20.12-146.37-92.69-46.65-41.2-93.7-60.49-139.93-57.42-60.98,4.07-101.68,45.88-112.7,58.6-25.75,29.71-119.16,111.28-120.1,112.1l-.16.12c-149.09,84.62-169.44,103.95-167.49,159.09,15.23,97.17,175.6,96.21,294.92,87.04,23.25-1.79,50.89-2.59,80.75-2.59Z"/>
      <path class="cls-1" d="m3326.67,494.93c-18.68,0-36.45-1.15-52.37-3.49-48.11-7.07-75.43-24.05-79.01-49.08v-.04c-.05-.49-4.6-49.66,25.23-79.37,18.12-18.04,44.96-25.35,79.81-21.73,48.6,5.06,78.68,7.46,98.58,9.05,27.65,2.2,39.09,3.12,58.81,7.76,14.43,3.4,49.32,14.02,61.6,39.26,6.45,13.25,5.73,28.58-2.13,45.55-7.73,16.69-42.94,32.65-94.18,42.7-31.67,6.21-65.25,9.4-96.34,9.4Zm-129.39-52.83c4.36,30.39,44.45,42.53,77.31,47.36,89.97,13.23,225-13.39,240.79-47.47,7.6-16.41,8.33-31.16,2.15-43.84-11.91-24.47-46.11-34.85-60.26-38.18-19.58-4.61-30.18-5.45-58.52-7.71-19.91-1.59-50.01-3.99-98.63-9.05-34.21-3.56-60.51,3.55-78.18,21.14-28.94,28.81-24.78,76.55-24.67,77.74Z"/>
      <path class="cls-1" d="m1612.87,1507.11c-14.35,0-27.22-4.11-38.42-12.29-36.04-26.31-42.97-86.79-43.16-88.47-.5-3.08-29.18-179.58-26.01-226.2l.08-1.19c3.12-46,6.35-93.57,54.32-129.54,1.65-1.24,3.34-2.52,5.05-3.81,24.73-18.69,55.5-41.95,79.89-29.95,26.52,13.05,39.82,64.91,40.66,158.55.46,51.81,2.4,95.7,4.1,134.42,5.52,125.35,8.04,182.56-58.9,196.57-6.09,1.28-11.97,1.91-17.62,1.91Zm17.19-492.74c-20.68,0-44.36,17.9-64.12,32.83-1.71,1.3-3.4,2.57-5.06,3.81-47.23,35.42-50.29,80.43-53.52,128.08l-.08,1.19c-3.17,46.56,25.7,223.98,25.99,225.77v.06c.07.61,6.72,61.08,42.36,87.1,15.13,11.05,33.45,14.42,54.45,10.03,65.27-13.66,62.94-66.61,57.31-194.52-1.71-38.74-3.64-82.65-4.1-134.49-.83-92.81-13.76-144.09-39.54-156.78-4.35-2.14-8.94-3.08-13.68-3.08Z"/>
      <path class="cls-1" d="m684.62,994.14c-10.39-104.11-42.53-192.83-95.53-263.68-54.32-72.62-113.04-105.82-179.52-101.48-55.67,3.63-105.27,33.57-141.49,55.43-9.82,5.93-19.1,11.53-27.05,15.71-52.54,27.6-100.22,26.03-125.83,25.2l-2.88-.09c-25.59-.8-73.54,4.04-112.82,44.15v2.9c36.67-38.47,81.43-45.12,107.91-45.12,1.69,0,3.32.03,4.85.08l2.88.09c25.8.84,73.82,2.42,126.83-25.42,8-4.21,17.31-9.82,27.15-15.76,73.26-44.22,195.87-118.24,318.37,45.53,52.78,70.56,84.79,158.94,95.15,262.69,8.59,86.07.48,164.53-4.36,211.41-1.34,12.96-2.5,24.15-2.98,32.41-1.37,23.29-10.79,64.27-28.75,103.33-15.5,33.71-43.18,78.49-87.04,100.45-49.59,24.83-108.36,15.22-174.66-28.56-175.99-116.22-198.05-160.15-221.41-206.67-4.66-9.27-9.47-18.85-15.56-29.01-16.78-28-45.05-73.21-72.38-116.94-29.64-47.41-60.22-96.35-75.99-123.05v3.92c16.22,27.27,45.7,74.44,74.3,120.19,27.33,43.72,55.58,88.93,72.36,116.91,6.05,10.1,10.85,19.65,15.49,28.88,23.48,46.76,45.66,90.92,222.1,207.44,42.71,28.21,82.36,42.34,118.53,42.34,20.52,0,39.92-4.55,58.12-13.66,44.38-22.22,72.33-67.4,87.96-101.4,18.07-39.29,27.55-80.57,28.93-104.05.48-8.21,1.64-19.39,2.97-32.32,4.85-46.96,12.97-125.54,4.36-211.82Z"/>
      <path class="cls-1" d="m817.29,1254.22c0-.4-.37-43.17-32.01-312.12-14.29-121.48-43.5-216.63-89.29-290.91-38.97-63.21-82.7-99.06-120.33-125.79-73.69-52.34-148.48-29.96-227.66-6.26l-4.14,1.24c-77.57,23.24-133.62,40.02-251.23-3.1-33.1-12.14-64.7-21.16-93.13-27.77v2.05c28.24,6.58,59.6,15.55,92.45,27.6,118.23,43.35,174.55,26.48,252.5,3.14l4.14-1.24c78.7-23.55,153.04-45.8,225.93,5.98,37.47,26.61,81,62.3,119.79,125.21,45,72.99,74.95,170.59,89.01,290.09,31.6,268.61,31.99,311.48,31.99,311.9,0,.87.7,87.91-24.96,179.22-15.06,53.58-36.12,98.11-62.58,132.35-33.03,42.73-74.63,69.46-123.66,79.44-98.23,20.01-181.73,9.41-255.31-32.39-69.27-39.36-119.6-100.55-159.69-155.22-11.88-16.2-24.76-33.98-38.4-52.79-45.77-63.17-100.55-138.77-151.2-200.87v3.15c50.15,61.67,104.29,136.37,149.58,198.89,13.64,18.82,26.52,36.6,38.4,52.8,40.22,54.84,90.71,116.23,160.31,155.78,49.91,28.36,104.34,42.45,164.78,42.44,29.18,0,59.77-3.29,91.91-9.83,49.51-10.09,91.51-37.06,124.84-80.18,26.62-34.44,47.79-79.2,62.92-133.03,25.74-91.58,25.05-178.91,25.04-179.77Z"/>
      <path class="cls-1" d="m917.27,1162.02c-27.88-135.42-18.62-175.56-6.89-226.38l.1-.42c21.17-91.76,2.32-194.9-17.22-265.27-48.69-175.31-115.3-195.88-151.08-206.94-1.96-.6-3.82-1.18-5.57-1.75-6.76-2.2-13.75-3.99-21.14-5.9-28.74-7.4-64.5-16.61-118.56-57.94-67.58-51.68-119.73-41.96-180.89-23.88-60.9,18-182.38,28.15-231.79,31.68-12.55.9-24.72,2.6-36.48,4.24-41.3,5.77-76.96,10.76-110.78-19.98-10.39-9.44-23.5-17.56-37.46-24.46v2.22c13.47,6.73,26.08,14.6,36.12,23.72,34.51,31.37,70.6,26.32,112.4,20.48,11.73-1.64,23.85-3.33,36.34-4.23,49.47-3.53,171.12-13.7,232.21-31.76,60.61-17.92,112.28-27.55,179.11,23.55,54.38,41.58,90.36,50.85,119.27,58.29,7.37,1.9,14.32,3.69,21.03,5.86,1.76.57,3.63,1.15,5.6,1.76,35.42,10.94,101.35,31.3,149.75,205.56,19.48,70.15,38.28,172.94,17.2,264.29l-.1.42c-11.78,51.05-21.09,91.38,6.88,227.23,27.85,135.29,27.85,208.29,0,339.59-29.45,138.85-116.86,221.03-267.22,251.23-89.8,18.04-165.12,27.07-240.86,12.5-89.61-17.24-167.52-67.01-238.18-152.16-18.57-22.38-35.53-43.03-50.48-61.25-52.26-63.65-86.86-105.78-119.08-135.5v2.75c31.76,29.56,66.06,71.33,117.53,134.02,14.96,18.22,31.91,38.87,50.49,61.26,70.96,85.52,149.25,135.52,239.34,152.84,26.31,5.06,52.56,7.29,79.37,7.29,50.69,0,103.38-7.96,162.26-19.79,151.23-30.38,239.14-113.06,268.78-252.77,27.92-131.63,27.92-204.8,0-340.41Z"/>
      <path class="cls-1" d="m1089.28,610.11c-15.23-144.69-186.4-192.2-250.84-210.09-3.63-1.01-6.93-1.92-9.88-2.77-51.89-14.83-108.6-41.69-151.7-71.86-10.51-7.36-19.21-15.32-28.42-23.75-25.56-23.4-51.99-47.61-119.97-60.41-81.79-15.41-153.52,15.12-216.8,42.05-8.23,3.5-16,6.81-23.76,10.01-54.38,22.39-126.07,9.32-219.15-39.96-20.2-10.69-44.75-18.58-69.26-24.37v2.05c24.2,5.75,48.4,13.55,68.32,24.1,93.64,49.58,165.89,62.67,220.85,40.04,7.77-3.2,15.55-6.51,23.79-10.02,63.02-26.82,134.46-57.22,215.65-41.93,67.42,12.7,93.63,36.71,118.99,59.92,9.26,8.48,18,16.48,28.62,23.92,43.27,30.29,100.2,57.26,152.3,72.14,2.95.84,6.26,1.76,9.89,2.77,64.08,17.79,234.3,65.04,249.39,208.37,12.35,117.37-11.01,169.9-29.79,212.11-5.42,12.18-10.53,23.68-14.17,35.49-3.56,11.56-8.79,24.64-14.85,39.78-20.58,51.42-48.77,121.83-33.17,196.72,10.33,49.59,24.12,153.46,29.98,264.35,5.03,95.15,6,229.16-17.97,327.21-44.99,184.06-78.96,251.98-283.22,291.26-98.83,19.01-174.54,17.01-245.5-6.47-65.61-21.71-123.01-58.83-209.75-117.38-110.61-74.66-190.86-123.02-269.35-149.58v2.11c78.1,26.54,158.07,74.76,268.23,149.12,86.89,58.65,144.4,95.83,210.25,117.62,39.23,12.98,79.87,19.43,125.03,19.43,36.92,0,76.86-4.31,121.48-12.89,103.17-19.84,164.2-47.9,204.07-93.83,41.38-47.67,60.29-115.37,80.72-198.92,24.03-98.29,23.06-232.5,18.03-327.79-5.87-111-19.67-214.99-30.02-264.65-15.48-74.29,12.58-144.39,33.07-195.57,6.08-15.18,11.33-28.3,14.91-39.94,3.6-11.7,8.69-23.15,14.08-35.27,18.88-42.43,42.37-95.23,29.95-213.13Z"/>
      <path class="cls-1" d="m3840.5,1731.67c-43.42-28.07-151.76-100.13-189.45-144.1-13.19-15.38-18.29-27.4-15.6-36.74,4.48-15.52,29.58-23.31,61.36-33.16,12.23-3.79,24.88-7.71,37.82-12.52,43.92-16.3,83.98-10.9,105.86-5.47v-2.05c-22.27-5.45-62.51-10.7-106.56,5.65-12.89,4.78-25.51,8.7-37.72,12.48-32.36,10.03-57.91,17.95-62.69,34.51-2.89,10.04,2.34,22.66,16,38.59,38.18,44.54,148.23,117.59,190.97,145.18v-2.38Z"/>
      <path class="cls-1" d="m2303.33,2160c11.66-35.36,72.65-207.15,189.64-317.05,16.49-15.5,31.38-30.01,45.77-44.05,48.75-47.54,87.25-85.08,130.85-102.35,45.54-18.04,96.83-13.54,166.32,14.59,166.21,67.27,203.9,72.03,204.1,72.03.56.16,56.78,16.04,112.28,16.04,67.63,0,130,45.92,171.11,125.98,48.09,93.65,68,132.42-7.68,184.19-25.94,17.75-46.08,35.22-61.19,50.61h2.8c14.86-14.94,34.46-31.81,59.52-48.96,77.13-52.77,55.57-94.76,8.32-186.76-58.89-114.69-140.53-127.07-172.89-127.07-55.21,0-111.17-15.8-111.89-15.99-.36-.04-38.04-4.87-203.74-71.93-70-28.33-121.75-32.84-167.81-14.6-43.97,17.41-82.6,55.08-131.51,102.78-14.39,14.03-29.26,28.54-45.75,44.02-118.01,110.86-179.18,284.41-190.38,318.51h2.1Z"/>
      <path class="cls-1" d="m87.56,1954.9c24.82,26.42,44.67,48.04,60.62,65.42,64.81,70.61,71.58,77.99,119.85,90.86,51.9,13.84,96.59,32.32,119.45,48.81h3.31c-22.47-17.08-68.56-36.43-122.25-50.75-47.71-12.72-54.44-20.06-118.9-90.28-15.95-17.38-35.8-39.01-60.63-65.44-33.76-35.93-63.74-62.39-89.52-81.89v2.48c25.39,19.34,54.88,45.47,88.06,80.79Z"/>
      <path class="cls-1" d="m3840.5,1297.1c-35.43-.26-80.09,3.59-143.08,11.49-30.88,3.87-65.87,8.26-105.24,12.63-129.84,14.43-333.29-46.63-394.33-69.16-30.14-11.12-124.5-10.12-158.06,9.29-2.29,1.33-4.96,2.81-7.92,4.47-40.79,22.78-136.32,76.12-132.58,188.43,2.08,62.44,44.65,100.71,79.99,121.83,38.2,22.82,76.43,31.04,76.81,31.12,1.26.26,126.92,26.18,206.01,42,82.71,16.54,116.19,53.34,143.39,89.62,29.79,39.72,139.23,97.7,140.39,98.31,1.39.63,139.52,63.87,145.41,165.15,4.74,81.49-70.89,138.32-101.2,157.72h3.76c11.52-7.51,28.13-19.52,44.38-35.42,48.62-47.57,56.77-92.83,55.05-122.42-1.72-29.59-16.24-74.84-75.62-122.37-35.44-28.37-70.61-44.32-70.91-44.45-1.1-.58-110.14-58.35-139.67-97.71-27.44-36.59-61.21-73.7-144.61-90.38-79.08-15.82-204.73-41.74-205.99-42-.38-.08-38.32-8.24-76.24-30.91-34.89-20.86-76.92-58.63-78.97-120.15-3.7-111.1,91.08-164.02,131.55-186.62,2.98-1.66,5.65-3.16,7.95-4.49,32.46-18.78,127.27-19.88,156.37-9.15,61.15,22.57,265.02,83.75,395.25,69.28,39.39-4.38,74.39-8.77,105.27-12.64,62.94-7.89,107.55-11.73,142.83-11.47v-2Z"/>
      <path class="cls-1" d="m3498.56,935.25c-98.72-21.71-169.08-61.5-169.67-61.83-.34-.26-34.85-26.29-93.88-40.18-98.63-23.21-188.85,4.63-247.15,32.07-165.98,78.11-249.42,58.13-355.04,32.83-24.08-5.77-48.97-11.73-76.35-16.91-51.74-9.79-87.9-4.16-107.45,16.74-23.55,25.18-13.81,64.1-13.73,64.33.04.44,4.19,45.13,20.01,140.07,15.9,95.43,115.58,140.31,116.66,140.78.91.32,91.41,32.55,95.33,99.12,3.2,54.33-3.41,59.28-40.09,86.75-8.54,6.4-19.17,14.36-31.55,24.41-63.9,51.92-111.8,95.57-192.22,224.25-79,126.39-206.52,234.69-207.76,235.74-.52.4-52.94,40.29-144.24,73.85-84.29,30.98-219.85,62.71-386.95,37.96-89.25-18.21-164.29-48-223.06-88.54-46.98-32.41-83.73-71.73-109.21-116.86-43.39-76.86-38.98-144.86-38.93-145.58.08-2.4,7.86-242.47-4-452.09-9.3-164.29,34.51-234.05,107.1-349.64,20.6-32.8,43.94-69.97,68.78-113.81,44.43-78.43,58.94-161.75,43.11-247.64-13.13-71.25-44.43-129.5-63.14-164.3-2.91-5.41-5.66-10.53-7.95-14.98-9.85-19.08-23.35-37.61-38.98-59.06-35.52-48.76-79.73-109.43-112.95-218.8-4.79-15.76-9.17-34.14-11.63-53.93h-2.01c2.48,20.01,6.9,38.58,11.73,54.51,33.32,109.69,77.64,170.52,113.25,219.39,15.58,21.39,29.04,39.86,38.82,58.8,2.31,4.46,5.06,9.58,7.97,15,18.65,34.7,49.86,92.78,62.93,163.72,15.74,85.42,1.32,168.29-42.88,246.29-24.81,43.8-48.15,80.95-68.73,113.73-72.79,115.92-116.73,185.89-107.4,350.82,11.86,209.53,4.08,449.51,4,451.87-.05.68-4.52,69.2,39.13,146.57,25.62,45.42,62.57,84.98,109.8,117.58,59,40.72,134.32,70.63,223.92,88.92,42.08,6.23,82.16,8.89,119.93,8.89,112.66,0,204.77-23.68,268.06-46.95,91.58-33.66,144.24-73.75,144.8-74.18,1.28-1.08,129.04-109.57,208.2-236.23,80.26-128.41,128.04-171.96,191.78-223.75,12.34-10.03,22.96-17.98,31.48-24.36,36.54-27.37,44.14-33.06,40.88-88.47-3.99-67.88-95.74-100.56-96.6-100.86-.99-.44-99.69-44.9-115.42-139.25-15.81-94.85-19.95-139.49-20.02-140.09-.1-.38-9.56-38.27,13.24-62.64,19.05-20.36,54.59-25.78,105.61-16.13,27.33,5.17,52.2,11.13,76.25,16.89,106.01,25.39,189.74,45.44,356.36-32.96,105.07-49.45,191.63-44.67,245.74-31.96,58.64,13.78,92.88,39.59,93.33,39.92.7.4,71.28,40.33,170.28,62.11,58.16,12.79,114.61,16.92,167.8,12.27,63.98-5.6,121.35-22.03,174.62-52.73v-2.31c-53.27,30.9-110.69,47.43-174.76,53.05-52.97,4.64-109.22.53-167.17-12.21Z"/>
      <path class="cls-1" d="m2217.81,453.23l-1.51-.02c-78.88-.8-159.83-38.98-211.25-99.65-50.23-59.27-70.52-111.3-85.33-149.3l-2.51-6.42c-15.06-38.39-67.52-139.08-68.11-140.21-.25-.35-19.06-26.99-47.81-57.64h-2.75c29.36,31.1,48.66,58.41,48.86,58.68.53,1.01,52.94,101.61,67.96,139.9l2.5,6.41c14.86,38.13,35.21,90.35,85.66,149.87,51.78,61.1,133.3,99.55,212.75,100.35l1.51.02c75.41.76,109.83,1.1,137.51,171.15,29.06,178.53-34,233.97-71.67,267.09-22.86,20.1-56.84,61.84-81.23,109.8-20.86,41.02-42.49,101.95-27.07,159.21,27.68,102.82,39.89,143.63,40.03,144.09.24.64,23.89,64.78,19.43,144.16-2.61,46.58-14.25,89.22-34.58,126.73-25.42,46.89-64.58,85.88-116.36,115.86-165.94,82.97-227.24,101.45-227.88,101.64-.42.15-42.55,14.63-95.84,21.61-49.1,6.43-117.97,7.62-167.3-23.21l-120.14-76.07c-.83-.36-83.32-36.81-79.39-127.04,2.34-53.85.72-138.77-.7-213.7-1.02-53.81-1.99-104.64-1.43-138.33.29-17.62-1.5-36.53-3.4-56.55-6.71-70.64-15.06-158.56,69.27-248.1,80.32-85.29,100.8-112.55,114.14-135.36,17.4-29.76,38.14-79.59,38.14-148,0-77.53-18.23-178.87-34.32-268.28-11.51-63.96-22.38-124.38-25.68-169.79-1.25-17.23-3.15-34.92-5.16-53.66-5.34-49.75-10.86-101.18-3.94-145.13.73-4.62,1.63-9.04,2.63-13.36h-1.92c-10.71,47.23-4.52,104.94,1.25,158.7,2.01,18.72,3.91,36.39,5.16,53.59,3.31,45.52,14.19,105.99,25.71,170,16.07,89.33,34.29,190.58,34.29,267.92,0,126.16-68.79,187.78-73.51,196.05-5.07,6.65-22.41,26.69-78.22,85.95-84.95,90.2-76.55,178.62-69.81,249.66,1.9,19.96,3.69,38.81,3.39,56.33-.56,33.72.41,84.57,1.43,138.4,1.43,74.9,3.04,159.79.71,213.58-3.98,91.63,79.76,128.6,80.46,128.89l120,76h0c33.33,20.83,75.39,27.2,114.38,27.2,19.32,0,37.9-1.57,54.28-3.71,53.48-7.01,95.78-21.56,96.15-21.69.6-.18,62.01-18.68,228.22-101.78,52.17-30.2,91.6-69.47,117.19-116.7,20.47-37.79,32.19-80.72,34.81-127.61,4.46-79.79-19.32-144.27-19.54-144.84-.12-.4-12.32-41.18-39.99-143.97-15.25-56.65,6.22-117.07,26.93-157.78,24.27-47.72,58.05-89.24,80.77-109.21,22.24-19.55,47.3-43.81,63.27-84.39,18.61-47.29,21.57-107.65,9.06-184.52-27.95-171.71-62.9-172.06-139.46-172.82Z"/>
      <path class="cls-1" d="m2600.7,0c-111.08,30.38-193.42,91.93-261.25,193.66-20.95,31.42-48.06,48.98-80.59,52.21-57.1,5.64-120.9-35.39-149.87-64.36-3.37-3.37-7.27-7.16-11.54-11.32-40.87-39.76-116.94-113.78-88.29-167.5.49-.93,1.03-1.8,1.55-2.69h-2.31c-.33.59-.69,1.14-1.01,1.75-29.36,55.05,47.41,129.75,88.66,169.88,4.26,4.15,8.15,7.93,11.52,11.3,27.39,27.39,85.7,65.47,140.46,65.47,3.69,0,7.37-.17,11.02-.54,33.15-3.28,60.76-21.14,82.06-53.09,68.99-103.48,153.05-165.23,267.31-194.77h-7.73Z"/>
      <path class="cls-1" d="m3706.28,680.52c-46.16.35-107.5-15.18-187.62-47.23-97.99-39.2-256.02-52.94-371.33-57.57-132.22-5.31-263.3-.87-329.14,5.5-66,6.39-134.19,7.81-192.02,4-66.39-4.37-114.57-15.38-139.33-31.83-42.76-28.41-5.59-102.15,30.35-173.46,8.9-17.66,18.11-35.93,26-53.29,19.08-41.98,60.52-88.01,116.69-129.61,55.35-41,120.23-74.33,182.7-93.85,94.73-29.6,146.14-79.47,166.33-103.17h-2.56c-6.5,7.56-15.96,17.53-28.79,28.52-25.47,21.82-69.66,52.14-135.57,72.74-131.93,41.23-261.17,137.76-300.61,224.54-7.88,17.33-17.07,35.57-25.97,53.22-36.34,72.09-73.91,146.63-29.67,176.03,25.05,16.65,73.57,27.77,140.3,32.17,57.94,3.82,126.24,2.4,192.34-4,65.77-6.36,196.73-10.8,328.87-5.5,115.16,4.62,272.94,18.34,370.67,57.43,88.2,35.28,145.66,47.42,186.34,47.42,38.71,0,62.23-10.99,82.55-23.49,18.84-11.59,38.91-23.17,53.69-31.54v-2.3c-14.88,8.42-35.45,20.27-54.73,32.13-18.85,11.59-40.51,22.93-79.48,23.16Z"/>
      <path class="cls-1" d="m3566.53,133.55c-41.08-45.74-56.47-91.82-64.76-133.55h-2.04c8.32,42.1,23.78,88.64,65.31,134.89,53.85,59.95,142.66,111.78,275.46,158.36v-2.12c-132.11-46.4-220.44-97.98-273.97-157.57Z"/>
      <path class="cls-1" d="m1008.47,285.23c-1.56-.28-156.4-29.22-227.32-139.53C694.12,1.78,595.86,39.34,516.91,69.53c-15.87,6.07-30.87,11.8-44.88,15.73-13.9,3.9-27.48,8.69-41.86,13.76-71.84,25.35-146.12,51.56-249.2-41.54C152.75,32,122.24,13.47,92.43,0h-4.95c30.94,13.53,62.79,32.46,92.13,58.96,46.5,42,91.61,63.45,137.91,65.59,40.9,1.88,77.72-11.09,113.3-23.65,14.34-5.06,27.89-9.84,41.73-13.72,14.11-3.96,29.14-9.7,45.06-15.79,78.26-29.92,175.66-67.15,261.83,75.37,71.41,111.08,227.1,140.16,228.71,140.45,1.2.16,120.35,17.11,187.3,115.57,60.94,89.61,60.66,125.36,59.99,211.71-.08,9.86-.16,20.38-.16,31.73,0,109.72-3.33,174.94-71.69,239.27-78.35,73.74-76.04,213.02-60.3,316.88,20.58,135.85,30.84,261.3,30.49,372.85-.62,196.23-33.69,339.7-98.21,426.3-47.63,47.63-71.27,88.72-82.71,114.8-10.04,22.9-12.7,38.26-13.37,43.68h2.03c.72-5.49,3.46-20.79,13.22-43.01,11.38-25.9,34.88-66.71,82.33-114.17,64.87-87.06,98.08-230.92,98.7-427.59.35-111.65-9.91-237.2-30.51-373.15-15.67-103.38-18.02-241.97,59.7-315.12,68.96-64.9,72.31-130.45,72.31-240.73,0-11.34.08-21.86.16-31.71.68-86.79.96-122.72-60.33-212.85-67.47-99.22-187.49-116.27-188.65-116.42Z"/>
      <path class="cls-1" d="m1301.14,2073.7c-68.96-113.59-83.85-161.09-83.85-267.48,0-31.64,2.1-72.96,4.32-116.72,5.37-105.76,12.06-237.38-6.35-319.5-27.01-120.52-23.46-306.88,48.18-431.28,69.56-120.79,122.11-226.98,113.84-400.55-4.14-87.03-34.94-146.76-60.04-181.54-27.22-37.72-53.86-55.08-54.18-55.29-1.66-.92-166.48-93.11-209.84-203.49-1.77-4.5-3.54-8.98-5.29-13.41-11.59-29.28-22.81-57.65-29.54-84.44h-2.06c6.74,27.05,18.06,55.65,29.74,85.17,1.75,4.44,3.52,8.91,5.29,13.41,43.63,111.05,209.07,203.59,210.68,204.48.26.17,26.64,17.38,53.64,54.83,45.15,62.6,57.33,132.64,59.61,180.38,8.24,173.02-44.19,278.95-113.58,399.45-71.91,124.86-75.49,311.84-48.4,432.72,18.35,81.86,11.67,213.33,6.3,318.96-2.22,43.78-4.33,85.13-4.33,116.82,0,106.86,14.94,154.54,84.15,268.52,28.76,47.38,66.95,72.23,99.2,85.26h5.52c-32.88-12.35-73.09-37.01-103.02-86.3Z"/>
    </g>
  </g>
</svg>