<?xml version="1.0" encoding="UTF-8"?>
<svg xmlns="http://www.w3.org/2000/svg" xmlns:xlink="http://www.w3.org/1999/xlink" viewBox="0 0 3840 2160">
  <defs>
    <style>
      .cls-1 {
        fill: #d7e4a6;
      }

      .cls-2 {
        fill: url(#Unbenannter_Verlauf_18);
      }
    </style>
    <radialGradient id="Unbenannter_Verlauf_18" data-name="Unbenannter Verlauf 18" cx="4191.46" cy="-970.07" fx="4191.46" fy="-970.07" r="4592.41" gradientTransform="scale(1.05)" gradientUnits="userSpaceOnUse">
      <stop offset="0" stop-color="#d7e4a6"/>
      <stop offset="1" stop-color="#3fab39"/>
    </radialGradient>
  </defs>
  <g id="Ebene_2" data-name="Ebene 2">
    <rect class="cls-2" y="0" width="3840" height="2160"/>
  </g>
  <g id="Ebene_1" data-name="Ebene 1">
    <g>
      <path class="cls-1" d="m512.53,1362.48c-20.1,0-43.12-14.85-68.65-44.35-34.16-39.46-65.15-63.97-95.11-87.68-50.91-40.27-94.88-75.06-133-170.05l-.02-.04c-.16-.47-16.27-47.35-21.32-101.45-6.69-71.82,9.1-123.73,45.67-150.11,29.67-21.4,60.61-37.53,89.46-46.65,35.11-11.09,66.95-11.99,94.63-2.67,44.47,14.96,77.23,55.95,97.38,121.82,54.82,179.24,54.82,285.73,54.82,356.2,0,25.05-4.32,51.79-11.85,73.36-9.15,26.22-22.42,43.23-38.36,49.17-4.39,1.63-8.94,2.45-13.65,2.45Zm-294.9-302.8c37.92,94.49,81.69,129.11,132.38,169.21,30.04,23.76,61.1,48.34,95.38,87.94,30.91,35.71,57.86,49.62,80.09,41.33,19.42-7.23,30.93-30.07,37.17-47.95,7.46-21.37,11.74-47.87,11.74-72.7,0-70.35,0-176.67-54.73-355.62-19.95-65.22-52.28-105.77-96.11-120.51-70.35-23.66-150.91,26.42-182.28,49.05-25.08,18.09-53.22,58.5-44.85,148.3,4.98,53.4,20.78,99.72,21.21,100.96Z"/>
      <path class="cls-1" d="m2902.39,2074.74c-28.41,0-74.16-4.57-120-14.57-82.22-17.94-117.8-42.04-133.17-59.1-12.2-13.54-16.95-28.32-14.12-43.93,2.94-16.17,11.65-29.17,25.89-38.64,53.81-35.79,171.43-10.4,172.61-10.14,1.05.21,107.27,21.45,162.63,34.65,20.84,4.97,42.19,13.42,58.57,23.19,13.47,8.03,30.04,20.82,32.51,36.16,2.01,12.5-5.66,24.21-22.81,34.78-50.8,31.34-77.37,32.87-121.4,35.42-8.45.49-17.18.99-27.01,1.74-3.92.3-8.53.45-13.71.45Zm13.55-2.44l.08,1-.08-1c9.85-.75,18.59-1.25,27.05-1.74,43.71-2.52,70.1-4.05,120.47-35.12,16.39-10.11,23.75-21.13,21.88-32.77-3.95-24.56-49.1-48.07-89.57-57.72-55.33-13.19-161.51-34.42-162.58-34.63-1.19-.26-117.98-25.47-171.09,9.85-13.77,9.16-22.19,21.72-25.03,37.34-2.72,14.97,1.86,29.17,13.63,42.23,15.18,16.84,50.42,40.66,132.11,58.48,54.01,11.79,107.86,16.01,133.13,14.08Z"/>
      <path class="cls-1" d="m3652.03,557.72c-37.51,0-78.28-8.23-112.22-15.08-7.07-1.43-13.81-2.79-20.13-3.99-82.09-15.64-281.06-28.17-387.64-19.98-120.07,9.24-281.5,10.08-296.99-88.82-1.99-56.31,18.46-75.85,168.36-160.93,3.14-2.74,94.46-82.57,119.8-111.81,11.15-12.86,52.32-55.15,114.05-59.27,46.75-3.13,94.29,16.35,141.3,57.87,92.69,72.28,145.13,92.1,145.65,92.29.5.12,60.7,15.58,120.11,48.45,34.93,19.33,62.77,40.81,82.75,63.86,25.04,28.88,37.73,60.3,37.73,93.38,0,36.77-10.6,64.09-31.51,81.2-20.88,17.09-49.94,22.83-81.27,22.83Zm-439.41-43.63c107.23,0,243.13,10.35,307.43,22.6,6.32,1.2,13.07,2.57,20.15,3.99,61.91,12.49,146.68,29.6,191.83-7.34,20.42-16.71,30.78-43.51,30.78-79.65,0-40.77-20.72-100.84-119.42-155.47-59.19-32.76-119.17-48.16-119.77-48.32-.62-.22-53.31-20.11-146.33-92.66-46.64-41.19-93.68-60.48-139.89-57.41-60.96,4.07-101.65,45.87-112.67,58.59-25.74,29.7-119.13,111.25-120.07,112.07l-.16.12c-149.05,84.6-169.4,103.92-167.45,159.06,15.22,97.14,175.56,96.19,294.85,87.02,23.24-1.79,50.88-2.59,80.73-2.59Z"/>
      <path class="cls-1" d="m3326.3,494.4c-18.67,0-36.44-1.15-52.36-3.49-48.1-7.07-75.41-24.04-78.99-49.07v-.04c-.05-.49-4.6-49.64,25.22-79.35,18.11-18.04,44.95-25.34,79.79-21.72,48.58,5.06,78.66,7.46,98.55,9.05,27.64,2.2,39.08,3.11,58.8,7.75,14.43,3.39,49.31,14.01,61.59,39.25,6.45,13.25,5.73,28.57-2.13,45.54-7.73,16.69-42.93,32.65-94.16,42.69-31.66,6.21-65.24,9.4-96.32,9.4Zm-129.36-52.82c4.36,30.38,44.44,42.52,77.29,47.35,89.95,13.23,224.94-13.38,240.73-47.45,7.6-16.4,8.32-31.15,2.15-43.83-11.91-24.46-46.1-34.85-60.25-38.18-19.57-4.61-30.17-5.45-58.5-7.71-19.91-1.59-50-3.98-98.6-9.05-34.2-3.56-60.49,3.55-78.16,21.14-28.93,28.81-24.77,76.53-24.66,77.72Z"/>
      <path class="cls-1" d="m1612.92,1506.32c-14.34,0-27.21-4.1-38.41-12.28-36.03-26.31-42.96-86.77-43.15-88.45-.5-3.08-29.17-179.54-26-226.15l.08-1.19c3.12-45.99,6.35-93.55,54.3-129.51,1.65-1.24,3.34-2.52,5.05-3.81,24.72-18.69,55.48-41.94,79.87-29.94,26.52,13.05,39.81,64.9,40.65,158.51.46,51.8,2.39,95.67,4.1,134.39,5.52,125.32,8.04,182.51-58.88,196.52-6.09,1.28-11.97,1.91-17.62,1.91Zm17.19-492.62c-20.68,0-44.35,17.9-64.1,32.83-1.71,1.3-3.4,2.57-5.06,3.81-47.22,35.42-50.27,80.41-53.51,128.04l-.08,1.19c-3.17,46.55,25.69,223.93,25.98,225.71v.06c.07.61,6.72,61.06,42.35,87.08,15.13,11.05,33.44,14.42,54.43,10.02,65.26-13.66,62.92-66.59,57.29-194.48-1.71-38.73-3.64-82.63-4.1-134.46-.83-92.79-13.76-144.06-39.53-156.74-4.35-2.14-8.94-3.08-13.68-3.08Z"/>
      <path class="cls-1" d="m684.9,993.48c-10.39-104.09-42.52-192.78-95.51-263.62-54.31-72.6-113.02-105.79-179.47-101.45-55.66,3.63-105.25,33.56-141.45,55.42-9.82,5.93-19.09,11.53-27.04,15.7-52.53,27.59-100.2,26.03-125.8,25.19l-2.88-.09c-25.59-.8-73.52,4.04-112.79,44.13v2.9c36.66-38.46,81.41-45.11,107.88-45.11,1.69,0,3.32.03,4.85.08l2.88.09c25.79.84,73.8,2.42,126.8-25.42,8-4.2,17.3-9.82,27.15-15.76,73.24-44.21,195.82-118.21,318.29,45.52,52.77,70.54,84.77,158.9,95.12,262.62,8.59,86.05.48,164.49-4.36,211.36-1.34,12.96-2.5,24.14-2.98,32.4-1.37,23.28-10.79,64.26-28.75,103.31-15.5,33.7-43.17,78.47-87.02,100.42-49.58,24.83-108.33,15.22-174.62-28.55-175.95-116.19-198-160.11-221.36-206.62-4.65-9.27-9.47-18.85-15.56-29-16.78-27.99-45.03-73.2-72.36-116.91C46.3,1012.68,15.72,963.76-.05,937.06v3.92c16.22,27.27,45.69,74.42,74.28,120.16,27.32,43.71,55.57,88.91,72.34,116.88,6.05,10.09,10.85,19.64,15.48,28.88,23.47,46.75,45.65,90.9,222.04,207.39,42.7,28.2,82.34,42.33,118.5,42.33,20.51,0,39.91-4.55,58.11-13.66,44.37-22.21,72.31-67.39,87.94-101.38,18.07-39.29,27.55-80.55,28.93-104.03.48-8.21,1.64-19.38,2.97-32.31,4.85-46.94,12.97-125.51,4.36-211.76Z"/>
      <path class="cls-1" d="m817.54,1253.5c0-.4-.37-43.16-32-312.04-14.29-121.45-43.49-216.58-89.27-290.84-38.96-63.2-82.68-99.04-120.3-125.76-73.67-52.33-148.44-29.95-227.6-6.26l-4.14,1.24c-77.56,23.23-133.59,40.01-251.17-3.1-33.09-12.13-64.68-21.15-93.11-27.76v2.05c28.23,6.58,59.58,15.55,92.42,27.59,118.2,43.34,174.51,26.48,252.43,3.13l4.13-1.24c78.68-23.54,153-45.78,225.87,5.98,37.46,26.61,80.98,62.29,119.76,125.18,44.99,72.97,74.93,170.55,88.99,290.02,31.59,268.54,31.99,311.4,31.99,311.82,0,.87.7,87.89-24.96,179.17-15.06,53.57-36.11,98.09-62.56,132.31-33.02,42.72-74.61,69.44-123.63,79.42-98.2,20.01-181.69,9.41-255.24-32.38-69.26-39.35-119.57-100.53-159.65-155.18-11.88-16.2-24.75-33.97-38.39-52.78C105.35,1340.92,50.58,1265.34-.05,1203.26v3.15c50.14,61.65,104.26,136.34,149.54,198.84,13.63,18.82,26.51,36.59,38.39,52.79,40.21,54.82,90.69,116.2,160.27,155.74,49.9,28.35,104.32,42.43,164.74,42.43,29.17,0,59.75-3.28,91.89-9.83,49.5-10.08,91.49-37.05,124.81-80.16,26.61-34.43,47.78-79.18,62.91-132.99,25.73-91.56,25.04-178.87,25.03-179.73Z"/>
      <path class="cls-1" d="m917.49,1161.32c-27.87-135.39-18.61-175.52-6.89-226.32l.1-.42c21.17-91.73,2.32-194.86-17.22-265.21-48.68-175.27-115.27-195.84-151.05-206.88-1.96-.6-3.82-1.18-5.57-1.75-6.76-2.19-13.74-3.99-21.14-5.9-28.73-7.4-64.49-16.61-118.53-57.93-67.56-51.67-119.7-41.95-180.85-23.88-60.89,18-182.34,28.14-231.73,31.67-12.55.9-24.71,2.6-36.47,4.24-41.29,5.77-76.95,10.76-110.75-19.98-10.39-9.44-23.49-17.56-37.45-24.46v2.22c13.47,6.72,26.08,14.6,36.11,23.72,34.5,31.36,70.59,26.32,112.37,20.48,11.72-1.64,23.85-3.33,36.33-4.23,49.46-3.53,171.08-13.7,232.15-31.75,60.59-17.91,112.25-27.54,179.07,23.55,54.36,41.57,90.34,50.84,119.24,58.28,7.36,1.9,14.32,3.69,21.02,5.86,1.76.57,3.63,1.15,5.6,1.76,35.41,10.94,101.33,31.29,149.71,205.51,19.48,70.13,38.27,172.9,17.19,264.22l-.1.42c-11.78,51.04-21.08,91.35,6.88,227.17,27.85,135.26,27.85,208.23,0,339.51-29.44,138.81-116.83,220.97-267.15,251.16-89.78,18.03-165.08,27.06-240.8,12.49-89.59-17.23-167.48-66.99-238.12-152.12-18.57-22.38-35.52-43.02-50.47-61.23-52.25-63.63-86.84-105.76-119.05-135.47v2.75c31.75,29.55,66.04,71.31,117.5,133.99,14.96,18.22,31.91,38.86,50.48,61.24,70.95,85.5,149.22,135.48,239.28,152.81,26.3,5.06,52.55,7.29,79.35,7.29,50.67,0,103.35-7.96,162.22-19.78,151.19-30.37,239.09-113.03,268.71-252.71,27.91-131.59,27.91-204.75,0-340.32Z"/>
      <path class="cls-1" d="m1089.46,609.55c-15.23-144.65-186.36-192.16-250.78-210.04-3.63-1.01-6.93-1.92-9.87-2.76-51.88-14.82-108.58-41.68-151.66-71.84-10.51-7.36-19.21-15.32-28.41-23.75-25.56-23.4-51.98-47.59-119.94-60.4-81.77-15.4-153.48,15.12-216.75,42.04-8.23,3.5-16,6.81-23.76,10-54.37,22.39-126.04,9.32-219.1-39.95C48.99,242.17,24.45,234.29-.05,228.49v2.04c24.2,5.75,48.39,13.55,68.31,24.09,93.62,49.56,165.84,62.66,220.79,40.03,7.77-3.2,15.55-6.51,23.78-10.01,63.01-26.82,134.43-57.21,215.59-41.92,67.4,12.7,93.61,36.7,118.96,59.91,9.26,8.47,18,16.48,28.62,23.91,43.26,30.28,100.18,57.24,152.26,72.12,2.95.84,6.26,1.76,9.89,2.77,64.07,17.78,234.24,65.03,249.33,208.32,12.35,117.34-11.01,169.86-29.79,212.06-5.42,12.17-10.53,23.67-14.17,35.48-3.56,11.56-8.79,24.63-14.85,39.77-20.58,51.4-48.76,121.8-33.16,196.67,10.33,49.57,24.11,153.42,29.97,264.28,5.03,95.13,5.99,229.1-17.97,327.13-44.98,184.02-78.94,251.91-283.15,291.18-98.8,19-174.5,17.01-245.44-6.47-65.59-21.7-122.98-58.81-209.7-117.35C158.65,1777.88,78.42,1729.53-.05,1702.98v2.11c78.08,26.53,158.03,74.74,268.16,149.08,86.87,58.64,144.36,95.81,210.19,117.59,39.22,12.98,79.85,19.42,124.99,19.42,36.91,0,76.84-4.31,121.45-12.89,103.14-19.83,164.16-47.89,204.02-93.8,41.37-47.65,60.28-115.34,80.7-198.87,24.02-98.26,23.06-232.45,18.02-327.71-5.87-110.97-19.67-214.94-30.01-264.59-15.47-74.28,12.58-144.35,33.06-195.52,6.08-15.18,11.32-28.29,14.9-39.93,3.6-11.69,8.69-23.14,14.08-35.26,18.87-42.42,42.35-95.2,29.95-213.08Z"/>
      <path class="cls-1" d="m3840,1730.83c-43.41-28.06-151.72-100.1-189.4-144.07-13.18-15.38-18.28-27.39-15.59-36.73,4.48-15.52,29.57-23.3,61.35-33.15,12.23-3.79,24.87-7.71,37.81-12.51,43.91-16.3,83.96-10.9,105.84-5.47v-2.05c-22.27-5.45-62.49-10.69-106.53,5.65-12.89,4.78-25.51,8.69-37.71,12.48-32.35,10.03-57.9,17.95-62.68,34.51-2.89,10.03,2.34,22.65,15.99,38.58,38.17,44.53,148.2,117.56,190.92,145.15v-2.38Z"/>
      <path class="cls-1" d="m2303.21,2159.05c11.66-35.35,72.63-207.09,189.6-316.97,16.49-15.49,31.37-30,45.76-44.04,48.73-47.52,87.23-85.06,130.82-102.32,45.52-18.03,96.8-13.53,166.28,14.59,166.16,67.26,203.85,72.01,204.05,72.02.56.16,56.76,16.04,112.25,16.04,67.61,0,129.97,45.91,171.07,125.95,48.08,93.63,67.98,132.39-7.67,184.15-25.93,17.74-46.07,35.22-61.18,50.59h2.8c14.86-14.94,34.46-31.81,59.5-48.94,77.11-52.76,55.55-94.74,8.32-186.71-58.88-114.66-140.49-127.04-172.85-127.04-55.2,0-111.14-15.8-111.86-15.99-.36-.04-38.03-4.86-203.69-71.92-69.98-28.32-121.72-32.83-167.77-14.59-43.96,17.41-82.58,55.07-131.48,102.75-14.38,14.03-29.26,28.53-45.73,44.01-117.98,110.83-179.13,284.34-190.33,318.43h2.1Z"/>
      <path class="cls-1" d="m87.99,1954.01c24.82,26.42,44.66,48.03,60.6,65.4,64.79,70.59,71.57,77.97,119.82,90.84,51.89,13.84,96.56,32.32,119.42,48.8h3.31c-22.47-17.08-68.54-36.42-122.22-50.74-47.69-12.72-54.43-20.06-118.87-90.26-15.95-17.37-35.79-39-60.62-65.42-33.75-35.92-63.73-62.38-89.5-81.87v2.48c25.38,19.34,54.87,45.46,88.04,80.77Z"/>
      <path class="cls-1" d="m3840,1296.37c-35.42-.26-80.07,3.59-143.04,11.48-30.87,3.87-65.85,8.26-105.22,12.63-129.81,14.43-333.21-46.62-394.23-69.15-30.14-11.12-124.47-10.12-158.02,9.29-2.29,1.33-4.95,2.81-7.92,4.47-40.78,22.77-136.29,76.1-132.54,188.38,2.08,62.42,44.64,100.69,79.97,121.8,38.19,22.81,76.41,31.03,76.79,31.11,1.26.26,126.88,26.18,205.95,41.99,82.68,16.54,116.16,53.33,143.36,89.6,29.78,39.71,139.2,97.68,140.36,98.29,1.39.63,139.48,63.85,145.38,165.11,4.74,81.47-70.87,138.29-101.17,157.68h3.76c11.52-7.51,28.12-19.51,44.37-35.41,48.61-47.55,56.76-92.81,55.04-122.39-1.72-29.58-16.24-74.82-75.6-122.34-35.43-28.36-70.6-44.31-70.89-44.44-1.1-.58-110.12-58.34-139.63-97.69-27.43-36.58-61.19-73.68-144.57-90.36-79.06-15.81-204.68-41.73-205.94-41.99-.38-.08-38.31-8.24-76.22-30.9-34.88-20.85-76.9-58.61-78.95-120.12-3.7-111.07,91.06-163.98,131.52-186.57,2.98-1.66,5.65-3.16,7.95-4.49,32.45-18.78,127.24-19.88,156.33-9.14,61.14,22.56,264.96,83.73,395.15,69.26,39.38-4.38,74.37-8.76,105.24-12.64,62.92-7.89,107.52-11.73,142.79-11.47v-2Z"/>
      <path class="cls-1" d="m3498.15,934.61c-98.7-21.7-169.04-61.49-169.62-61.81-.34-.26-34.84-26.28-93.86-40.17-98.61-23.2-188.8,4.63-247.09,32.06-165.94,78.09-249.35,58.11-354.95,32.82-24.07-5.76-48.96-11.73-76.33-16.9-51.73-9.79-87.88-4.16-107.42,16.74-23.54,25.17-13.8,64.09-13.73,64.32.04.44,4.19,45.12,20,140.04,15.9,95.41,115.55,140.27,116.63,140.74.91.32,91.39,32.54,95.31,99.09,3.19,54.32-3.41,59.27-40.08,86.73-8.54,6.4-19.17,14.36-31.54,24.41-63.88,51.9-111.77,95.55-192.17,224.19-78.98,126.36-206.47,234.63-207.71,235.68-.52.4-52.92,40.28-144.2,73.84-84.26,30.97-219.79,62.7-386.86,37.95-89.22-18.21-164.25-47.99-223.01-88.52-46.97-32.4-83.71-71.71-109.18-116.83-43.38-76.84-38.97-144.83-38.92-145.54.08-2.4,7.86-242.41-4-451.98-9.3-164.25,34.5-234,107.07-349.55,20.59-32.79,43.93-69.96,68.76-113.78,44.42-78.41,58.92-161.71,43.1-247.58-13.13-71.23-44.42-129.47-63.12-164.26-2.91-5.41-5.65-10.52-7.95-14.97-9.85-19.08-23.35-37.6-38.97-59.05-35.51-48.74-79.71-109.41-112.92-218.74-4.79-15.76-9.17-34.13-11.63-53.91h-2.01c2.48,20,6.89,38.57,11.73,54.5,33.31,109.66,77.62,170.47,113.22,219.34,15.58,21.38,29.03,39.85,38.81,58.79,2.31,4.46,5.06,9.58,7.97,15,18.64,34.69,49.84,92.76,62.92,163.68,15.74,85.4,1.32,168.24-42.87,246.23-24.81,43.79-48.13,80.93-68.71,113.71-72.78,115.89-116.7,185.85-107.37,350.73,11.86,209.48,4.08,449.4,4,451.76-.05.68-4.52,69.18,39.12,146.53,25.62,45.41,62.55,84.96,109.78,117.55,58.99,40.71,134.29,70.62,223.87,88.9,42.07,6.23,82.14,8.89,119.9,8.89,112.63,0,204.72-23.68,267.99-46.93,91.56-33.66,144.21-73.73,144.76-74.16,1.28-1.08,129.01-109.54,208.15-236.18,80.24-128.38,128.01-171.92,191.74-223.7,12.34-10.02,22.95-17.97,31.48-24.36,36.53-27.36,44.13-33.05,40.87-88.45-3.99-67.86-95.72-100.54-96.57-100.83-.99-.44-99.67-44.89-115.39-139.21-15.8-94.83-19.95-139.45-20.01-140.05-.1-.38-9.56-38.26,13.24-62.62,19.05-20.35,54.57-25.77,105.58-16.13,27.32,5.17,52.19,11.12,76.23,16.88,105.98,25.38,189.69,45.43,356.27-32.96,105.05-49.44,191.58-44.66,245.68-31.95,58.63,13.77,92.86,39.58,93.31,39.91.7.4,71.26,40.32,170.24,62.09,58.14,12.79,114.58,16.92,167.76,12.27,63.96-5.6,121.32-22.02,174.58-52.72v-2.31c-53.25,30.89-110.66,47.42-174.72,53.03-52.96,4.64-109.19.53-167.13-12.21Z"/>
      <path class="cls-1" d="m2217.71,452.71l-1.51-.02c-78.87-.8-159.79-38.97-211.19-99.62-50.22-59.25-70.5-111.28-85.3-149.26l-2.51-6.42c-15.05-38.38-67.5-139.05-68.1-140.17-.25-.35-19.06-26.99-47.8-57.63h-2.75c29.35,31.09,48.65,58.39,48.85,58.67.53,1.01,52.93,101.59,67.94,139.87l2.5,6.41c14.86,38.12,35.21,90.32,85.64,149.83,51.77,61.08,133.27,99.52,212.7,100.33l1.51.02c75.39.76,109.8,1.1,137.48,171.1,29.06,178.49-33.99,233.91-71.66,267.02-22.86,20.09-56.83,61.83-81.21,109.78-20.86,41.01-42.48,101.92-27.07,159.17,27.67,102.8,39.88,143.59,40.02,144.06.24.64,23.88,64.77,19.43,144.13-2.61,46.57-14.25,89.2-34.58,126.7-25.41,46.88-64.57,85.86-116.33,115.83-165.9,82.95-227.18,101.42-227.82,101.61-.42.15-42.54,14.63-95.82,21.61-49.09,6.43-117.94,7.62-167.26-23.2l-120.11-76.05c-.83-.36-83.3-36.8-79.37-127.01,2.34-53.83.72-138.74-.7-213.65-1.02-53.8-1.99-104.61-1.43-138.29.29-17.62-1.5-36.52-3.4-56.53-6.71-70.63-15.05-158.52,69.25-248.04,80.3-85.27,65.64-70.94,82.89-90.94,44-51,69.34-123.96,69.34-192.36,0-77.51-18.23-178.82-34.31-268.21-11.5-63.95-22.37-124.35-25.68-169.75-1.25-17.23-3.15-34.92-5.16-53.64-5.34-49.73-10.86-101.16-3.94-145.1.73-4.62,1.63-9.04,2.62-13.35h-1.92c-10.7,47.22-4.52,104.92,1.25,158.66,2.01,18.71,3.91,36.38,5.16,53.57,3.31,45.51,14.19,105.96,25.7,169.96,16.07,89.31,34.59,190.89,33.94,268.21-1,118-73.98,196.35-73.98,196.35.03-.03-21.58,25.98-77.37,85.22-84.93,90.18-76.53,178.57-69.79,249.6,1.9,19.96,3.68,38.8,3.39,56.32-.56,33.72.41,84.55,1.43,138.36,1.43,74.88,3.04,159.75.7,213.52-3.98,91.61,79.74,128.57,80.44,128.86l119.97,75.98h0c33.32,20.83,75.37,27.2,114.35,27.2,19.32,0,37.89-1.57,54.27-3.71,53.47-7.01,95.75-21.55,96.13-21.68.6-.18,61.99-18.67,228.16-101.76,52.15-30.2,91.57-69.45,117.16-116.67,20.47-37.78,32.18-80.7,34.8-127.58,4.46-79.77-19.32-144.23-19.54-144.81-.12-.4-12.31-41.17-39.98-143.94-15.25-56.64,6.22-117.04,26.92-157.74,24.26-47.71,58.04-89.21,80.75-109.18,22.23-19.54,47.29-43.79,63.25-84.37,18.6-47.28,21.57-107.62,9.05-184.48-27.94-171.66-62.88-172.01-139.43-172.78Z"/>
      <path class="cls-1" d="m2600.51-.41c-111.05,30.37-193.38,91.91-261.18,193.62-20.94,31.41-48.05,48.97-80.57,52.19-57.09,5.64-120.87-35.38-149.83-64.34-3.37-3.37-7.27-7.16-11.54-11.32-40.86-39.75-116.91-113.75-88.26-167.46.49-.93,1.03-1.8,1.55-2.69h-2.31c-.33.59-.69,1.14-1.01,1.75-29.35,55.03,47.4,129.72,88.63,169.84,4.26,4.15,8.15,7.93,11.52,11.3,27.38,27.38,85.67,65.45,140.42,65.45,3.69,0,7.37-.17,11.02-.54,33.15-3.28,60.75-21.14,82.04-53.07,68.97-103.45,153.01-165.19,267.24-194.72h-7.72Z"/>
      <path class="cls-1" d="m3705.82,679.94c-46.15.35-107.47-15.18-187.58-47.22-97.96-39.19-255.95-52.93-371.24-57.56-132.19-5.31-263.23-.87-329.06,5.5-65.98,6.39-134.16,7.8-191.97,4-66.37-4.37-114.54-15.38-139.3-31.83-42.75-28.41-5.59-102.13,30.35-173.42,8.9-17.66,18.11-35.92,26-53.28,19.08-41.97,60.5-87.99,116.66-129.58,55.33-40.99,120.2-74.31,182.66-93.83,94.71-29.6,146.11-79.45,166.29-103.15h-2.56c-6.5,7.56-15.95,17.52-28.79,28.52-25.46,21.81-69.64,52.13-135.54,72.72-131.9,41.22-261.1,137.73-300.54,224.48-7.88,17.32-17.07,35.57-25.96,53.21-36.33,72.07-73.9,146.59-29.67,175.98,25.05,16.64,73.55,27.76,140.27,32.16,57.92,3.82,126.21,2.39,192.3-4,65.76-6.36,196.69-10.8,328.78-5.49,115.13,4.62,272.88,18.34,370.58,57.42,88.17,35.27,145.62,47.4,186.3,47.4,38.7,0,62.21-10.99,82.53-23.49,18.83-11.58,38.9-23.16,53.67-31.53v-2.3c-14.88,8.42-35.44,20.27-54.72,32.13-18.84,11.59-40.5,22.92-79.46,23.15Z"/>
      <path class="cls-1" d="m3566.1,133.1c-41.07-45.73-56.46-91.79-64.74-133.52h-2.04c8.32,42.09,23.77,88.62,65.29,134.85,53.83,59.94,142.63,111.75,275.39,158.32v-2.12c-132.07-46.39-220.39-97.95-273.9-157.54Z"/>
      <path class="cls-1" d="m1008.67,284.75c-1.56-.28-156.36-29.21-227.27-139.5C694.4,1.37,596.16,38.92,517.23,69.1c-15.87,6.07-30.86,11.8-44.87,15.72-13.9,3.9-27.48,8.69-41.85,13.76-71.82,25.34-146.09,51.55-249.14-41.53C153.16,31.58,122.66,13.05,92.86-.41h-4.95c30.93,13.53,62.78,32.45,92.11,58.95,46.49,41.99,91.59,63.44,137.87,65.58,40.89,1.88,77.7-11.09,113.27-23.64,14.34-5.06,27.89-9.84,41.72-13.72,14.1-3.95,29.14-9.7,45.05-15.78,78.24-29.91,175.61-67.13,261.76,75.35,71.39,111.05,227.04,140.13,228.65,140.42,1.2.16,120.32,17.1,187.26,115.54,60.92,89.59,60.64,125.33,59.97,211.66-.08,9.85-.16,20.38-.16,31.72,0,109.7-3.33,174.89-71.67,239.21-78.33,73.72-76.02,212.97-60.29,316.8,20.58,135.82,30.84,261.23,30.48,372.75-.62,196.18-33.69,339.61-98.18,426.19-47.62,47.62-71.25,88.7-82.69,114.78-10.04,22.9-12.69,38.25-13.36,43.67h2.03c.72-5.49,3.46-20.78,13.22-43,11.37-25.89,34.87-66.69,82.31-114.14,64.85-87.04,98.05-230.87,98.67-427.49.35-111.62-9.91-237.14-30.5-373.06-15.66-103.36-18.02-241.91,59.68-315.04,68.94-64.88,72.3-130.42,72.3-240.67,0-11.34.08-21.85.16-31.7.68-86.77.96-122.69-60.32-212.8-67.45-99.2-187.44-116.24-188.6-116.39Z"/>
      <path class="cls-1" d="m1301.27,2072.77c-68.95-113.56-83.83-161.05-83.83-267.41,0-31.63,2.1-72.95,4.32-116.69,5.37-105.73,12.06-237.32-6.35-319.42-27.01-120.49-23.45-306.81,48.17-431.18,69.54-120.76,122.08-226.92,113.81-400.45-4.14-87.01-34.93-146.72-60.03-181.49-27.22-37.71-53.85-55.07-54.17-55.28-1.66-.92-166.44-93.09-209.79-203.44-1.77-4.5-3.54-8.97-5.29-13.41-11.58-29.28-22.81-57.64-29.53-84.42h-2.06c6.74,27.05,18.05,55.64,29.73,85.15,1.75,4.44,3.52,8.91,5.29,13.41,43.62,111.02,209.02,203.54,210.63,204.43.26.17,26.63,17.38,53.63,54.81,45.14,62.58,57.32,132.61,59.59,180.34,8.24,172.98-44.17,278.88-113.55,399.35-71.89,124.83-75.48,311.76-48.39,432.61,18.34,81.84,11.67,213.27,6.3,318.88-2.22,43.77-4.32,85.11-4.32,116.79,0,106.83,14.94,154.5,84.12,268.45,28.76,47.36,66.93,72.21,99.18,85.24h5.52c-32.87-12.34-73.07-37-102.99-86.28Z"/>
    </g>
  </g>
</svg>