<?xml version="1.0" encoding="UTF-8" standalone="no"?>
<!-- Generator: Adobe Illustrator 26.5.0, SVG Export Plug-In . SVG Version: 6.00 Build 0)  -->

<svg
   version="1.1"
   id="Layer_1"
   x="0px"
   y="0px"
   viewBox="0 0 127.95 127.95"
   xml:space="preserve"
   sodipodi:docname="openapi_white.svg"
   width="127.95"
   height="127.95"
   inkscape:version="1.2.2 (b0a8486541, 2022-12-01)"
   xmlns:inkscape="http://www.inkscape.org/namespaces/inkscape"
   xmlns:sodipodi="http://sodipodi.sourceforge.net/DTD/sodipodi-0.dtd"
   xmlns="http://www.w3.org/2000/svg"
   xmlns:svg="http://www.w3.org/2000/svg"><defs
   id="defs87" /><sodipodi:namedview
   id="namedview85"
   pagecolor="#505050"
   bordercolor="#eeeeee"
   borderopacity="1"
   inkscape:showpageshadow="0"
   inkscape:pageopacity="0"
   inkscape:pagecheckerboard="0"
   inkscape:deskcolor="#505050"
   showgrid="false"
   inkscape:zoom="2.6222222"
   inkscape:cx="102.01271"
   inkscape:cy="-41.377119"
   inkscape:window-width="3440"
   inkscape:window-height="1362"
   inkscape:window-x="0"
   inkscape:window-y="0"
   inkscape:window-maximized="1"
   inkscape:current-layer="Layer_1" />
<style
   type="text/css"
   id="style2">
	.st0{opacity:0.6;fill:#FFFFFF;}
	.st1{fill:#93D500;}
	.st2{opacity:0.9;fill:#FFFFFF;}
	.st3{opacity:0.8;fill:#FFFFFF;}
	.st4{fill:#6BA43A;}
	.st5{fill:#FFFFFF;}
	.st6{fill:#FFFFFF;stroke:#231F20;stroke-miterlimit:10;}
</style>
<g
   id="g64"
   transform="translate(-33.6,-114.55)">
	<g
   id="g60">
		<path
   class="st0"
   d="M 71.1,186.9 H 71 41.6 c 0,0.1 0,0.3 0,0.4 0,0.3 0,0.6 0,0.8 0,0.1 0,0.2 0,0.4 0,0.3 0.1,0.6 0.1,1 0,0.1 0,0.1 0,0.2 0,0.4 0.1,0.7 0.1,1.1 0,0 0,0.1 0,0.1 0,0.4 0.1,0.8 0.2,1.1 0,0 0,0 0,0 0.3,2.4 0.8,4.7 1.5,7 0,0 0,0 0,0 0.1,0.4 0.2,0.7 0.3,1.1 0,0 0,0 0,0.1 0,0.1 0,0 0,0.1 0.1,0.3 0.2,0.6 0.3,1 0,0.1 0.1,0.2 0.1,0.2 0.1,0.3 0.2,0.6 0.3,0.8 0,0.1 0.1,0.3 0.1,0.4 0.1,0.2 0.2,0.5 0.3,0.7 0.1,0.2 0.1,0.3 0.2,0.5 0.1,0.2 0.2,0.4 0.2,0.5 0.1,0.2 0.2,0.4 0.3,0.7 0.1,0.1 0.1,0.3 0.2,0.4 0.1,0.3 0.2,0.5 0.4,0.8 0,0.1 0.1,0.2 0.1,0.3 0.1,0.3 0.3,0.6 0.4,0.9 0,0 0,0.1 0.1,0.1 0.2,0.3 0.3,0.7 0.5,1 0,0 0,0 0,0 0,0.1 0.1,0.1 0.1,0.2 l 25.2,-15.2 0.1,-0.1 c -0.7,-2.1 -1.3,-4.3 -1.6,-6.6 z"
   id="path4" />
		<polygon
   class="st1"
   points="43.9,200.2 43,200.5 "
   id="polygon6" />
		<path
   class="st2"
   d="m 78.4,200.5 v 0 l -20.9,20.9 c 0.1,0.1 0.2,0.2 0.3,0.3 0.2,0.2 0.4,0.4 0.6,0.5 0.1,0.1 0.2,0.2 0.3,0.3 0.2,0.2 0.5,0.4 0.7,0.6 0.1,0.1 0.1,0.1 0.2,0.2 0.3,0.2 0.5,0.4 0.8,0.7 0,0 0.1,0.1 0.1,0.1 0.3,0.2 0.6,0.5 0.9,0.7 0,0 0,0 0,0 1.3,0.9 2.6,1.8 3.9,2.6 0,0 0.1,0.1 0.1,0.1 0.3,0.2 0.5,0.3 0.8,0.5 0.2,0.1 0.3,0.2 0.5,0.3 0.1,0.1 0.3,0.2 0.4,0.3 0.3,0.1 0.5,0.3 0.8,0.4 0,0 0.1,0 0.1,0.1 0.8,0.4 1.5,0.8 2.3,1.1 v 0 L 71,228.4 81.5,203 v -0.1 c -1,-0.8 -2.1,-1.6 -3.1,-2.4 z"
   id="path8" />
		<path
   class="st3"
   d="m 76.2,198.4 c -0.2,-0.3 -0.4,-0.5 -0.6,-0.8 -0.2,-0.2 -0.4,-0.5 -0.5,-0.7 -0.2,-0.3 -0.4,-0.5 -0.6,-0.8 -0.2,-0.3 -0.4,-0.6 -0.5,-0.8 l -25.3,15.2 c 0.4,0.6 0.8,1.3 1.2,1.9 0,0 0,0 0,0.1 v 0 c 0,0 0,0 0,0 0,0 0,0 0,0.1 0,0 0,0 0,0 0,0 0.1,0.1 0.1,0.1 0,0 0,0 0,0 0,0 0,0 0,0 0,0 0,0 0,0 0.4,0.6 0.9,1.3 1.4,1.9 0,0 0,0 0,0 0,0 0,0 0,0 0.2,0.3 0.4,0.5 0.6,0.8 0,0 0.1,0.1 0.1,0.1 0.2,0.3 0.4,0.5 0.7,0.8 0.1,0.1 0.1,0.1 0.2,0.2 0.2,0.2 0.4,0.5 0.6,0.7 0.1,0.1 0.2,0.2 0.3,0.3 0.2,0.2 0.3,0.4 0.5,0.6 0.1,0.1 0.2,0.2 0.3,0.3 0,0 0.1,0.1 0.1,0.1 0.1,0.1 0.3,0.3 0.4,0.4 0.1,0.1 0.1,0.1 0.2,0.2 0.2,0.2 0.5,0.5 0.7,0.7 l 20.8,-20.9 c -0.2,0 -0.5,-0.2 -0.7,-0.5 z"
   id="path10" />
		<path
   class="st2"
   d="m 103.9,200.5 c -0.2,0.2 -0.5,0.4 -0.7,0.5 l 0.1,0.1 15.2,25.2 c 0.7,-0.5 1.4,-0.9 2.1,-1.4 1.5,-1.1 2.9,-2.3 4.3,-3.5 z"
   id="path12" />
		<path
   class="st1"
   d="m 116.5,227.6 c 0,-0.1 0,-0.1 0,0 v 0 c 0,-0.1 0,-0.1 0,0 z"
   id="path14" />
		<polygon
   class="st1"
   points=""
   id="polygon16" />
		<path
   class="st1"
   d="m 116.5,227.5 v 0 c 0.1,0 0.1,-0.1 0.2,-0.1 v 0 c 0,0.1 -0.1,0.1 -0.2,0.1 z"
   id="path18" />
		<polygon
   class="st1"
   points=""
   id="polygon20" />
		<polygon
   class="st1"
   points="116.4,227.5 116.5,227.6 "
   id="polygon22" />
		<path
   class="st1"
   d="m 116.5,227.6 v 0 c 0,-0.1 0,-0.1 0,0 v 0 c 0,-0.1 0,-0.1 0,0 z"
   id="path24" />
		<polygon
   class="st1"
   points=""
   id="polygon26" />
		<polygon
   class="st1"
   points=""
   id="polygon28" />
		<path
   class="st1"
   d="m 116.5,227.6 c 0,0 0,0 0,0 v 0 c 0,0 0,0 0,0 v 0 c 0,0 0,0 0,0 z"
   id="path30" />
		<path
   class="st1"
   d="m 116.5,227.5 c 0.1,0 0.1,-0.1 0.2,-0.1 0,0.1 -0.1,0.1 -0.2,0.1 z"
   id="path32" />
		<polygon
   class="st1"
   points=""
   id="polygon34" />
		
			<rect
   x="116.5"
   y="227.60001"
   transform="matrix(0.8321,-0.5547,0.5547,0.8321,-106.6705,102.8268)"
   class="st1"
   width="0"
   height="0"
   id="rect36" />
		<polygon
   class="st1"
   points=""
   id="polygon38" />
		<polygon
   class="st1"
   points=""
   id="polygon40" />
		<path
   class="st0"
   d="m 116.2,226.6 -0.5,-0.9 -14.2,-23.6 c -0.3,0.2 -0.6,0.3 -0.9,0.5 -0.3,0.2 -0.6,0.3 -0.9,0.5 -2.7,1.3 -5.7,2 -8.6,2 -1.9,0 -3.9,-0.3 -5.7,-0.8 -0.3,-0.1 -0.6,-0.2 -0.9,-0.3 -0.3,-0.1 -0.6,-0.2 -0.9,-0.3 l -10.6,25.2 -0.4,1 -0.4,0.9 v 0 c 0,0 0.1,0 0.1,0 0,0 0.1,0 0.1,0 v 0 c 0,0 0,0 0,0 0,0 0,0 0,0 0.2,0.1 0.5,0.2 0.7,0.3 0.3,0.1 0.6,0.2 0.9,0.4 0.2,0.1 0.3,0.1 0.5,0.2 v 0 0 c 3.3,1.2 6.7,2 10.1,2.4 0.1,0 0.3,0 0.4,0.1 0.1,0 0.3,0 0.4,0 0.3,0 0.5,0.1 0.8,0.1 0.1,0 0.1,0 0.2,0 0.3,0 0.7,0.1 1,0.1 0.1,0 0.2,0 0.3,0 0.3,0 0.6,0 0.9,0.1 0.2,0 0.3,0 0.5,0 0.2,0 0.5,0 0.7,0 0.3,0 0.7,0 1,0 0.1,0 0.2,0 0.2,0 2.8,0 5.5,-0.2 8.2,-0.7 v 0 c 0,0 0.1,0 0.1,0 0.3,-0.1 0.6,-0.1 0.9,-0.2 0.2,0 0.3,-0.1 0.5,-0.1 0.2,0 0.3,-0.1 0.5,-0.1 0.3,-0.1 0.6,-0.1 0.8,-0.2 0.1,0 0.1,0 0.2,0 4.1,-1 8.1,-2.5 11.9,-4.4 v 0 0 c 0.2,-0.1 0.5,-0.3 0.7,-0.4 0.3,-0.2 0.6,-0.3 0.9,-0.5 0.2,-0.1 0.4,-0.2 0.6,-0.3 0,0 0,0 0,0 0,0 0,0 0,0 0,0 0,0 0,0 v 0 c 0,0 0,0 0,0 0,0 0,0 0,0 v -0.1 0.1 c 0,0 0,0 0,0 0,0 0,0 0,0 0,0 0,0 0,0 0.1,0 0.1,-0.1 0.2,-0.1 v 0 z"
   id="path42" />
		<path
   class="st0"
   d="m 78.4,169.4 c 0.2,-0.2 0.5,-0.4 0.7,-0.5 L 79,168.8 63.8,143.6 c -0.7,0.5 -1.4,0.9 -2.1,1.4 -1.5,1.1 -2.9,2.3 -4.3,3.5 z"
   id="path44" />
		<path
   class="st2"
   d="m 56.1,149.9 c -0.2,0.2 -0.5,0.5 -0.7,0.7 -0.2,0.2 -0.5,0.5 -0.7,0.7 -1.5,1.7 -2.9,3.4 -4.2,5.2 -0.1,0.1 -0.1,0.2 -0.2,0.3 -0.1,0.2 -0.3,0.4 -0.4,0.6 -0.1,0.2 -0.3,0.4 -0.4,0.7 -0.1,0.1 -0.1,0.2 -0.2,0.2 -4.8,7.5 -7.4,16 -7.7,24.6 0,0.3 0,0.7 0,1 0,0.3 0,0.7 0,1 h 29.5 c 0,-0.3 0,-0.7 0,-1 0,-0.3 0,-0.7 0.1,-1 0.4,-3.8 1.9,-7.6 4.4,-10.7 0.2,-0.3 0.4,-0.5 0.7,-0.7 0.2,-0.2 0.4,-0.5 0.7,-0.7 z"
   id="path46" />
		<path
   class="st2"
   d="m 116.9,142.5 c 0,0 -0.1,0 -0.1,-0.1 -0.3,-0.2 -0.5,-0.3 -0.8,-0.5 -0.2,-0.1 -0.3,-0.2 -0.5,-0.3 -0.2,-0.1 -0.3,-0.2 -0.5,-0.3 -0.3,-0.1 -0.5,-0.3 -0.8,-0.4 0,0 -0.1,0 -0.1,-0.1 -1.7,-0.9 -3.5,-1.7 -5.3,-2.4 0,0 -0.1,0 -0.1,-0.1 -0.4,-0.1 -0.8,-0.3 -1.2,-0.4 -3.2,-1.1 -6.6,-1.9 -9.9,-2.4 -0.1,0 -0.3,0 -0.4,-0.1 -0.1,0 -0.3,0 -0.4,0 -0.3,0 -0.5,-0.1 -0.8,-0.1 -0.1,0 -0.1,0 -0.2,0 -0.3,0 -0.6,-0.1 -1,-0.1 -0.1,0 -0.2,0 -0.4,0 -0.3,0 -0.5,0 -0.8,0 -0.1,0 -0.3,0 -0.4,0 v 29.4 0.1 c 1.5,0.2 3,0.5 4.5,1 l 21.8,-21.8 c -0.9,-0.3 -1.8,-0.9 -2.6,-1.4 z"
   id="path48" />
		<rect
   x="65.800003"
   y="142.39999"
   transform="matrix(0.8566,-0.516,0.516,0.8566,-64.2876,54.4446)"
   class="st4"
   width="0"
   height="1"
   id="rect50" />
		<polygon
   class="st4"
   points=""
   id="polygon52" />
		<path
   class="st3"
   d="m 90.1,135.3 c -0.3,0 -0.7,0 -1,0 -2.1,0.1 -4.2,0.3 -6.2,0.6 0,0 -0.1,0 -0.1,0 -0.3,0 -0.6,0.1 -0.9,0.2 -0.2,0 -0.3,0.1 -0.5,0.1 -0.2,0 -0.3,0.1 -0.5,0.1 -0.3,0.1 -0.6,0.1 -0.8,0.2 v 0 c -0.1,0 -0.1,0 -0.2,0 -4.1,1 -8.1,2.5 -11.9,4.4 0,0 0,0 0,0 v 0 c -0.2,0.1 -0.5,0.3 -0.7,0.4 -0.3,0.2 -0.6,0.3 -0.9,0.5 -0.2,0.1 -0.4,0.2 -0.6,0.4 0,0 0,0 0,0 0,0 0,0 0,0 0,0 0,0 0,0 -0.1,0 -0.1,0.1 -0.2,0.1 v 0 l 0.5,0.9 v 0 l 14.7,24.4 c 0.3,-0.2 0.6,-0.3 0.9,-0.5 0.3,-0.2 0.6,-0.3 0.9,-0.5 2.1,-1 4.3,-1.6 6.6,-1.8 0.3,0 0.7,-0.1 1,-0.1 0.3,0 0.7,0 1,0 v -29.5 c -0.4,0.1 -0.7,0.1 -1.1,0.1 z"
   id="path54" />
		<path
   class="st2"
   d="m 140.7,182.5 c 0,-0.3 0,-0.5 0,-0.8 0,-0.1 0,-0.3 0,-0.4 0,-0.3 0,-0.6 -0.1,-0.9 0,-0.1 0,-0.2 0,-0.2 0,-0.3 -0.1,-0.7 -0.1,-1 0,0 0,-0.1 0,-0.1 0,0 0,0 0,0 0,-0.4 -0.1,-0.7 -0.1,-1.1 0,0 0,0 0,0 -0.3,-2.4 -0.8,-4.7 -1.5,-7 0,0 0,0 0,0 -0.1,-0.4 -0.2,-0.7 -0.3,-1.1 0,0 0,-0.1 0,-0.1 -0.1,-0.3 -0.2,-0.6 -0.3,-1 0,-0.1 -0.1,-0.2 -0.1,-0.3 -0.1,-0.3 -0.2,-0.5 -0.3,-0.8 0,-0.1 -0.1,-0.3 -0.1,-0.4 -0.1,-0.2 -0.2,-0.5 -0.3,-0.7 -0.1,-0.2 -0.1,-0.4 -0.2,-0.5 -0.1,-0.2 -0.1,-0.4 -0.2,-0.5 -0.1,-0.2 -0.2,-0.4 -0.3,-0.7 -0.1,-0.1 -0.1,-0.3 -0.2,-0.4 -0.1,-0.3 -0.2,-0.5 -0.4,-0.8 0,-0.1 -0.1,-0.2 -0.1,-0.2 -0.1,-0.3 -0.3,-0.6 -0.4,-0.9 0,0 0,-0.1 -0.1,-0.1 -0.2,-0.3 -0.3,-0.7 -0.5,-1 0,0 0,0 0,0 -0.9,-1.6 -1.8,-3.1 -2.8,-4.6 l -21.8,21.8 c 0.5,1.5 0.8,3 1,4.5 h 0.1 29.4 c -0.3,-0.4 -0.3,-0.6 -0.3,-0.7 z"
   id="path56" />
		<path
   class="st3"
   d="m 111.3,184.9 c 0,0.3 0,0.7 0,1 0,0.3 0,0.7 -0.1,1 -0.4,3.8 -1.9,7.6 -4.4,10.7 -0.2,0.3 -0.4,0.5 -0.7,0.7 -0.2,0.2 -0.4,0.5 -0.7,0.7 l 20.9,20.9 c 0.2,-0.2 0.5,-0.5 0.7,-0.7 0.2,-0.2 0.5,-0.5 0.7,-0.7 1.5,-1.7 3,-3.4 4.2,-5.2 0.1,-0.1 0.1,-0.1 0.1,-0.2 0.2,-0.2 0.3,-0.4 0.5,-0.7 0.1,-0.2 0.3,-0.4 0.4,-0.6 0.1,-0.1 0.1,-0.2 0.2,-0.3 4.8,-7.5 7.3,-16 7.7,-24.6 0,-0.3 0,-0.7 0,-1 0,-0.3 0,-0.7 0,-1 z"
   id="path58" />
	</g>
	<path
   class="st5"
   d="m 149.5,126.6 c -5.4,-5.4 -14.1,-5.4 -19.5,0 -4.3,4.3 -5.2,10.7 -2.6,15.9 l -30.1,30.1 c -5.2,-2.6 -11.6,-1.7 -15.9,2.6 -5.4,5.4 -5.4,14.1 0,19.5 5.4,5.4 14.1,5.4 19.5,0 4.3,-4.3 5.2,-10.7 2.6,-15.9 l 30.1,-30.1 c 5.2,2.6 11.6,1.7 15.9,-2.6 5.4,-5.4 5.4,-14.1 0,-19.5 z"
   id="path62" />
</g>

<rect
   x="630.10004"
   y="-11.649998"
   class="st6"
   width="5.3000002"
   height="0"
   id="rect82" />
</svg>
