<?xml version="1.0" encoding="UTF-8"?><svg xmlns="http://www.w3.org/2000/svg" width="123.27848220475218mm" height="123.265328217130389mm" xmlns:xlink="http://www.w3.org/1999/xlink" viewBox="0 0 349.450820946734893 349.413534052128853"><defs><linearGradient id="d" x1="15.713468357496822" y1="353.625447993258604" x2="214.25669406894113" y2="122.157968771900897" gradientUnits="userSpaceOnUse"><stop offset="0" stop-color="#3daa37"/><stop offset="1" stop-color="#d8e290"/></linearGradient></defs><g isolation="isolate"><g id="b"><g id="c"><g><g><rect x="120.347678983551305" width="34.929970539718852" height="34.904380702671915" fill="#0087bb"/><rect x="159.187399837079283" width="34.904223709814687" height="34.904380702671915" fill="#0087bb"/><rect x="197.949880200940243" width="34.981778185210715" height="34.904380702671915" fill="#91d2e4"/><rect x="236.841408699958265" width="34.955403383864905" height="34.904380702671915" fill="#91d2e4"/><rect x="275.655068737865804" width="34.981778185210715" height="34.904380702671915" fill="#6dbd90"/><path d="M116.48942232950867,0V34.904380702671915h-34.956031355310188V9.028345689301204c0-4.990018218948535,4.03848446322263-9.028345689301204,9.028345689295747-9.028345689301204h25.92768566601444Z" fill="#0087bb"/><rect x="81.533390974198483" y="38.814131016479223" width="34.956031355310188" height="34.930127532592451" fill="#114494"/><rect x="120.347678983551305" y="38.814131016479223" width="34.929970539718852" height="34.930127532592451" fill="#0087bb"/><rect x="159.187399837079283" y="38.814131016479223" width="34.904223709814687" height="34.930127532592451" fill="#0087bb"/><rect x="197.949880200940243" y="38.814131016479223" width="34.981778185210715" height="34.930127532592451" fill="#0087bb"/><rect x="236.841408699958265" y="38.814131016479223" width="34.955403383864905" height="34.930127532592451" fill="#0087bb"/><rect x="275.655068737865804" y="38.814131016479223" width="34.981778185210715" height="34.930127532592451" fill="#91d2e4"/><rect x="275.655068737865804" y="77.653851870007202" width="34.981778185210715" height="34.955874362465693" fill="#91d2e4"/><rect x="275.655068737865804" y="116.467982886515529" width="34.981778185210715" height="34.981464199485345" fill="#0087bb"/><rect x="275.655068737865804" y="155.307703740039869" width="34.981778185210715" height="34.955874362465693" fill="#0087bb"/><rect x="275.655068737865804" y="194.121834756548196" width="34.981778185210715" height="34.981464199459879" fill="#114494"/><rect x="275.655068737865804" y="232.961555610050709" width="34.981778185210715" height="34.955874362462964" fill="#114494"/><path d="M349.450820946734893,9.028345689301204v25.927528673139022h-34.955717369619379V0h25.927371680296346c4.990175211794849,0,9.028345689323032,4.038327470352669,9.028345689323032,9.028345689301204Z" fill="#3eab38"/><path d="M349.450820946734893,232.961555610050709v25.927528673164488c0,4.964271389050737-4.038170477528183,9.028345689298476-9.028345689323032,9.028345689298476h-25.927371680296346v-34.955874362462964h34.955717369619379Z" fill="#114494"/><rect x="314.495103577115515" y="194.173328416316508" width="34.955717369619379" height="34.929970539691567" fill="#0087bb"/><rect x="314.495103577115515" y="155.359197399811819" width="34.955717369619379" height="34.904380702693743" fill="#91d2e4"/><rect x="314.495103577115515" y="116.51947654628384" width="34.955717369619379" height="34.981464199488983" fill="#91d2e4"/><rect x="314.495103577115515" y="77.653851870007202" width="34.955717369619379" height="34.955874362465693" fill="#91d2e4"/><rect x="314.495103577115515" y="38.814131016479223" width="34.955717369619379" height="34.981464199488983" fill="#6dbd90"/></g><rect x="81.533390974198483" y="56.304863116227352" width="211.612566856287231" height="211.612566856286321" fill="#010101" mix-blend-mode="multiply" opacity=".3"/><g><path d="M271.777043027592299,77.638004418426135V338.456060035784503c0,6.044696287066472-4.912620736431563,10.957474016344349-10.956846044869962,10.957474016344349H10.959144403084792C4.889172264745866,349.413534052128853,.001670386736805,344.500756322850975,.001670386736805,338.456060035784503V88.595321441869601c0-6.04453929416195,4.887501878009061-10.957317023443466,10.957474016347987-10.957317023443466H271.777043027592299Z" fill="url(#d)"/><g opacity=".7"><path d="M230.5691413379609,149.401483987832762c-4.192337471085921-8.848274872965703-14.095447405039522-13.529645119015186-22.840577965609555-17.645056086181285-1.183098231806071-.565959278879745-2.340449633713433-1.106014735014469-3.472682177220122-1.671974013894214-6.507040274933388-3.163720218592061-14.120566263471119-.102830326690309-18.442265855446749,4.115567960023327-3.961243973579258,3.858256654035358-6.661521254238323,9.491317648658878-8.050594125128555,16.744858997401025-2.444064924726263,12.886445350464783,.076612518194452,25.335822564360569,6.89324272322483,34.184097437351738,5.864625470701867,7.613682981416787,14.918717989898141,11.960658424664871,23.663848550473631,11.960658424664871,3.11222655882375,0,6.172959457879188-.565959278879745,9.054092519196274-1.697720843789284,8.076968926470727-3.189467048468941,14.430156193564471-10.905980356550572,16.564631188190106-20.140143692082347,1.877634667253005-8.076497947877215,.668789605577331-17.25916762363704-3.36969485767986-25.850288183493831Zm-.385574476818874,24.975837924594089c-1.851887837347022,8.025161280980683-7.304564029913308,14.686996520944376-14.224181554447568,17.439238439968904-9.285186016710213,3.678185837707133-21.425758264860633-.205660653358791-28.242388469861908-9.028188696447614-6.147212628005946-7.973824614084151-8.385302913653504-19.317030100100965-6.147212628005946-31.123364538325404,1.208845061702959-6.456174586604902,3.549294695414574-11.420445975654729,6.944736382989504-14.712743350817618,2.494930613029283-2.443593946125475,6.301693607296329-4.29563877635519,9.953975622252983-4.29563877635519,1.414819700790758,0,2.803892571673714,.283058135879401,4.115724952893288,.90035408165204,1.131604572034121,.565802286033431,2.289583945417689,1.106014735014469,3.472682177216484,1.671817021044262,8.179328274578438,3.858256654038996,17.438767461382668,8.230978927189426,21.014436958137594,15.818915078700229,3.678028844859,7.819343634750112,4.783886586998051,16.10181622170785,3.112226558825569,23.329610740580392Z" fill="#fff"/><path d="M271.77537264082639,261.882633063767571v3.858256654036268c-48.125220855956286-.411635292439314-60.111312124765391-12.500870873672284-71.711828916786544-24.229964822226066-4.372565280269555-4.42405894006879-8.51403706306337-8.616710396883718-14.6097560312719-11.934911594791629-12.217812737795612-6.713328899732005-22.198163161418051-9.414077158995497-30.197263626774657-11.600359799143916-15.536013935703522-4.192651456814929-25.773204686702229-6.970640205738164-34.698563056459534-32.255126103205839-6.533415076279198-18.493916508086841,2.16022182452798-39.482763629199326,12.448906235298637-52.960915088442562,10.62339319927014-13.889786751708016,21.040183788007198-40.100216567851021,22.223909991287655-55.121607891567692h3.858256654040815c-1.132232543508508,17.079096807301539-12.86085551346514,44.164133875223342-22.995686916403429,57.462214518156543-9.697135294871259,12.68078469712782-17.902210399308387,32.280715940225491-11.908850779167551,49.334222910507378,8.256568764212716,23.381104400345066,16.719112167504136,25.670374360037385,32.074898294024024,29.837278986949968,8.205075104438947,2.212029470050766,18.416519025544403,4.990018218952173,31.046281041504699,11.909164764922025,6.610027594466374,3.600945348036475,11.137701825526165,8.179485267413838,15.510267105824823,12.603544207457162,11.034086534511516,11.163291662553092,22.455003488796137,22.686567964905407,68.959430004882961,23.098203257348359Z" fill="#fff"/><path d="M271.77537264082639,303.397355346650329v3.935497143687826c-1.414191729312734,.282901143025811-3.240332736786513,.694379442596983-5.220954723583418,1.157508394808247-9.954603593723732,2.289112966813263-26.004926155655994,6.018792464288708-42.621051003621687,6.018792464288708-19.52300473917785,0-39.791411602102016-5.144342205385328-51.623649863071478-23.7925826999126-18.854215133615071-29.734291667436082-41.15473764309354-30.042939640309669-64.741345703923798-30.351587613212359-11.292182804843833-.154323986433155-22.969940086504721-.308647972899053-34.647069396693041-3.652439007830253-10.108456601588841-2.752241919028165-17.851344711009006-9.542811308405362-22.352644140726625-19.625678072970913-6.841749063423777-15.330196289494779-5.555663512073806-37.373721478696098,3.190095019941509-54.890200408339297,3.960616002135794-7.896584124417132,8.848117880115751-14.789983840484638,13.555391948913893-21.477565910350677,14.043953745269391-19.805748889306415,27.290383735555224-38.53122987347524,19.496629937835678-83.081095218392875h3.93549714368055c7.76800696785358,45.707373739696777-6.48192141650361,65.82177060190952-20.268406862924166,85.318871518313244-4.655780409020736,6.55900491329885-9.44029496746225,13.323827472802805-13.247057961731116,20.963100291242881-8.282315594109605,16.539198344042234-9.542654315557229,37.270891152027616-3.137973388720638,51.5721562032777,4.012737633349388,9.002598859424324,10.880233526673692,15.047138153615379,19.857085556224774,17.490732099748129,11.214942315178632,3.215213878364011,22.635231297979772,3.36953786482627,33.669945803969313,3.523861851263064,23.586608060832077,.308647972899053,47.970739876644075,.643042775674985,67.956559582289628,32.152138783666487,20.397141012359498,32.152138783665578,69.26839196353103,20.886016794447642,90.103229083928454,16.07606939183097,2.520677442924352-.565959278876107,4.552793089489569-1.028931238215591,6.095718968212168-1.337579211118282Z" fill="#fff"/><path d="M20.886330780169374,170.158923625713214c-8.308690395457234,8.642457226753322-16.899339976718693,17.542225759512803-20.886330780169374,26.853472591839818v-8.127991607645527c4.681527238899434-7.485105824845959,11.471782642580365-14.532829527383001,18.108185038396186-21.400482413555437,6.147212627976842-6.379091089835129,11.934597609037155-12.372136724257871,15.561760765567669-18.18526853518415,13.323670479954671-21.374735583685833,13.323670479954671-40.30587722121345,13.349417309827913-68.959900983511034v-2.70074825923075h3.858256654042634v2.70074825923075c-.025746829869604,28.268135299753339-.025746829869604,48.691180134861497-13.940966425732768,70.991859637193556-3.83250982413665,6.173273443604558-9.748628954639571,12.320800057335873-16.050322561932262,18.828311310862773Z" fill="#fff"/><path d="M149.03144297689505,349.413534052128853h-3.960616002135794c-2.366824435055605-8.874021702860773-15.536013935696246-22.55799080833458-29.785942320051618-30.480164769778639-13.503898289140125-7.485105824842321-26.853315598966219-7.43361216507401-41.026003493649114-7.43361216507401-9.774375784543736,.025746829898708-19.831966697809548,.025746829898708-30.145769967009983-2.546424272793956-9.877363104053074-2.443593946129113-30.737947054349206-8.976852029554721-44.113111194048543-22.583737638233288v-5.735891321292002c12.295053227437165,14.970054656820139,34.801550375999796,22.01777835935718,45.03874112700214,24.589949462053482,9.851616274183471,2.443593946121837,19.676857747017493,2.417847116226767,29.194393204154039,2.417847116226767,14.069700575169918-.025746829873242,28.550722457031952-.051493659768312,42.903638160925766,7.922330954312201,14.352915703897452,7.973667621183267,29.657208170614467,22.840891951338563,31.894670484813105,33.849702634579444Z" fill="#fff"/></g></g><g><polygon points="247.98362161112891 77.638004418426135 224.190200194716454 77.638004418426135 224.190200194716454 101.431425834834954 247.98362161112891 101.431425834834954 247.98362161112891 125.224700790564384 271.777043027592299 125.224700790564384 271.777043027592299 101.431425834834954 271.777043027592299 77.638004418426135 247.98362161112891 77.638004418426135" fill="#fff"/><polygon points="81.533390974198483 101.431425834834954 81.533390974198483 125.224847251272877 105.326812390638224 125.224847251272877 105.326812390638224 101.431425834834954 129.120087346338551 101.431425834834954 129.120087346338551 77.638004418426135 105.326812390638224 77.638004418426135 81.533390974198483 77.638004418426135 81.533390974198483 101.431425834834954" fill="#fff"/><polygon points="247.98362161112891 267.917429972513673 224.190200194716454 267.917429972513673 224.190200194716454 244.124008556100307 247.98362161112891 244.124008556100307 247.98362161112891 220.330733600370877 271.777043027592299 220.330733600370877 271.777043027592299 244.124008556100307 271.777043027592299 267.917429972513673 247.98362161112891 267.917429972513673" fill="#fff"/><polygon points="81.533390974198483 244.124008556100307 81.533390974198483 220.330587139662384 105.326812390638224 220.330587139662384 105.326812390638224 244.124008556100307 129.120087346338551 244.124008556100307 129.120087346338551 267.917429972513673 105.326812390638224 267.917429972513673 81.533390974198483 267.917429972513673 81.533390974198483 244.124008556100307" fill="#fff"/></g></g></g></g></g></svg>