<?xml version="1.0" encoding="UTF-8"?><svg xmlns="http://www.w3.org/2000/svg" width="498" height="498" xmlns:xlink="http://www.w3.org/1999/xlink" viewBox="0 0 498 498"><defs><linearGradient id="b" x1="89.509261860628612" y1="427.918680967196451" x2="288.052487572071641" y2="196.451201745840251" gradientUnits="userSpaceOnUse"><stop offset="0" stop-color="#3daa37"/><stop offset="1" stop-color="#d8e290"/></linearGradient></defs><g isolation="isolate"><g id="a"><g><g><rect x="194.143472486679457" y="74.293232973939666" width="34.929970539720671" height="34.904380702671915" fill="#0087bb"/><rect x="232.983193340209255" y="74.293232973939666" width="34.904223709811049" height="34.904380702671915" fill="#0087bb"/><rect x="271.745673704070214" y="74.293232973939666" width="34.981778185208896" height="34.904380702671915" fill="#91d2e4"/><rect x="310.637202203090055" y="74.293232973939666" width="34.955403383859448" height="34.904380702671915" fill="#91d2e4"/><rect x="349.450862240999413" y="74.293232973939666" width="34.981778185210715" height="34.904380702671915" fill="#6dbd90"/><path d="M190.285215832640461,74.293232973939666v34.904380702671915h-34.956031355310188v-25.876035013370711c0-4.990018218948535,4.038484463218992-9.028345689301204,9.028345689288471-9.028345689301204h25.927685666021716Z" fill="#0087bb"/><rect x="155.329184477330273" y="113.107363990418889" width="34.956031355310188" height="34.930127532592451" fill="#114494"/><rect x="194.143472486679457" y="113.107363990418889" width="34.929970539720671" height="34.930127532592451" fill="#0087bb"/><rect x="232.983193340209255" y="113.107363990418889" width="34.904223709811049" height="34.930127532592451" fill="#0087bb"/><rect x="271.745673704070214" y="113.107363990418889" width="34.981778185208896" height="34.930127532592451" fill="#0087bb"/><rect x="310.637202203090055" y="113.107363990418889" width="34.955403383859448" height="34.930127532592451" fill="#0087bb"/><rect x="349.450862240999413" y="113.107363990418889" width="34.981778185210715" height="34.930127532592451" fill="#91d2e4"/><rect x="349.450862240999413" y="151.947084843947778" width="34.981778185210715" height="34.955874362464783" fill="#91d2e4"/><rect x="349.450862240999413" y="190.761215860455195" width="34.981778185210715" height="34.981464199485345" fill="#0087bb"/><rect x="349.450862240999413" y="229.600936713979536" width="34.981778185210715" height="34.955874362465693" fill="#0087bb"/><rect x="349.450862240999413" y="268.415067730488772" width="34.981778185210715" height="34.98146419945806" fill="#114494"/><rect x="349.450862240999413" y="307.254788583990376" width="34.981778185210715" height="34.955874362462964" fill="#114494"/><path d="M423.246614449870322,83.321578663240871v25.927528673139022h-34.955717369619379v-34.955874362440227h25.92737168028907c4.990175211798487,0,9.028345689330308,4.038327470352669,9.028345689330308,9.028345689301204Z" fill="#3eab38"/><path d="M423.246614449870322,307.254788583990376v25.927528673164488c0,4.964271389050737-4.038170477531821,9.028345689298476-9.028345689330308,9.028345689298476h-25.92737168028907v-34.955874362462964h34.955717369619379Z" fill="#114494"/><rect x="388.290897080250943" y="268.466561390256174" width="34.955717369619379" height="34.929970539690657" fill="#0087bb"/><rect x="388.290897080250943" y="229.652430373751486" width="34.955717369619379" height="34.904380702693743" fill="#91d2e4"/><rect x="388.290897080250943" y="190.812709520223507" width="34.955717369619379" height="34.981464199488983" fill="#91d2e4"/><rect x="388.290897080250943" y="151.947084843947778" width="34.955717369619379" height="34.955874362464783" fill="#91d2e4"/><rect x="388.290897080250943" y="113.107363990418889" width="34.955717369619379" height="34.981464199488983" fill="#6dbd90"/></g><rect x="155.329184477330273" y="130.598096090167019" width="211.61256685628905" height="211.612566856286321" fill="#010101" mix-blend-mode="multiply" opacity=".3"/><g><path d="M345.572836530720451,151.931237392364892V412.74929300972417c0,6.044696287066472-4.912620736431563,10.957474016344349-10.956846044871781,10.957474016344349H84.754937906220221c-6.069972138340745,0-10.957474016351625-4.912777729277877-10.957474016351625-10.957474016344349V162.888554415809267c0-6.04453929416195,4.88750187801088-10.957317023444375,10.957474016351625-10.957317023444375H345.572836530720451Z" fill="url(#b)"/><g opacity=".7"><path d="M304.364934841089052,223.694716961772428c-4.192337471078645-8.848274872966613-14.095447405039522-13.529645119015186-22.840577965609555-17.645056086181285-1.183098231798795-.565959278879745-2.340449633709795-1.106014735014469-3.472682177220122-1.671974013894214-6.50704027492975-3.163720218591152-14.1205662634693-.102830326690309-18.442265855439473,4.115567960023327-3.961243973579258,3.858256654035358-6.661521254240142,9.491317648658878-8.050594125130374,16.744858997401025-2.444064924729901,12.886445350464783,.076612518190814,25.335822564361479,6.893242723219373,34.184097437351738,5.864625470701867,7.613682981415877,14.918717989901779,11.960658424664871,23.663848550469993,11.960658424664871,3.112226558831026,0,6.172959457881007-.565959278879745,9.054092519199912-1.697720843789284,8.076968926470727-3.189467048468941,14.430156193571747-10.905980356550572,16.564631188190106-20.140143692082347,1.877634667251186-8.076497947877215,.668789605580969-17.25916762363704-3.36969485767986-25.850288183493831Zm-.385574476818874,24.975837924594089c-1.851887837339746,8.025161280980683-7.30456402990967,14.686996520944376-14.224181554440293,17.439238439968904-9.285186016721127,3.678185837707133-21.425758264869728-.205660653358791-28.242388469869184-9.028188696448524-6.147212628000489-7.973824614083242-8.385302913651685-19.317030100099146-6.147212628000489-31.123364538324495,1.208845061699321-6.456174586604902,3.549294695409117-11.420445975654729,6.944736382989504-14.712743350818528,2.494930613031102-2.443593946124565,6.301693607290872-4.295638776354281,9.953975622249345-4.295638776354281,1.414819700790758,0,2.803892571670076,.283058135879401,4.115724952891469,.90035408165204,1.131604572039578,.565802286033431,2.289583945419508,1.106014735014469,3.472682177220122,1.671817021044262,8.179328274578438,3.858256654038996,17.43876746137903,8.230978927189426,21.014436958139413,15.818915078700229,3.678028844859,7.819343634750112,4.78388658699987,16.10181622170785,3.112226558820112,23.329610740580392Z" fill="#fff"/><path d="M345.571166143959999,336.175866037707237v3.858256654036268c-48.125220855959924-.411635292439314-60.111312124770848-12.500870873672284-71.711828916790182-24.229964822226066-4.372565280269555-4.42405894006879-8.514037063059732-8.616710396883718-14.609756031270081-11.934911594792538-12.21781273779925-6.713328899732005-22.19816316141987-9.414077158994587-30.197263626780114-11.600359799143007-15.536013935699884-4.192651456814929-25.77320468670041-6.970640205739073-34.698563056459534-32.255126103205839-6.533415076270103-18.493916508086841,2.160221824529799-39.482763629200235,12.448906235300456-52.960915088442562,10.623393199268321-13.889786751708016,21.040183788009017-40.100216567851021,22.223909991289474-55.121607891568601h3.858256654038996c-1.132232543508508,17.079096807302449-12.860855513459683,44.164133875224252-22.995686916399791,57.462214518157452-9.69713529486944,12.68078469712782-17.902210399310206,32.280715940226401-11.90885077916937,49.334222910506469,8.256568764210897,23.381104400345066,16.719112167500498,25.670374360038295,32.074898294020386,29.837278986950878,8.205075104438947,2.212029470050766,18.41651902554986,4.990018218953082,31.046281041510156,11.909164764922025,6.610027594470012,3.600945348036475,11.137701825529803,8.179485267413838,15.510267105819366,12.603544207457162,11.034086534520611,11.163291662553092,22.455003488799775,22.686567964905407,68.959430004890237,23.098203257348359Z" fill="#fff"/><path d="M345.571166143959999,377.690588320589995v3.935497143688735c-1.414191729320009,.282901143024901-3.240332736790151,.694379442595164-5.220954723590694,1.157508394807337-9.954603593720094,2.289112966813263-26.004926155650537,6.018792464287799-42.621051003619868,6.018792464287799-19.523004739179669,0-39.791411602100197-5.144342205384419-51.623649863069659-23.792582699911691-18.854215133609614-29.734291667436082-41.154737643089902-30.042939640309669-64.74134570392016-30.35158761321145-11.29218280484929-.154323986434065-22.969940086510178-.308647972900872-34.647069396700317-3.652439007831163-10.10845660159066-2.752241919028165-17.851344711009006-9.542811308405362-22.352644140719349-19.625678072970913-6.841749063429234-15.330196289494779-5.555663512079263-37.373721478696098,3.19009501993969-54.890200408339297,3.960616002130337-7.896584124417132,8.848117880110294-14.789983840484638,13.555391948910255-21.477565910350677,14.043953745269391-19.805748889306415,27.290383735558862-38.53122987347524,19.496629937839316-83.081095218393784h3.93549714368055c7.768006967849942,45.707373739697687-6.481921416510886,65.82177060191043-20.268406862929623,85.318871518314154-4.655780409020736,6.55900491329885-9.440294967460432,13.323827472803714-13.247057961731116,20.963100291242881-8.282315594109605,16.539198344042234-9.542654315549953,37.270891152027616-3.137973388718819,51.5721562032777,4.012737633349388,9.002598859424324,10.880233526679149,15.047138153615379,19.857085556228412,17.49073209974722,11.214942315180451,3.215213878364011,22.635231297981591,3.36953786482718,33.669945803971132,3.523861851264883,23.586608060830258,.308647972898143,47.970739876640437,.643042775673166,67.956559582289628,32.152138783665578,20.397141012361317,32.152138783665578,69.268391963529211,20.886016794447642,90.103229083919359,16.07606939183097,2.520677442931628-.565959278876107,4.552793089491388-1.028931238215591,6.095718968221263-1.337579211118282Z" fill="#fff"/><path d="M94.682124283299345,244.452156599652881c-8.308690395459053,8.642457226753322-16.899339976718693,17.542225759512803-20.886330780169374,26.853472591839818v-8.127991607645527c4.681527238899434-7.485105824845959,11.471782642580365-14.532829527383001,18.108185038399824-21.400482413556347,6.147212627969566-6.379091089834219,11.934597609029879-12.372136724256052,15.561760765560393-18.185268535183241,13.323670479960128-21.374735583686743,13.323670479960128-40.30587722121345,13.349417309829732-68.959900983511034v-2.700748259231659h3.858256654038996v2.700748259231659c-.02574682985869,28.268135299753339-.02574682985869,48.691180134861497-13.94096642572913,70.991859637193556-3.832509824129374,6.173273443604558-9.748628954639571,12.320800057335873-16.050322561930443,18.828311310862773Z" fill="#fff"/><path d="M222.827236480030479,423.706767026068519h-3.960616002141251c-2.366824435059243-8.874021702860773-15.536013935699884-22.55799080833458-29.785942320049799-30.480164769778639-13.503898289140125-7.485105824842321-26.853315598969857-7.43361216507401-41.026003493649114-7.43361216507401-9.774375784540098,.025746829898708-19.831966697809548,.025746829898708-30.145769967009983-2.546424272793956-9.877363104051256-2.443593946130022-30.737947054351025-8.976852029554721-44.113111194050362-22.583737638233288v-5.735891321292002c12.295053227438984,14.970054656820139,34.801550375999796,22.017778359356271,45.038741127000321,24.589949462053482,9.851616274188927,2.443593946121837,19.676857747019312,2.417847116226767,29.194393204159496,2.417847116226767,14.069700575169918-.025746829873242,28.550722457030133-.051493659768312,42.903638160920309,7.922330954312201,14.352915703899271,7.973667621183267,29.657208170619924,22.840891951338563,31.894670484820381,33.849702634579444Z" fill="#fff"/></g></g><g><polygon points="321.779415114260701 151.931237392364892 297.985993697850063 151.931237392364892 297.985993697850063 175.72465880877462 321.779415114260701 175.72465880877462 321.779415114260701 199.51793376450405 345.572836530720451 199.51793376450405 345.572836530720451 175.72465880877462 345.572836530720451 151.931237392364892 321.779415114260701 151.931237392364892" fill="#fff"/><polygon points="155.329184477330273 175.72465880877462 155.329184477330273 199.518080225212543 179.122605893770015 199.518080225212543 179.122605893770015 175.72465880877462 202.915880849470341 175.72465880877462 202.915880849470341 151.931237392364892 179.122605893770015 151.931237392364892 155.329184477330273 151.931237392364892 155.329184477330273 175.72465880877462" fill="#fff"/><polygon points="321.779415114260701 342.21066294645334 297.985993697850063 342.21066294645334 297.985993697850063 318.417241530039973 321.779415114260701 318.417241530039973 321.779415114260701 294.623966574310543 345.572836530720451 294.623966574310543 345.572836530720451 318.417241530039973 345.572836530720451 342.21066294645334 321.779415114260701 342.21066294645334" fill="#fff"/><polygon points="155.329184477330273 318.417241530039973 155.329184477330273 294.623820113602051 179.122605893770015 294.623820113602051 179.122605893770015 318.417241530039973 202.915880849470341 318.417241530039973 202.915880849470341 342.21066294645334 179.122605893770015 342.21066294645334 155.329184477330273 342.21066294645334 155.329184477330273 318.417241530039973" fill="#fff"/></g></g></g></g></svg>